<?xml version="1.0" standalone="no"?>
<!DOCTYPE svg PUBLIC "-//W3C//DTD SVG 1.1//EN" "http://www.w3.org/Graphics/SVG/1.1/DTD/svg11.dtd" >
<svg xmlns="http://www.w3.org/2000/svg" xmlns:xlink="http://www.w3.org/1999/xlink" version="1.1">
<metadata></metadata>
<defs>
<font id="rubikblack" horiz-adv-x="1380" >
<font-face units-per-em="2048" ascent="1638" descent="-410" />
<missing-glyph horiz-adv-x="380" />
<glyph unicode="ff" horiz-adv-x="1851" d="M31 762v248q0 23 16 39t39 16h141v35q0 125 41 205.5t114 128t170 65t208 17.5h190q23 0 39.5 -16.5t16.5 -39.5v-248q0 -23 -16.5 -39t-39.5 -16h-166q-88 0 -88 -67v-25h375v35q0 125 41 205.5t113.5 128t170 65t208.5 17.5h190q23 0 39 -16.5t16 -39.5v-248 q0 -23 -16 -39t-39 -16h-166q-88 0 -88 -67v-25h234q23 0 39 -16.5t16 -38.5v-248q0 -23 -16.5 -39t-38.5 -16h-234v-652q0 -23 -16.5 -39t-38.5 -16h-359q-23 0 -39 16.5t-16 38.5v652h-375v-652q0 -23 -16 -39t-39 -16h-358q-23 0 -39.5 16.5t-16.5 38.5v652h-141 q-23 0 -39 16t-16 39z" />
<glyph unicode="fi" horiz-adv-x="1607" d="M31 762v248q0 23 16 39t39 16h141v35q0 125 41 205.5t114 128t170 65t208 17.5h700q23 0 39.5 -16.5t16.5 -39.5v-248q0 -23 -16.5 -39t-39.5 -16h-676q-88 0 -88 -67v-25h764q23 0 39.5 -16.5t16.5 -38.5v-955q0 -23 -16.5 -39t-39.5 -16h-358q-23 0 -39 16.5t-16 38.5 v652h-351v-652q0 -23 -16 -39t-39 -16h-358q-23 0 -39.5 16.5t-16.5 38.5v652h-141q-23 0 -39 16t-16 39z" />
<glyph unicode="fl" horiz-adv-x="1632" d="M31 762v248q0 23 16 39t39 16h141v35q0 125 41 205.5t114 128t170 65t208 17.5h149q23 0 39.5 -16.5t16.5 -39.5v-248q0 -23 -16.5 -39t-39.5 -16h-125q-88 0 -88 -67v-25h375v395q0 23 16.5 39.5t38.5 16.5h359q23 0 39 -16.5t16 -39.5v-1405q0 -23 -16.5 -39t-38.5 -16 h-359q-23 0 -39 16.5t-16 38.5v652h-375v-652q0 -23 -16 -39t-39 -16h-358q-23 0 -39.5 16.5t-16.5 38.5v652h-141q-23 0 -39 16t-16 39z" />
<glyph unicode="ffi" horiz-adv-x="2451" d="M31 762v248q0 23 16 39t39 16h141v35q0 125 41 205.5t114 128t170 65t208 17.5h190q23 0 39.5 -16.5t16.5 -39.5v-248q0 -23 -16.5 -39t-39.5 -16h-166q-88 0 -88 -67v-25h375v35q0 125 41 205.5t113.5 128t170 65t208.5 17.5h700q23 0 39 -16.5t16 -39.5v-248 q0 -23 -16 -39t-39 -16h-676q-88 0 -88 -67v-25h764q23 0 39 -16.5t16 -38.5v-955q0 -23 -16 -39t-39 -16h-358q-23 0 -39.5 16.5t-16.5 38.5v652h-350v-652q0 -23 -16.5 -39t-38.5 -16h-359q-23 0 -39 16.5t-16 38.5v652h-375v-652q0 -23 -16 -39t-39 -16h-358 q-23 0 -39.5 16.5t-16.5 38.5v652h-141q-23 0 -39 16t-16 39z" />
<glyph unicode="ffl" horiz-adv-x="2476" d="M31 762v248q0 23 16 39t39 16h141v35q0 125 41 205.5t114 128t170 65t208 17.5h190q23 0 39.5 -16.5t16.5 -39.5v-248q0 -23 -16.5 -39t-39.5 -16h-166q-88 0 -88 -67v-25h375v35q0 125 41 205.5t113.5 128t170 65t208.5 17.5h149q23 0 39 -16.5t16 -39.5v-248 q0 -23 -16 -39t-39 -16h-125q-88 0 -88 -67v-25h375v395q0 23 16.5 39.5t38.5 16.5h359q23 0 39 -16.5t16 -39.5v-1405q0 -23 -16.5 -39t-38.5 -16h-359q-23 0 -39 16.5t-16 38.5v652h-375v-652q0 -23 -16.5 -39t-38.5 -16h-359q-23 0 -39 16.5t-16 38.5v652h-375v-652 q0 -23 -16 -39t-39 -16h-358q-23 0 -39.5 16.5t-16.5 38.5v652h-141q-23 0 -39 16t-16 39z" />
<glyph unicode=" "  horiz-adv-x="380" />
<glyph unicode="&#x09;" horiz-adv-x="380" />
<glyph unicode="&#xa0;" horiz-adv-x="380" />
<glyph unicode="!" horiz-adv-x="675" d="M104 55v357q0 23 16.5 39t39.5 16h356q23 0 39 -16.5t16 -38.5v-357q0 -23 -16 -39t-39 -16h-356q-23 0 -39.5 16.5t-16.5 38.5zM104 604v774q0 23 16.5 39.5t39.5 16.5h356q23 0 39 -16.5t16 -39.5v-774q0 -23 -16 -39t-39 -16h-356q-23 0 -39.5 16.5t-16.5 38.5z" />
<glyph unicode="&#x22;" horiz-adv-x="1062" d="M59 1380q-4 35 11.5 54.5t44.5 19.5h311q29 0 44 -19.5t11 -54.5l-55 -479q-4 -25 -17.5 -45t-54.5 -20h-168q-41 0 -54 20.5t-17 44.5zM582 1380q-4 35 11 54.5t44 19.5h311q29 0 44.5 -19.5t11.5 -54.5l-56 -479q-4 -25 -17 -45t-54 -20h-168q-41 0 -54.5 20.5 t-17.5 44.5z" />
<glyph unicode="#" horiz-adv-x="1386" d="M82 330v241q0 23 14.5 37.5t36.5 14.5h148l26 176h-121q-23 0 -37 14t-14 37v242q0 23 14.5 37t36.5 14h172l25 155q4 16 16.5 29.5t32.5 13.5h238q18 0 31.5 -13t13.5 -32v-6l-23 -147h131l25 155q4 16 16.5 29.5t32.5 13.5h238q18 0 31.5 -13t13.5 -32v-6l-23 -147h96 q23 0 37.5 -14.5t14.5 -36.5v-242q0 -23 -14.5 -37t-37.5 -14h-147l-27 -176h121q23 0 37 -14.5t14 -37.5v-241q0 -23 -14 -37t-37 -14h-172l-22 -156q-4 -18 -17.5 -30.5t-34.5 -12.5h-237q-18 0 -31.5 13t-13.5 32v4l22 150h-131l-22 -156q-4 -18 -17.5 -30.5t-34.5 -12.5 h-237q-18 0 -31.5 13t-13.5 32v4l22 150h-96q-23 0 -37 14t-14 37zM614 623h131l27 176h-131z" />
<glyph unicode="$" horiz-adv-x="1456" d="M51 416q0 18 13.5 31.5t31.5 13.5h389q33 0 49.5 -9.5t38.5 -25.5q29 -23 65 -35t87 -12q70 0 112 14.5t42 42.5q0 37 -56.5 56.5t-208.5 39.5q-121 16 -219 50t-166.5 89.5t-105.5 132.5t-37 179q0 88 32 163t92 134t144 100t189 60v143q0 23 16 39t39 16h248 q23 0 39 -16t16 -39v-149q109 -23 192 -68t140 -101.5t88 -118t33 -116.5q0 -18 -13.5 -31.5t-29.5 -13.5h-410q-29 0 -46 8t-36 25q-10 10 -37.5 23.5t-70.5 13.5q-53 0 -76 -15.5t-23 -42.5q0 -14 9.5 -26.5t35 -23.5t69.5 -20t114 -18q154 -18 261 -53t174.5 -89 t98.5 -129t31 -175q0 -94 -37 -173t-104.5 -138.5t-159.5 -99.5t-203 -58v-144q0 -23 -16.5 -39t-38.5 -16h-248q-23 0 -39 16.5t-16 38.5v142q-123 18 -215 59t-152.5 97.5t-91.5 125t-33 142.5z" />
<glyph unicode="%" horiz-adv-x="1732" d="M53 1072q0 44 4 102q8 125 94.5 197.5t237.5 72.5q152 0 238 -72.5t94 -197.5q4 -57 4 -101.5t-4 -97.5q-10 -123 -99.5 -195.5t-232.5 -72.5t-232 72.5t-100 195.5q-4 53 -4 97zM184 41q0 4 2 10t7 12l1011 1332q14 18 29.5 28.5t44.5 10.5h213q23 0 36 -11.5t13 -29.5 q0 -4 -2 -10.5t-6 -12.5l-1012 -1331q-14 -18 -29.5 -28.5t-44.5 -10.5h-213q-23 0 -36 11.5t-13 29.5zM338 989q2 -27 13 -44t38 -17t38 17.5t13 43.5q6 88 0 170q-2 27 -13 44.5t-38 17.5t-38 -17.5t-13 -44.5q-6 -82 0 -170zM1008 355q0 44 4 102q8 125 94 197.5 t237 72.5q152 0 238 -72.5t94 -197.5q4 -57 4 -101.5t-4 -97.5q-10 -123 -99 -195.5t-233 -72.5q-143 0 -232 72.5t-99 195.5q-4 53 -4 97zM1292 272q2 -27 13.5 -44t37.5 -17q27 0 38.5 17.5t13.5 43.5q6 88 0 170q-2 27 -13.5 44.5t-38.5 17.5t-38 -17.5t-13 -44.5 q-6 -82 0 -170z" />
<glyph unicode="&#x26;" horiz-adv-x="1603" d="M70 412q0 125 66.5 220t199.5 169q-66 70 -93.5 138.5t-27.5 133.5q0 74 28.5 143.5t90 122t156 84t225.5 31.5q117 0 204 -31.5t145 -83t88 -119t30 -137.5q0 -117 -66.5 -201.5t-195.5 -160.5l153 -160q14 16 31 41q14 20 32.5 52t37.5 75q8 20 40 21h310 q16 0 26.5 -10.5t10.5 -26.5q0 -33 -27 -86.5t-64.5 -110.5t-79.5 -111.5t-73 -87.5l244 -254q12 -12 12 -28q0 -14 -10.5 -24.5t-26.5 -10.5h-418q-23 0 -33 7t-18 13l-55 50q-88 -57 -179.5 -73.5t-195.5 -16.5q-264 0 -415.5 110.5t-151.5 321.5zM516 434q0 -49 39 -80.5 t82 -31.5q41 0 70.5 5t52.5 19l-180 186q-27 -12 -45.5 -39.5t-18.5 -58.5zM637 1065q0 -47 55 -98q45 20 70.5 43.5t25.5 56.5t-20 53.5t-55 20.5q-29 0 -52.5 -20.5t-23.5 -55.5z" />
<glyph unicode="'" horiz-adv-x="540" d="M59 1380q-4 35 11.5 54.5t44.5 19.5h311q29 0 44 -19.5t11 -54.5l-55 -479q-4 -25 -17.5 -45t-54.5 -20h-168q-41 0 -54 20.5t-17 44.5z" />
<glyph unicode="(" horiz-adv-x="866" d="M59 633q0 260 55.5 442t150.5 297t224 166t277 51q23 0 39 -16.5t16 -38.5v-260q0 -23 -16.5 -38t-38.5 -17q-84 -8 -137.5 -59.5t-84 -131.5t-41.5 -182.5t-11 -212.5q0 -111 11 -213.5t41.5 -183t84 -132t137.5 -59.5q23 -2 39 -17.5t16 -37.5v-260q0 -23 -16.5 -39.5 t-38.5 -16.5q-147 0 -276.5 52.5t-224.5 166t-150.5 296t-55.5 444.5z" />
<glyph unicode=")" horiz-adv-x="866" d="M45 -10q0 23 16.5 38t38.5 17q82 8 135.5 59.5t84 132t43 183t12.5 213.5t-12.5 213t-43 182t-84 131t-135.5 60q-23 2 -39 17t-16 38v260q0 23 16.5 39t38.5 16q147 0 276.5 -51t224.5 -166t150.5 -297t55.5 -442q0 -262 -55.5 -444.5t-150.5 -296t-224 -166t-277 -52.5 q-23 0 -39 16.5t-16 39.5v260z" />
<glyph unicode="*" horiz-adv-x="909" d="M59 1120l78 234q4 16 21.5 24t34.5 4q4 0 16 -6l121 -84l-41 142q-2 8 -2 16q0 16 13 30.5t32 14.5h246q18 0 31.5 -14.5t13.5 -30.5q0 -8 -2 -16l-43 -142l122 84q12 6 17 6q16 4 33.5 -4t21.5 -24l78 -234q4 -18 -5 -35.5t-26 -21.5q2 0 -14 -4l-150 -4l119 -90 q10 -10 10 -13q10 -14 8.5 -32.5t-18.5 -28.5l-196 -148q-16 -10 -35 -7t-29 20l-10 12l-49 141l-49 -141l-11 -12q-10 -16 -28.5 -19.5t-34.5 6.5l-197 148q-16 10 -18 28.5t8 32.5q0 2 10 13l119 90l-150 4q-16 4 -14 4q-16 4 -25.5 21.5t-5.5 35.5z" />
<glyph unicode="+" horiz-adv-x="1216" d="M57 508v223q0 23 16.5 39t39.5 16h317v320q0 23 16.5 39t38.5 16h250q23 0 39.5 -16.5t16.5 -38.5v-320h313q23 0 39 -16t16 -39v-223q0 -23 -16.5 -39t-38.5 -16h-313v-330q0 -23 -16.5 -39t-39.5 -16h-250q-23 0 -39 16t-16 39v330h-317q-23 0 -39.5 16t-16.5 39z" />
<glyph unicode="," horiz-adv-x="620" d="M37 -104l76 491q4 29 25.5 54.5t62.5 25.5h327q18 0 31.5 -13.5t13.5 -31.5q0 -8 -2 -14l-194 -496q-8 -20 -27.5 -43t-60.5 -23h-207q-18 0 -31.5 13.5t-13.5 31.5v5z" />
<glyph unicode="-" horiz-adv-x="964" d="M94 469v291q0 23 16.5 39t39.5 16h665q23 0 39 -16.5t16 -38.5v-291q0 -23 -16 -39t-39 -16h-665q-23 0 -39.5 16t-16.5 39z" />
<glyph unicode="." horiz-adv-x="638" d="M86 55v357q0 23 16.5 39t38.5 16h357q23 0 39 -16.5t16 -38.5v-357q0 -23 -16.5 -39t-38.5 -16h-357q-23 0 -39 16.5t-16 38.5z" />
<glyph unicode="/" horiz-adv-x="1185" d="M43 -127q0 8 4 18l686 1657q10 23 30.5 42.5t59.5 19.5h275q18 0 31.5 -13.5t13.5 -31.5q0 -8 -4 -19l-693 -1657q-8 -20 -28.5 -40.5t-61.5 -20.5h-268q-18 0 -31.5 13.5t-13.5 31.5z" />
<glyph unicode="0" horiz-adv-x="1470" d="M84 718.5q0 59.5 1 118t5 101.5q8 113 54 207t128 162.5t198 107.5t263 39t263 -39t198 -107.5t128 -162.5t54 -207q2 -43 4 -101.5t2 -118t-2 -116.5t-4 -98q-8 -113 -52 -209t-124 -166t-196.5 -109.5t-270.5 -39.5t-270.5 39.5t-196.5 109.5t-124 166t-52 209 q-4 41 -5 98t-1 116.5zM618 721q0 -55 1.5 -109.5t3.5 -97.5q4 -57 27.5 -95t82.5 -38t83 38t28 95q2 43 3 97.5t1 109.5t-1 108.5t-3 96.5q-4 53 -26.5 92t-84.5 41q-61 -2 -83.5 -41t-26.5 -92q-2 -43 -3.5 -96.5t-1.5 -108.5z" />
<glyph unicode="1" horiz-adv-x="1140" d="M21 1000q4 24 24 36l494 383q20 14 45 15h387q23 0 39 -16.5t16 -39.5v-1323q0 -23 -16.5 -39t-38.5 -16h-402q-23 0 -39 16.5t-16 38.5v828l-229 -176q-20 -16 -41 -10.5t-37 26.5l-180 233q-10 20 -6 44z" />
<glyph unicode="2" horiz-adv-x="1441" d="M72 55v213q0 12 6 47t45 64q166 119 292 210t210 161.5t127 125t43 101.5q0 14 -1 28.5t-8.5 26.5t-22.5 19.5t-42 7.5q-31 0 -51.5 -11.5t-32.5 -29t-18.5 -34.5t-10.5 -30q-10 -29 -31.5 -38t-50.5 -9h-385q-18 0 -31.5 13.5t-13.5 31.5q2 117 50.5 211t131 161 t195.5 102.5t246 35.5q139 0 252.5 -30.5t193.5 -89t123 -144.5t43 -194q0 -86 -32.5 -162t-93 -145.5t-144.5 -137t-187 -137.5h433q23 0 39 -16.5t16 -38.5v-312q0 -23 -16.5 -39t-38.5 -16h-1180q-23 0 -39 16.5t-16 38.5z" />
<glyph unicode="3" horiz-adv-x="1452" d="M47 406q0 18 13.5 31.5t31.5 13.5h412q29 0 42 -9.5t27 -23.5q16 -16 46 -28.5t96 -12.5q72 0 103.5 31.5t31.5 76.5q0 90 -135 90h-256q-23 0 -39.5 16.5t-16.5 39.5v166q0 31 12.5 51t28.5 31l285 155h-539q-23 0 -39 16.5t-16 39.5v288q0 23 16.5 39.5t38.5 16.5h1049 q23 0 39 -16.5t16 -39.5v-260q0 -29 -12 -50t-29 -32l-239 -164q76 -18 143.5 -51t117.5 -83t78.5 -121.5t28.5 -167.5q0 -106 -50 -193.5t-139 -149t-212 -94t-268 -32.5q-184 0 -311.5 44t-205 108.5t-112.5 138t-37 135.5z" />
<glyph unicode="4" horiz-adv-x="1505" d="M53 285v293q0 27 8.5 41t14.5 22l579 758q29 35 76 35h426q23 0 39 -16.5t16 -39.5v-733h179q27 0 42 -16.5t15 -38.5v-305q0 -23 -16.5 -39.5t-38.5 -16.5h-181v-174q0 -23 -16 -39t-39 -16h-381q-23 0 -39 16.5t-16 38.5v174h-612q-23 0 -39.5 16.5t-16.5 39.5z M520 623h215v295z" />
<glyph unicode="5" horiz-adv-x="1413" d="M47 434q0 18 13.5 31.5t31.5 13.5h414q33 0 50.5 -12.5t23.5 -20.5q29 -35 52 -53t75 -18q49 0 86.5 31.5t37.5 95.5q0 47 -32.5 86t-91.5 39q-33 0 -52.5 -8.5t-33 -17.5t-23.5 -16t-23 -7h-407q-18 0 -31.5 13t-13.5 32q0 4 -1 -1.5t1 11.5l82 731q4 35 27.5 52.5 t52.5 17.5h915q23 0 39 -16.5t16 -39.5v-288q0 -23 -16 -39.5t-39 -16.5h-598l-16 -145q29 18 56.5 31.5t59 21.5t69.5 12t89 4q94 0 184.5 -34.5t160 -98t112.5 -149.5t43 -189q0 -102 -41 -194t-124 -163t-206 -113t-284 -42q-164 0 -286 37t-204 100.5t-124 146.5 t-44 175z" />
<glyph unicode="6" horiz-adv-x="1417" d="M41 510q0 66 23.5 134.5t55.5 129t65.5 108.5t54.5 74l333 437q8 10 26.5 25.5t53.5 15.5h412q18 0 31.5 -13.5t13.5 -31.5q0 -14 -8 -27l-258 -342q74 -4 166 -37t173 -94.5t136 -153.5t55 -215q0 -117 -48 -215t-136 -171t-209 -113.5t-264 -40.5q-145 0 -268 35.5 t-214.5 103t-142.5 166t-51 225.5zM569 512q0 -66 41 -99.5t101 -33.5q59 0 100 33.5t41 99.5t-41 99.5t-100 33.5t-100.5 -33.5t-41.5 -99.5z" />
<glyph unicode="7" horiz-adv-x="1280" d="M57 1069v309q0 23 16.5 39.5t39.5 16.5h1058q25 0 40.5 -16.5t15.5 -39.5v-270q0 -35 -8.5 -59.5t-18.5 -44.5l-446 -957q-6 -10 -25.5 -28.5t-58.5 -18.5h-396q-18 0 -31.5 13.5t-13.5 31.5q0 10 4 18l443 951h-563q-23 0 -39.5 16.5t-16.5 38.5z" />
<glyph unicode="8" horiz-adv-x="1458" d="M74 446q0 102 50 184.5t128 127.5q-127 92 -127 266q0 82 30.5 159t101.5 137t186.5 97t283.5 37q166 0 280.5 -36t184.5 -95t100.5 -136t30.5 -159q0 -86 -28.5 -153.5t-92.5 -116.5q84 -41 133 -126t49 -190q0 -86 -35.5 -170t-113.5 -148.5t-204 -104t-304 -39.5 q-180 0 -304 39.5t-202 105t-112.5 149.5t-34.5 172zM584 444q0 -57 41 -88.5t102 -31.5t102 31.5t41 88.5t-41 89t-102 32t-102 -31.5t-41 -89.5zM598 997q0 -47 34 -78.5t95 -31.5t96 31.5t35 78.5t-35 79t-96 32t-95 -32t-34 -79z" />
<glyph unicode="9" horiz-adv-x="1398" d="M43 920q0 104 41 200.5t123 171t202.5 118.5t280.5 44t284 -38t209 -105.5t129 -161.5t44 -209q0 -76 -24.5 -144.5t-62.5 -133t-86 -129t-98 -132.5l-270 -360q-8 -10 -26.5 -25.5t-53.5 -15.5h-411q-18 0 -31.5 13.5t-13.5 31.5q0 14 8 27l268 358q-74 6 -164 37 t-167 91t-129 149.5t-52 212.5zM565 922q0 -66 36 -100t95 -34t95 34t36 100t-35.5 99.5t-95.5 33.5q-59 0 -95 -33.5t-36 -99.5z" />
<glyph unicode=":" horiz-adv-x="659" d="M96 55v336q0 23 16.5 39t39.5 16h356q23 0 39 -16t16 -39v-336q0 -23 -16.5 -39t-38.5 -16h-356q-23 0 -39.5 16.5t-16.5 38.5zM96 772v336q0 23 16.5 39t39.5 16h356q23 0 39 -16.5t16 -38.5v-336q0 -23 -16.5 -39t-38.5 -16h-356q-23 0 -39.5 16.5t-16.5 38.5z" />
<glyph unicode=";" horiz-adv-x="665" d="M39 -104l76 491q4 29 25.5 54.5t62.5 25.5h327q18 0 31.5 -13.5t13.5 -31.5q0 -8 -2 -14l-194 -496q-8 -20 -27.5 -43t-60.5 -23h-207q-18 0 -31.5 13.5t-13.5 31.5v5zM125 772v336q0 23 16.5 39t38.5 16h357q23 0 39 -16.5t16 -38.5v-336q0 -23 -16.5 -39t-38.5 -16 h-357q-23 0 -39 16.5t-16 38.5z" />
<glyph unicode="&#x3c;" horiz-adv-x="1101" d="M49 674v86q0 33 15.5 50t44.5 36l819 553q8 4 13 5t9 1q18 0 30.5 -12.5t12.5 -30.5v-332q0 -41 -23.5 -60.5t-41.5 -29.5l-359 -223l359 -225q18 -10 41.5 -29t23.5 -60v-331q0 -18 -12 -30.5t-31 -12.5q-4 0 -9 1t-13 5l-819 553q-29 18 -44.5 35.5t-15.5 50.5z" />
<glyph unicode="=" horiz-adv-x="1153" d="M106 240v237q0 23 16.5 39t39.5 16h829q23 0 39.5 -16t16.5 -39v-237q0 -23 -16.5 -39.5t-39.5 -16.5h-829q-23 0 -39.5 16.5t-16.5 39.5zM106 752v237q0 23 16.5 39t39.5 16h829q23 0 39.5 -16t16.5 -39v-237q0 -23 -16.5 -39.5t-39.5 -16.5h-829q-23 0 -39.5 16.5 t-16.5 39.5z" />
<glyph unicode="&#x3e;" horiz-adv-x="1101" d="M109 72v331q0 41 23.5 59.5t41.5 29.5l358 225l-358 223q-18 10 -41.5 29.5t-23.5 60.5v332q0 18 12 30.5t31 12.5q4 0 9 -1t13 -5l819 -553q29 -18 44.5 -35.5t15.5 -50.5v-86q0 -33 -15.5 -50.5t-44.5 -35.5l-819 -553q-8 -4 -13 -5t-9 -1q-18 0 -30.5 12t-12.5 31z " />
<glyph unicode="?" horiz-adv-x="1337" d="M49 989v2q2 78 42 160t121 149.5t205 110.5t294 43q178 0 289.5 -41t175 -101.5t87 -126t23.5 -114.5q0 -88 -34.5 -157.5t-84 -127t-102.5 -107.5t-90 -101q-23 -31 -35 -45.5t-39 -14.5h-438q-16 0 -27.5 11.5t-11.5 25.5q0 10 2 16q23 72 75 132.5t106.5 111.5t95 94 t40.5 80q0 31 -19 48.5t-50 17.5q-55 0 -77 -19.5t-35 -44t-27.5 -44t-53.5 -19.5h-381q-25 0 -38 19.5t-13 41.5zM428 55v326q0 23 16.5 39t38.5 16h375q23 0 39 -16.5t16 -38.5v-326q0 -23 -16 -39t-39 -16h-375q-23 0 -39 16.5t-16 38.5z" />
<glyph unicode="@" horiz-adv-x="1753" d="M80 556q0 52 1 99t3 74q10 119 61.5 240t147.5 216t238.5 155.5t336.5 60.5q233 0 386 -54.5t246 -146.5t135 -214t55 -257q4 -53 4 -124t-4 -126q-4 -78 -37 -137t-81 -99t-107.5 -60.5t-116.5 -20.5q-104 0 -173 29.5t-98 64.5q-10 -18 -26.5 -38.5t-47 -37t-77.5 -28 t-119 -11.5q-78 0 -137.5 30t-101.5 85t-63.5 132t-21.5 171t20.5 171t60.5 132.5t98.5 86t134.5 30.5q78 0 123 -22.5t79 -67.5v18q0 23 16.5 39.5t39.5 16.5h147q23 0 39 -16.5t16 -39.5v-395q0 -102 91 -102q47 0 67.5 26.5t20.5 73.5q0 55 1 105.5t-3 103.5 q-6 113 -36 195.5t-95.5 135t-171 78t-263.5 25.5q-133 0 -228 -34t-157.5 -92t-96.5 -137t-44 -171q-4 -27 -5 -71t-1 -92t1 -93t5 -74q10 -100 47 -180t105.5 -135.5t171 -85t243.5 -29.5q84 0 142.5 4t101.5 15.5t75 28t64 40.5q23 16 36 23.5t36 7.5h201q23 0 40 -15.5 t15 -42.5q0 -10 -4 -16t-10 -14q-45 -55 -108.5 -105.5t-149.5 -88.5t-195 -61.5t-244 -23.5q-209 0 -359.5 53.5t-249.5 143.5t-151.5 212t-64.5 259q-2 29 -3 77t-1 100zM739 559q0 -100 37 -135t92 -35q59 0 95 34t36 136q0 100 -35.5 136t-95.5 36q-55 0 -92 -36 t-37 -136z" />
<glyph unicode="A" horiz-adv-x="1546" d="M0 45q0 8 2 14l457 1307q6 23 28.5 45.5t63.5 22.5h444q41 0 63.5 -22.5t28.5 -45.5l457 -1307q2 -6 2 -14q0 -18 -13 -31.5t-32 -13.5h-379q-41 0 -57 17.5t-23 33.5l-49 135h-440l-49 -135q-6 -16 -22.5 -33.5t-57.5 -17.5h-379q-18 0 -31.5 13.5t-13.5 31.5zM657 586 h232l-117 381z" />
<glyph unicode="B" horiz-adv-x="1503" d="M113 55v1323q0 23 16 39.5t39 16.5h680q295 0 431 -106.5t136 -323.5q0 -49 -16.5 -91.5t-41 -74t-53 -55t-53.5 -35.5q39 -16 75 -46t62.5 -69t42 -85t15.5 -97q0 -231 -148.5 -341t-429.5 -110h-700q-23 0 -39 16.5t-16 38.5zM625 352h190q51 0 72.5 33t21.5 68 q0 37 -23.5 68.5t-70.5 31.5h-190v-201zM625 895h172q45 0 64.5 29.5t19.5 62.5t-19.5 63.5t-64.5 30.5h-172v-186z" />
<glyph unicode="C" horiz-adv-x="1501" d="M72 715q0 96 4 184q6 143 60 247.5t145.5 173.5t214 101.5t266.5 32.5q131 0 254 -29.5t219 -93t155.5 -163t61.5 -238.5q0 -18 -13.5 -31.5t-31.5 -13.5h-418q-35 0 -49 12t-27 47q-23 66 -61.5 88.5t-91.5 22.5q-68 0 -108 -36t-44 -130q-3 -85 -3 -171t3 -173 q4 -94 44 -130t108 -36q53 0 93 24.5t60 85.5q10 35 25.5 47.5t50.5 12.5h418q18 0 31.5 -13.5t13.5 -31.5q-2 -139 -61.5 -238.5t-155.5 -163t-219 -93t-254 -29.5q-147 0 -270 31.5t-214.5 99t-143.5 172t-58 252.5q-4 84 -4 180z" />
<glyph unicode="D" horiz-adv-x="1515" d="M113 55v1323q0 23 16 39.5t39 16.5h590q143 0 266 -37t214 -107.5t144.5 -176t59.5 -243.5q2 -43 2 -80.5v-73.5v-73t-2 -78q-6 -145 -57.5 -251.5t-139.5 -176t-209 -103.5t-268 -34h-600q-23 0 -39 16.5t-16 38.5zM625 399h133q68 0 114 40t50 126q2 43 3 81t1 74 t-1 71.5t-3 78.5q-4 86 -54.5 125t-119.5 39h-123v-635z" />
<glyph unicode="E" horiz-adv-x="1366" d="M113 55v1323q0 23 16 39.5t39 16.5h1051q23 0 39 -16.5t16 -39.5v-288q0 -23 -16.5 -39.5t-38.5 -16.5h-615v-129h570q23 0 39 -16.5t16 -38.5v-266q0 -23 -16.5 -39.5t-38.5 -16.5h-570v-129h631q23 0 39 -16t16 -39v-289q0 -23 -16.5 -39t-38.5 -16h-1067 q-23 0 -39 16.5t-16 38.5z" />
<glyph unicode="F" horiz-adv-x="1323" d="M113 55v1323q0 23 16 39.5t39 16.5h1032q23 0 39 -16.5t16 -39.5v-311q0 -23 -16 -39t-39 -16h-586v-152h545q23 0 39 -16.5t16 -38.5v-309q0 -23 -16 -39.5t-39 -16.5h-545v-385q0 -23 -16 -39t-39 -16h-391q-23 0 -39 16.5t-16 38.5z" />
<glyph unicode="G" horiz-adv-x="1542" d="M72 725q0 98 4 186q6 135 57 237.5t141.5 170t215 101.5t276.5 34q162 0 292 -37t220 -99.5t140 -145t52 -175.5q0 -18 -13 -31.5t-32 -13.5h-452q-41 0 -60 23q-6 8 -15 21.5t-26.5 26.5t-43 22.5t-62.5 9.5q-152 0 -158 -154q-3 -85 -3 -172t3 -176q4 -92 47 -133 t119 -41q78 0 126 33.5t48 113.5h-96q-23 0 -39 16.5t-16 39.5v227q0 23 16 39t39 16h563q23 0 39 -16.5t16 -38.5v-266q0 -139 -52 -243.5t-145 -176.5t-222 -107.5t-285 -35.5t-281 34.5t-214 104t-139 175t-56 249.5q-4 84 -4 182z" />
<glyph unicode="H" horiz-adv-x="1581" d="M113 55v1323q0 23 16 39.5t39 16.5h401q23 0 39.5 -16.5t16.5 -39.5v-430h331v430q0 23 16.5 39.5t39.5 16.5h401q23 0 39 -16.5t16 -39.5v-1323q0 -23 -16 -39t-39 -16h-401q-23 0 -39.5 16.5t-16.5 38.5v443h-331v-443q0 -23 -16.5 -39t-39.5 -16h-401q-23 0 -39 15.5 t-16 39.5z" />
<glyph unicode="I" horiz-adv-x="753" d="M113 55v1323q0 23 16 39.5t39 16.5h418q23 0 39 -16.5t16 -39.5v-1323q0 -23 -16.5 -39t-38.5 -16h-418q-23 0 -39 16.5t-16 38.5z" />
<glyph unicode="J" horiz-adv-x="1437" d="M20 481q0 18 13.5 31.5t32.5 13.5h417q35 0 51.5 -15t32.5 -50q20 -41 44 -61.5t75 -20.5q55 0 88 36t33 130v473h-608q-23 0 -39.5 16.5t-16.5 38.5v305q0 23 16.5 39.5t39.5 16.5h1083q23 0 39 -16.5t16 -39.5v-850q0 -141 -52 -244.5t-142 -171t-212 -100t-261 -32.5 q-127 0 -244 32.5t-206 97t-143 157.5t-57 214z" />
<glyph unicode="K" horiz-adv-x="1464" d="M113 55v1323q0 23 16 39.5t39 16.5h391q23 0 39 -16.5t16 -39.5v-405l232 416q10 16 28.5 30.5t53.5 14.5h452q18 0 31.5 -13.5t13.5 -31.5q0 -14 -6 -23l-368 -618l403 -680q6 -10 6 -23q0 -18 -13 -31.5t-32 -13.5h-467q-41 0 -60.5 18.5t-23.5 28.5l-250 447v-439 q0 -23 -16 -39t-39 -16h-391q-23 0 -39 16.5t-16 38.5z" />
<glyph unicode="L" horiz-adv-x="1282" d="M113 55v1323q0 23 16 39.5t39 16.5h410q23 0 39 -16.5t16 -39.5v-958h567q23 0 39 -16.5t16 -38.5v-310q0 -23 -16 -39t-39 -16h-1032q-23 0 -39 16.5t-16 38.5z" />
<glyph unicode="M" horiz-adv-x="1753" d="M113 55v1323q0 23 16 39.5t39 16.5h324q41 0 61 -22.5t27 -33.5l297 -491l297 491q6 10 26.5 33t61.5 23h323q23 0 39 -16.5t16 -39.5v-1323q0 -23 -16 -39t-39 -16h-371q-23 0 -39 16.5t-16 38.5v561l-135 -221q-10 -16 -27.5 -33.5t-48.5 -17.5h-143q-31 0 -48.5 17.5 t-27.5 33.5l-135 221v-561q0 -23 -16.5 -39t-38.5 -16h-371q-23 0 -39 16.5t-16 38.5z" />
<glyph unicode="N" horiz-adv-x="1515" d="M113 55v1323q0 23 16 39.5t39 16.5h324q41 0 59 -18.5t24 -29.5l347 -567v559q0 23 16 39.5t39 16.5h371q23 0 39 -16.5t16 -39.5v-1323q0 -23 -16.5 -39t-38.5 -16h-324q-41 0 -59.5 18.5t-24.5 28.5l-346 522v-514q0 -23 -16.5 -39t-38.5 -16h-371q-23 0 -39 16.5 t-16 38.5z" />
<glyph unicode="O" horiz-adv-x="1519" d="M72 710.5q0 94.5 4 182.5q6 135 57 239.5t140 176t212 108.5t275 37q150 0 273.5 -37t212.5 -108.5t140.5 -176t57.5 -239.5q4 -88 4 -182.5t-4 -178.5q-6 -137 -57.5 -240.5t-140.5 -173t-213 -104t-273 -34.5q-152 0 -275 34.5t-212 104t-140 173t-57 240.5 q-4 84 -4 178.5zM608 545q4 -86 44 -126t108 -40t107.5 40t43.5 126q3 87 3 173t-3 171q-4 86 -45 126t-106 40q-66 0 -107 -40t-45 -126q-3 -85 -3 -171t3 -173z" />
<glyph unicode="P" horiz-adv-x="1443" d="M113 55v1323q0 23 16 39.5t39 16.5h620q139 0 253 -31t195 -93.5t125 -156.5t44 -221t-44 -219t-125 -151.5t-194.5 -87.5t-253.5 -28h-143v-391q0 -23 -16.5 -39t-38.5 -16h-422q-23 0 -39 16.5t-16 38.5zM635 825h143q33 0 63.5 26t30.5 85q0 39 -19 78t-75 39h-143 v-228z" />
<glyph unicode="Q" horiz-adv-x="1519" d="M70 710.5q0 94.5 4 182.5q6 135 57 239.5t140 176t212 108.5t275 37q150 0 273.5 -37t212.5 -108.5t140.5 -176t57.5 -239.5q4 -88 4 -182.5t-4 -178.5q-12 -231 -148 -370l162 -232q2 -4 4 -9t2 -9q4 -18 -9 -31.5t-32 -13.5h-401q-39 0 -57.5 17.5t-28.5 29.5l-57 72 q-55 -6 -119 -6q-152 0 -275 34.5t-212 104t-140 173t-57 240.5q-4 84 -4 178.5zM606 545q4 -86 44 -126t108 -40t107.5 40t43.5 126q3 87 3 173t-3 171q-4 86 -45 126t-106 40q-66 0 -107 -40t-45 -126q-3 -85 -3 -171t3 -173z" />
<glyph unicode="R" horiz-adv-x="1478" d="M113 55v1323q0 23 16 39.5t39 16.5h606q147 0 264 -34t197 -98.5t123 -156.5t43 -209q0 -139 -61.5 -239.5t-159.5 -161.5l252 -467q6 -12 6 -23q0 -18 -13.5 -31.5t-31.5 -13.5h-420q-41 0 -61.5 20.5t-26.5 34.5l-176 391h-84v-391q0 -23 -16.5 -39t-39.5 -16h-401 q-23 0 -39 16.5t-16 38.5zM625 836h149q47 0 70.5 31.5t23.5 72.5t-21.5 77t-72.5 36h-149v-217z" />
<glyph unicode="S" horiz-adv-x="1427" d="M37 416q0 18 13 31.5t32 13.5h389q33 0 49.5 -9.5t38.5 -25.5q29 -23 64.5 -35t87.5 -12q70 0 111.5 14.5t41.5 42.5q0 37 -56 56.5t-208 39.5q-121 16 -219 50t-167 89.5t-105.5 132.5t-36.5 179q0 104 45 191.5t127 148.5t197.5 96t254.5 35q154 0 272.5 -41 t200.5 -104.5t125 -137t45 -141.5q0 -18 -13 -31.5t-30 -13.5h-409q-29 0 -46.5 8t-35.5 25q-10 10 -38 23.5t-71 13.5q-53 0 -75.5 -15.5t-22.5 -42.5q0 -14 9 -26.5t35 -23.5t70 -20t113 -18q154 -18 261.5 -53t175 -89t98.5 -129t31 -175q0 -113 -52.5 -202 t-143.5 -151.5t-215 -96t-269 -33.5q-170 0 -296 35.5t-209 96t-125 139.5t-44 165z" />
<glyph unicode="T" d="M35 1049v329q0 23 16.5 39.5t38.5 16.5h1200q23 0 39.5 -16.5t16.5 -39.5v-329q0 -23 -16.5 -39.5t-39.5 -16.5h-340v-938q0 -23 -16 -39t-39 -16h-410q-23 0 -39 16.5t-16 38.5v938h-340q-23 0 -39 16.5t-16 39.5z" />
<glyph unicode="U" horiz-adv-x="1527" d="M100 541v837q0 23 16.5 39.5t39.5 16.5h401q23 0 39 -16.5t16 -39.5v-829q0 -158 152 -158t151 158v829q0 23 16.5 39.5t39.5 16.5h401q23 0 39 -16.5t16 -39.5v-837q0 -145 -49 -251t-136 -175.5t-209 -102t-267 -32.5q-147 0 -270 32.5t-210 102t-136.5 175 t-49.5 251.5z" />
<glyph unicode="V" horiz-adv-x="1486" d="M31 1389q0 18 13 31.5t32 13.5h381q41 0 63.5 -22.5t28.5 -45.5l194 -762l195 762q6 23 28.5 45.5t63.5 22.5h381q18 0 31.5 -13.5t13.5 -31.5q0 -6 -2 -15l-385 -1306q-6 -23 -28.5 -45.5t-63.5 -22.5h-467q-41 0 -63.5 22.5t-28.5 45.5l-385 1306q-2 8 -2 15z" />
<glyph unicode="W" horiz-adv-x="1753" d="M49 1382v7q0 18 13.5 31.5t31.5 13.5h381q35 0 52.5 -12.5t21.5 -43.5l69 -577l84 256q4 14 18.5 36.5t51.5 22.5h209q37 0 51.5 -22.5t18.5 -36.5l84 -254l69 575q4 31 21.5 43.5t52.5 12.5h381q18 0 31.5 -13.5t13.5 -31.5v-7l-188 -1304q-4 -29 -29 -53.5t-66 -24.5 h-293q-41 0 -60 21.5t-24 33.5l-167 420l-168 -420q-4 -12 -23.5 -33.5t-60.5 -21.5h-293q-41 0 -65.5 24.5t-28.5 53.5z" />
<glyph unicode="X" horiz-adv-x="1513" d="M0 45q0 4 1 9t5 14l430 665l-387 633q-6 12 -6 23q0 18 13.5 31.5t31.5 13.5h444q41 0 60.5 -20.5t25.5 -31.5l144 -249l156 249q6 10 25.5 31t60.5 21h423q18 0 32 -13.5t14 -31.5q0 -8 -1.5 -11.5t-5.5 -11.5l-395 -627l436 -671q4 -8 5 -13.5t1 -9.5q0 -18 -13 -31.5 t-32 -13.5h-460q-41 0 -60.5 19.5t-23.5 27.5l-179 275l-170 -275q-4 -8 -23.5 -27.5t-59.5 -19.5h-447q-18 0 -31.5 13.5t-13.5 31.5z" />
<glyph unicode="Y" horiz-adv-x="1454" d="M6 1389q0 18 13.5 31.5t31.5 13.5h385q41 0 61.5 -20.5t24.5 -31.5l205 -411l205 411q4 10 24.5 31t61.5 21h385q18 0 31.5 -13.5t13.5 -31.5q0 -10 -4 -19l-461 -911v-404q0 -23 -16.5 -39t-38.5 -16h-402q-23 0 -39 16.5t-16 38.5v404l-461 911q-4 8 -4 19z" />
<glyph unicode="Z" horiz-adv-x="1419" d="M72 55v295q0 29 11 46.5t19 25.5l574 596h-529q-23 0 -39 16.5t-16 38.5v305q0 23 16.5 39.5t38.5 16.5h1123q23 0 39 -16.5t16 -39.5v-291q0 -41 -27 -67l-542 -600h540q23 0 39.5 -16.5t16.5 -38.5v-310q0 -23 -16.5 -39t-39.5 -16h-1169q-23 0 -39 16.5t-16 38.5z" />
<glyph unicode="[" horiz-adv-x="884" d="M104 -270v1804q0 23 16.5 39t39.5 16h620q23 0 39.5 -16.5t16.5 -38.5v-264q0 -23 -16.5 -39.5t-39.5 -16.5h-243v-1128h243q23 0 39.5 -16.5t16.5 -38.5v-301q0 -23 -16.5 -39.5t-39.5 -16.5h-620q-23 0 -39.5 16.5t-16.5 39.5z" />
<glyph unicode="\" horiz-adv-x="1183" d="M41 1565q0 18 13.5 31.5t31.5 13.5h274q39 0 59.5 -19.5t31.5 -42.5l686 -1657q4 -10 4 -18q0 -18 -13.5 -31.5t-31.5 -13.5h-269q-41 0 -61.5 20.5t-28.5 40.5l-692 1657q-4 10 -4 19z" />
<glyph unicode="]" horiz-adv-x="884" d="M49 31q0 23 16.5 39t38.5 16h244v1128h-244q-23 0 -39 16.5t-16 39.5v264q0 23 16.5 39t38.5 16h621q23 0 39 -16.5t16 -38.5v-1804q0 -23 -16 -39.5t-39 -16.5h-621q-23 0 -39 16.5t-16 39.5v301z" />
<glyph unicode="^" horiz-adv-x="1007" d="M66 1251q0 16 10 27l229 250q20 23 36.5 31t39.5 8h246q23 0 39 -8.5t36 -30.5l230 -250q10 -10 10 -27q0 -33 -33 -32h-135q-20 0 -39.5 2t-42.5 12l-188 86l-189 -86q-23 -10 -42 -12t-40 -2h-135q-33 0 -32 32z" />
<glyph unicode="_" horiz-adv-x="1484" d="M68 -145v290q0 23 16 39.5t39 16.5h1239q23 0 39 -16.5t16 -39.5v-290q0 -23 -16.5 -39.5t-38.5 -16.5h-1239q-23 0 -39 16.5t-16 39.5z" />
<glyph unicode="`" horiz-adv-x="921" d="M109 1526q0 41 38 41h381q23 0 38.5 -6.5t37.5 -32.5l205 -250q10 -10 10 -27q0 -33 -33 -32h-280q-33 0 -51.5 10t-34.5 24l-301 248q-10 10 -10 25z" />
<glyph unicode="a" horiz-adv-x="1273" d="M35 305q0 74 31.5 132.5t90 101.5t141.5 72.5t185 47.5l217 35q0 55 -9 80t-52 25q-27 0 -43 -10.5t-29.5 -22.5t-29 -22.5t-39.5 -10.5h-348q-20 0 -34 12.5t-12 32.5q2 39 33 92.5t95.5 100.5t166 80.5t244.5 33.5q281 0 415 -115.5t134 -326.5v-588q0 -23 -16.5 -39 t-38.5 -16h-359q-23 0 -39 16.5t-16 38.5v58q-45 -61 -120 -97t-171 -36q-88 0 -161.5 24.5t-126 68.5t-81 103t-28.5 129zM496 340q0 -23 19 -40t58 -17q59 0 96.5 37.5t37.5 121.5l-121 -26q-53 -12 -71.5 -33t-18.5 -43z" />
<glyph unicode="b" horiz-adv-x="1353" d="M92 55v1344q0 23 16.5 39t38.5 16h379q23 0 39.5 -16.5t16.5 -38.5v-410q49 45 117.5 70.5t154.5 25.5q88 0 166 -28.5t136 -87t93 -146.5t39 -209q2 -47 2 -80.5t-2 -80.5q-6 -129 -41 -218.5t-92 -146.5t-135 -82.5t-166 -25.5q-106 0 -180 33.5t-123 88.5v-47 q0 -23 -16.5 -39t-38.5 -16h-349q-23 0 -39 16.5t-16 38.5zM578 540.5q0 -28.5 4 -75.5q4 -55 24.5 -87t77.5 -32t76.5 32t25.5 87q4 31 4 67.5t-4 67.5q-6 55 -25.5 87t-76.5 32q-53 0 -75.5 -26.5t-26.5 -76.5q-4 -47 -4 -75.5z" />
<glyph unicode="c" horiz-adv-x="1273" d="M59 531q0 49 2 83q6 113 52.5 201t123 148.5t179 91t219.5 30.5q162 0 275.5 -47t184 -111.5t104.5 -131t36 -107.5q2 -23 -15.5 -39t-39.5 -16h-400q-23 0 -36 11t-23 30q-14 29 -29.5 45t-46.5 16q-47 0 -63.5 -35t-18.5 -96q-1 -44 -1 -80t1 -65q4 -66 19.5 -97.5 t62.5 -31.5q37 0 50.5 16t25.5 45q16 41 59 41h400q23 0 40 -16.5t15 -38.5q-2 -23 -15.5 -60.5t-42 -82t-74.5 -89.5t-112.5 -81.5t-154.5 -60t-201 -23.5q-117 0 -219.5 30.5t-179 90t-122.5 146.5t-53 202q-2 33 -2 82z" />
<glyph unicode="d" horiz-adv-x="1353" d="M64 534q0 5 -1 9q0 30 3 71q4 121 38.5 209t93 146.5t135.5 87t167 28.5q86 0 154.5 -25.5t117.5 -70.5v410q0 23 16.5 39t38.5 16h379q23 0 39.5 -16.5t16.5 -38.5v-1344q0 -23 -16.5 -39t-39.5 -16h-348q-23 0 -39 16.5t-16 38.5v47q-49 -55 -123 -88.5t-180 -33.5 q-90 0 -167 25.5t-134.5 82.5t-92 146.5t-40.5 218.5q-2 47 -2 81zM563 532.5q0 -36.5 4 -67.5q6 -55 25.5 -87t77.5 -32q57 0 77.5 32t24.5 87q4 47 4 75.5t-4 75.5q-4 49 -26.5 76t-75.5 27q-57 0 -77 -32t-26 -87q-4 -31 -4 -67.5z" />
<glyph unicode="e" horiz-adv-x="1275" d="M57 530q0 135 41 238.5t118 174.5t184.5 106.5t240.5 35.5q150 0 260.5 -45t182 -120.5t106.5 -177t35 -214.5v-61q0 -23 -16.5 -39t-39.5 -16h-610v-11q0 -61 17.5 -93t62.5 -32q18 0 30.5 10.5t28.5 26.5q18 18 30.5 23.5t37.5 5.5h387q20 0 33.5 -12.5t11.5 -32.5 q-2 -39 -36 -93t-101.5 -104.5t-172 -85t-245.5 -34.5q-135 0 -242.5 31.5t-184.5 99t-118 172t-41 247.5zM559 668h164q0 70 -20.5 100.5t-61.5 30.5t-61.5 -31t-20.5 -100z" />
<glyph unicode="f" horiz-adv-x="1007" d="M31 762v248q0 23 16 39t39 16h141v35q0 125 41 205.5t114 128t170 65t208 17.5h190q23 0 39.5 -16.5t16.5 -39.5v-248q0 -23 -16.5 -39t-39.5 -16h-166q-88 0 -88 -67v-25h234q23 0 39 -16.5t16 -38.5v-248q0 -23 -16.5 -39t-38.5 -16h-234v-652q0 -23 -16 -39t-39 -16 h-358q-23 0 -39.5 16.5t-16.5 38.5v652h-141q-23 0 -39 16t-16 39z" />
<glyph unicode="g" horiz-adv-x="1363" d="M61 562.5q0 21.5 2 51.5q12 242 126 356.5t309 114.5q100 0 177 -38.5t126 -100.5v64q0 23 16.5 39t38.5 16h358q23 0 39.5 -16.5t16.5 -38.5l2 -975q0 -129 -45 -221.5t-124 -150.5t-184.5 -86t-226.5 -28q-174 0 -289.5 45.5t-185.5 105.5t-100.5 121.5t-32.5 94.5 q-2 23 15.5 39t39.5 16h400q23 0 35 -11t22 -30q14 -27 31.5 -39t54.5 -12q88 0 88 121v135q-47 -41 -114.5 -64.5t-157.5 -23.5q-96 0 -174 24.5t-133.5 79t-88.5 142.5t-39 217q-2 31 -2 52.5zM563 561.5q0 -22.5 2 -39.5q4 -55 24.5 -87t78.5 -32q53 0 75.5 27t26.5 76 q2 16 2 55t-2 55q-4 49 -26.5 76t-75.5 27q-57 0 -78 -32t-25 -87q-2 -16 -2 -38.5z" />
<glyph unicode="h" horiz-adv-x="1402" d="M92 55v1344q0 23 16.5 39t38.5 16h400q23 0 39 -16.5t16 -38.5v-441q53 59 134 93t177 34q78 0 152 -27.5t130 -83.5t91 -144.5t35 -208.5v-566q0 -23 -16.5 -39t-38.5 -16h-402q-23 0 -39 16.5t-16 38.5v551q0 113 -102 113q-49 0 -77 -28.5t-28 -84.5v-551 q0 -23 -16.5 -39t-38.5 -16h-400q-23 0 -39 16.5t-16 38.5z" />
<glyph unicode="i" horiz-adv-x="661" d="M92 55v955q0 23 16.5 39t38.5 16h367q23 0 39 -16.5t16 -38.5v-955q0 -23 -16 -39t-39 -16h-367q-23 0 -39 16.5t-16 38.5zM102 1233v248q0 23 16.5 39t39.5 16h346q23 0 39 -16.5t16 -38.5v-248q0 -23 -16.5 -39t-38.5 -16h-346q-23 0 -39.5 16t-16.5 39z" />
<glyph unicode="j" horiz-adv-x="706" d="M-143 -86q0 23 16 39t39 16h119q47 0 67.5 28t20.5 75v938q0 23 16.5 39t38.5 16h385q23 0 39 -16.5t16 -38.5v-951q0 -115 -39.5 -199.5t-109.5 -140t-166 -82t-207 -26.5h-180q-23 0 -39 16.5t-16 38.5v248zM129 1233v248q0 23 16.5 39t38.5 16h365q23 0 39 -16.5 t16 -38.5v-248q0 -23 -16.5 -39t-38.5 -16h-365q-23 0 -39 16t-16 39z" />
<glyph unicode="k" horiz-adv-x="1316" d="M92 55v1344q0 23 16.5 39t38.5 16h359q23 0 39 -16.5t16 -38.5v-664l180 295q4 8 17.5 21.5t42.5 13.5h413q20 0 35 -14.5t15 -34.5q0 -10 -3.5 -18.5t-7.5 -12.5l-280 -399l332 -510q8 -12 8 -27q0 -20 -14.5 -34.5t-34.5 -14.5h-430q-31 0 -45.5 15.5t-18.5 19.5 l-209 348v-328q0 -23 -16.5 -39t-38.5 -16h-359q-23 0 -39 16.5t-16 38.5z" />
<glyph unicode="l" horiz-adv-x="661" d="M92 55v1344q0 23 16.5 39t38.5 16h367q23 0 39 -16.5t16 -38.5v-1344q0 -23 -16 -39t-39 -16h-367q-23 0 -39 16.5t-16 38.5z" />
<glyph unicode="m" horiz-adv-x="1921" d="M92 55v955q0 23 16.5 39t38.5 16h338q23 0 39.5 -16.5t16.5 -38.5v-68q18 23 45.5 47.5t63.5 45t80 34.5t95 16h21q225 0 303 -167q47 72 133 119.5t180 47.5q78 0 146.5 -25.5t120 -80.5t81 -142t29.5 -208v-574q0 -23 -16.5 -39t-38.5 -16h-361q-23 0 -39 16.5 t-16 38.5v563q0 101 -82 101q-80 0 -80 -101v-563q0 -23 -16 -39t-39 -16h-360q-23 0 -39.5 16.5t-16.5 38.5v563q0 100 -82 101q-82 0 -82 -101v-563q0 -23 -16 -39t-39 -16h-369q-23 0 -39 16.5t-16 38.5z" />
<glyph unicode="n" d="M92 55v955q0 23 16.5 39t38.5 16h359q23 0 39 -16.5t16 -38.5v-68q51 59 140.5 101t199.5 42q78 0 149.5 -27.5t127 -83.5t88 -144.5t32.5 -208.5v-566q0 -23 -16 -39t-39 -16h-391q-23 0 -39 16.5t-16 38.5v551q0 113 -103 113q-102 0 -102 -113v-551q0 -23 -16.5 -39 t-38.5 -16h-390q-23 0 -39 16.5t-16 38.5z" />
<glyph unicode="o" horiz-adv-x="1314" d="M63 436q-3 48 -3 96t3 97q16 227 171 341.5t423 114.5t423 -114.5t171 -341.5q3 -48 3 -96.5t-3 -96.5q-31 -456 -592 -456h-2q-563 0 -594 456zM563 532.5q0 -24.5 1 -48t1 -38.5q2 -37 6 -62.5t13.5 -42.5t27 -25.5t45.5 -8.5q57 0 72.5 34t20.5 105q0 14 1 38t1 48.5 t-1 47t-1 38.5q-4 68 -19.5 104t-73.5 36q-29 0 -46 -9.5t-26.5 -26.5t-13.5 -44t-6 -60q0 -16 -1 -38.5t-1 -47z" />
<glyph unicode="p" horiz-adv-x="1353" d="M92 -334v1344q0 23 16.5 39t38.5 16h349q23 0 39 -16.5t16 -38.5v-62q47 59 122 98t181 39q88 0 166 -25.5t135 -82.5t92 -146.5t41 -218.5q2 -47 2 -80.5t-2 -80.5q-4 -121 -39 -209t-93 -146.5t-136 -87t-166 -28.5q-86 0 -155.5 28.5t-116.5 93.5v-436 q0 -23 -16.5 -39t-39.5 -16h-379q-23 0 -39 16.5t-16 38.5zM578 524.5q0 -28.5 4 -75.5q4 -49 26.5 -76t75.5 -27q57 0 76.5 32t25.5 87q4 31 4 67q1 4 1 7q0 33 -5 61q-6 55 -25.5 87t-76.5 32t-77.5 -32t-24.5 -87q-4 -47 -4 -75.5z" />
<glyph unicode="q" horiz-adv-x="1353" d="M64 532q-1 4 -1 9q0 31 3 71q6 129 40.5 218.5t92 146.5t134.5 82.5t167 25.5q106 0 181 -38.5t122 -98.5v62q0 23 16.5 39t38.5 16h348q23 0 39.5 -16.5t16.5 -38.5v-1344q0 -23 -16.5 -39t-39.5 -16h-379q-23 0 -39 16.5t-16 38.5v436q-47 -66 -116.5 -94t-155.5 -28 q-90 0 -167 28.5t-135.5 87t-93 146.5t-38.5 209q-2 47 -2 81zM563 532.5q0 -36.5 4 -67.5q6 -55 25.5 -87t77.5 -32q53 0 75.5 26.5t26.5 76.5q4 47 4 75.5t-4 75.5q-4 55 -24.5 87t-77.5 32t-77 -32t-26 -87q-4 -31 -4 -67.5z" />
<glyph unicode="r" horiz-adv-x="1060" d="M92 55v955q0 23 16.5 39t38.5 16h359q23 0 39 -16.5t16 -38.5v-72q66 57 146.5 92t173.5 35h98q23 0 39 -16.5t16 -38.5v-320q0 -23 -16.5 -39t-38.5 -16h-264q-123 0 -123 -123v-457q0 -23 -16.5 -39t-38.5 -16h-390q-23 0 -39 16.5t-16 38.5z" />
<glyph unicode="s" horiz-adv-x="1208" d="M45 272q-2 23 12.5 39.5t36.5 16.5h357q23 0 40 -9.5t34.5 -21.5t37 -21.5t43.5 -9.5q16 0 31.5 7.5t15.5 23.5q0 12 -5 24.5t-25.5 23.5t-63.5 22.5t-119 25.5q-72 12 -139.5 38t-119.5 66t-83.5 99t-31.5 139q0 66 33.5 129.5t99 112.5t162 78.5t223.5 29.5t225 -29.5 t166.5 -73.5t105.5 -95t39 -94q2 -23 -12 -39.5t-33 -16.5h-344q-23 0 -40 9.5t-34.5 21.5t-35 21.5t-39.5 9.5q-16 0 -28.5 -9.5t-12.5 -23.5q0 -12 5 -24.5t27.5 -22.5t67.5 -20.5t125 -22.5q111 -16 186.5 -52t123.5 -84t68.5 -102.5t20.5 -105.5q0 -166 -147.5 -259 t-425.5 -93q-147 0 -250.5 30.5t-168 74.5t-95.5 95t-33 92z" />
<glyph unicode="t" horiz-adv-x="1089" d="M23 762v248q0 23 16 39t39 16h162v334q0 23 16 39t39 16h358q23 0 39.5 -16.5t16.5 -38.5v-334h258q23 0 39 -16.5t16 -38.5v-248q0 -23 -16.5 -39t-38.5 -16h-258v-226q0 -47 20.5 -74.5t67.5 -27.5h186q23 0 39 -16.5t16 -38.5v-269q0 -23 -16 -39t-39 -16h-231 q-111 0 -205 21.5t-163 72.5t-106.5 135t-37.5 211v267h-162q-23 0 -39 16t-16 39z" />
<glyph unicode="u" d="M82 444v566q0 23 16.5 39t38.5 16h391q23 0 39.5 -16.5t16.5 -38.5v-551q0 -113 102 -113t102 113v551q0 23 16.5 39t39.5 16h389q23 0 39 -16.5t16 -38.5v-955q0 -23 -16.5 -39t-38.5 -16h-359q-23 0 -39 16.5t-16 38.5v68q-51 -76 -140 -109.5t-200 -33.5 q-78 0 -149.5 26.5t-127 83.5t-88 145.5t-32.5 208.5z" />
<glyph unicode="v" horiz-adv-x="1290" d="M18 1016q0 20 14.5 34.5t35.5 14.5h346q31 0 46 -16.5t21 -32.5l164 -477l164 477q6 16 21.5 32.5t46.5 16.5h346q20 0 34.5 -14.5t14.5 -34.5q0 -8 -2 -15l-393 -950q-10 -18 -23.5 -34.5t-44.5 -16.5h-328q-31 0 -44 16.5t-23 34.5l-394 950q-2 6 -2 15z" />
<glyph unicode="w" horiz-adv-x="1779" d="M33 1016q0 20 14 34.5t35 14.5h315q31 0 48.5 -16.5t21.5 -32.5l125 -426l133 426q4 16 21.5 32.5t48.5 16.5h190q31 0 48.5 -16.5t21.5 -32.5l133 -426l125 426q4 16 21.5 32.5t47.5 16.5h316q20 0 34.5 -14.5t14.5 -34.5q0 -8 -2 -17l-299 -948q-6 -18 -21.5 -34.5 t-46.5 -16.5h-274q-31 0 -46.5 16.5t-21.5 34.5l-145 414l-148 -414q-6 -18 -21 -34.5t-46 -16.5h-275q-31 0 -46 16.5t-21 34.5l-299 948q-2 8 -2 17z" />
<glyph unicode="x" horiz-adv-x="1290" d="M8 49q0 4 2 12.5t6 14.5l332 473l-295 440q-8 12 -8 27q0 20 14.5 34.5t34.5 14.5h375q31 0 45 -14.5t21 -24.5l118 -182l119 182q6 10 20.5 24.5t45.5 14.5h358q20 0 34.5 -14.5t14.5 -32.5q0 -16 -8 -29l-301 -438l338 -475q8 -10 8 -27q0 -20 -14.5 -34.5t-34.5 -14.5 h-393q-29 0 -41.5 12.5t-20.5 22.5l-135 198l-141 -198q-6 -10 -19.5 -22.5t-42.5 -12.5h-383q-20 0 -34.5 14.5t-14.5 34.5z" />
<glyph unicode="y" horiz-adv-x="1302" d="M27 1016q4 20 17 34.5t34 14.5h346q31 0 45 -16.5t20 -32.5l168 -467l174 467q8 18 23.5 33.5t46.5 15.5h342q18 0 32.5 -13.5t14.5 -29.5q0 -12 -2 -21l-577 -1341q-8 -18 -24.5 -33.5t-47.5 -15.5h-336q-18 0 -31.5 12t-13.5 31q0 4 -1 9t3 11l164 394l-395 933 q-2 6 -2 15z" />
<glyph unicode="z" horiz-adv-x="1208" d="M74 55v236q0 25 9 42t23 29l408 351h-371q-23 0 -39 16t-16 39v242q0 23 16.5 39t38.5 16h906q23 0 39 -16.5t16 -38.5v-258q0 -35 -29 -60l-389 -340h406q23 0 39 -16.5t16 -38.5v-242q0 -23 -16.5 -39t-38.5 -16h-963q-23 0 -39 16.5t-16 38.5z" />
<glyph unicode="{" horiz-adv-x="970" d="M-12 580v106q0 59 59 86l35 14q59 25 85 85.5t26 125.5q0 156 62 267.5t160.5 184.5t220.5 106.5t243 33.5q18 0 31.5 -13t13.5 -32v-280q0 -18 -12.5 -30.5t-26.5 -14.5q-55 -6 -103.5 -22.5t-84 -44.5t-55 -72t-19.5 -105q0 -68 -12.5 -126t-34 -102.5t-48 -74 t-55.5 -39.5q29 -10 55.5 -42t48 -78t34 -103.5t12.5 -118.5t19.5 -105.5t55 -72t83.5 -44t104 -22.5q14 -2 26.5 -14.5t12.5 -30.5v-281q0 -18 -13.5 -31.5t-31.5 -13.5q-121 0 -243 34t-220.5 106.5t-160.5 184.5t-62 267q0 66 -26 126.5t-85 84.5l-35 15q-59 27 -59 86z " />
<glyph unicode="|" horiz-adv-x="598" d="M106 -371v2151q0 23 16.5 39t39.5 16h274q23 0 39.5 -16.5t16.5 -38.5v-2151q0 -23 -16.5 -39t-39.5 -16h-274q-23 0 -39.5 16.5t-16.5 38.5z" />
<glyph unicode="}" horiz-adv-x="970" d="M47 2q0 18 12.5 30.5t26.5 14.5q55 6 103.5 22.5t84 44t55 71.5t19.5 106q0 61 12.5 118.5t34 103.5t48 78t55.5 42q-29 10 -55.5 39.5t-48 74t-34 102.5t-12.5 126q0 61 -19.5 105t-55 72t-84 44t-103.5 23q-14 2 -26.5 14t-12.5 31v280q0 18 13.5 31.5t31.5 13.5 q121 0 243 -33.5t220 -106.5t160.5 -184.5t62.5 -267.5q0 -66 25.5 -126t85.5 -85l35 -14q59 -27 59 -86v-106q0 -59 -59 -86l-35 -15q-59 -25 -85 -85t-26 -126q0 -156 -62.5 -267.5t-160.5 -184t-220 -106.5t-243 -34q-18 0 -31.5 13.5t-13.5 31.5v281z" />
<glyph unicode="~" horiz-adv-x="1124" d="M102 467v221q0 68 61 116t165 48q76 0 132 -13.5t108.5 -29.5t106.5 -29.5t126 -13.5q47 0 84 19.5t53 33.5q8 6 17.5 11.5t23.5 7.5q29 0 37 -18.5t8 -57.5v-221q0 -68 -60.5 -116t-164.5 -48q-76 0 -132.5 13t-108.5 29.5t-106.5 30t-125.5 13.5q-47 0 -84 -19.5 t-54 -33.5q-8 -6 -17 -11.5t-24 -7.5q-29 0 -37 18.5t-8 57.5z" />
<glyph unicode="&#xa1;" horiz-adv-x="663" d="M98 -313v774q0 23 16.5 39t39.5 16h356q23 0 39 -16.5t16 -38.5v-774q0 -23 -16.5 -39.5t-38.5 -16.5h-356q-23 0 -39.5 16.5t-16.5 39.5zM98 653v357q0 23 16.5 39t39.5 16h356q23 0 39 -16.5t16 -38.5v-357q0 -23 -16.5 -39t-38.5 -16h-356q-23 0 -39.5 16.5 t-16.5 38.5z" />
<glyph unicode="&#xa2;" horiz-adv-x="1286" d="M57 531q0 49 2 83q8 174 107.5 286t257.5 157v137q0 23 16.5 39t38.5 16h305q23 0 39.5 -16t16.5 -39v-133q104 -29 178 -78t121 -103.5t69.5 -106.5t24.5 -85q2 -23 -15.5 -39t-39.5 -16h-400q-23 0 -36 11t-23 30q-14 29 -29.5 45t-46.5 16q-47 0 -63.5 -35t-18.5 -96 q-2 -88 0 -145q4 -66 19.5 -97.5t62.5 -31.5q37 0 50.5 16t25.5 45q16 41 59 41h400q23 0 40 -16.5t15 -38.5q-2 -29 -22.5 -80t-66.5 -106.5t-121 -107.5t-183 -79v-154q0 -23 -16.5 -39t-39.5 -16h-305q-23 0 -39 16.5t-16 38.5v156q-156 45 -255 156.5t-110 286.5 q-2 33 -2 82z" />
<glyph unicode="&#xa3;" horiz-adv-x="1552" d="M76 37q4 121 59 221t160 156q0 27 -2 51t-6 47h-154q-23 0 -39 16.5t-16 38.5v230q0 23 16.5 39t38.5 16h72q-2 14 -2 29.5v31.5q0 285 163.5 414t458.5 129q137 0 256 -31.5t206 -95t137.5 -158t52.5 -219.5q0 -18 -13.5 -31.5t-31.5 -13.5h-418q-35 0 -52.5 12.5 t-31.5 47.5q-20 49 -44 69.5t-61 20.5q-53 0 -71.5 -36t-18.5 -110v-30.5t2 -28.5h232q23 0 39 -16.5t16 -38.5v-230q0 -23 -16.5 -39t-38.5 -16h-221v-50.5t-5 -53.5q37 -8 67 -14.5t57.5 -11.5t55 -7t60.5 -2q51 0 89 20.5t67 55.5q6 8 13 13t24 5h268q18 0 28.5 -11.5 t10.5 -27.5q-2 -109 -40 -191.5t-96.5 -140t-131 -87t-146.5 -29.5q-78 0 -145.5 14t-128 31.5t-115.5 32t-107 14.5q-37 0 -65.5 -12.5t-46.5 -41.5q-10 -18 -31 -18h-315q-16 0 -27.5 10t-11.5 27z" />
<glyph unicode="&#xa4;" horiz-adv-x="1298" d="M78 251.5q0 22.5 16 39.5l96 96q-53 102 -53 227q0 121 53 228l-96 96q-16 16 -16 38.5t16 39.5l154 153q16 16 38.5 16.5t39.5 -16.5l96 -96q51 25 108.5 39t118.5 14t117.5 -14t110.5 -39l96 96q16 16 38.5 16.5t39.5 -16.5l153 -153q16 -16 16.5 -39t-16.5 -39 l-96 -96q25 -53 39 -109.5t14 -118.5q0 -61 -14 -118.5t-39 -108.5l96 -96q16 -16 16.5 -39t-16.5 -39l-153 -154q-16 -16 -39 -16t-39 16l-96 97q-106 -53 -228 -54q-125 0 -227 54l-96 -97q-16 -16 -39 -16t-39 16l-154 154q-16 16 -16 38.5zM465 614q0 -78 53 -131 t131 -53t131.5 53.5t53.5 130.5q0 78 -53.5 131.5t-131.5 53.5t-131 -53.5t-53 -131.5z" />
<glyph unicode="&#xa5;" horiz-adv-x="1536" d="M47 1389q0 18 13.5 31.5t31.5 13.5h385q41 0 61.5 -20.5t24.5 -31.5l205 -411l205 411q4 10 24.5 31t61.5 21h385q18 0 31.5 -13.5t13.5 -31.5q0 -10 -4 -19l-377 -749h158q23 0 39 -16.5t16 -39.5v-237q0 -23 -16.5 -39.5t-38.5 -16.5h-242v-217q0 -23 -16.5 -39 t-38.5 -16h-402q-23 0 -39 16.5t-16 38.5v217h-240q-23 0 -39 16.5t-16 39.5v237q0 23 16.5 39.5t38.5 16.5h154l-375 749q-4 8 -4 19z" />
<glyph unicode="&#xa6;" horiz-adv-x="606" d="M111 55v615q0 23 16 39t39 16h274q23 0 39.5 -16.5t16.5 -38.5v-615q0 -23 -16.5 -39t-39.5 -16h-274q-23 0 -39 16.5t-16 38.5zM111 1028v614q0 23 16 39.5t39 16.5h274q23 0 39.5 -16.5t16.5 -39.5v-614q0 -23 -16.5 -39t-39.5 -16h-274q-23 0 -39 16.5t-16 38.5z" />
<glyph unicode="&#xa7;" horiz-adv-x="1302" d="M53 604q0 174 140 283q-33 66 -33 147q0 88 33.5 164t98 133.5t161 90t221.5 32.5t222 -31.5t164.5 -80t104.5 -103.5t39 -102q2 -23 -12 -35t-33 -12h-340q-23 0 -35 8t-25.5 19t-30.5 19.5t-48 8.5q-23 0 -36 -16.5t-13 -38.5q0 -14 5 -28.5t27.5 -30t66.5 -31 t124 -29.5q111 -29 186.5 -66t121.5 -87t66.5 -113.5t20.5 -141.5q0 -174 -139 -282q16 -33 24.5 -69t8.5 -79q0 -88 -34 -165t-98.5 -133t-160.5 -89t-221 -33t-223.5 33t-166 81t-103.5 104.5t-38 103.5q-2 23 12.5 35t32.5 12h340q23 0 35 -9.5t25.5 -20.5t31 -20 t48.5 -9q23 0 36 16t13 39q0 14 -5 28.5t-28 30t-67 30.5t-123 30q-111 27 -187 64.5t-122 87.5t-66.5 113.5t-20.5 141.5zM479 631q0 -23 12.5 -38t44 -29.5t87 -30t143.5 -37.5q29 -8 43 9t14 32q0 23 -12 38t-44 29t-88 28.5t-142 37.5q-31 8 -44.5 -8.5t-13.5 -30.5z " />
<glyph unicode="&#xa8;" horiz-adv-x="1042" d="M102 1266v254q0 20 13.5 33.5t34.5 13.5h253q20 0 34 -13.5t14 -33.5v-254q0 -20 -13.5 -33.5t-34.5 -13.5h-253q-20 0 -34 13t-14 34zM592 1266v254q0 20 13 33.5t34 13.5h254q20 0 33.5 -13.5t13.5 -33.5v-254q0 -20 -13.5 -33.5t-33.5 -13.5h-254q-20 0 -33.5 13 t-13.5 34z" />
<glyph unicode="&#xa9;" horiz-adv-x="1622" d="M74 717q0 154 58 288t157.5 233t233.5 157.5t288 58.5t288 -58.5t233.5 -157.5t157.5 -233.5t58 -287.5q0 -154 -58 -288t-157.5 -233.5t-233.5 -157.5t-288 -58t-288 58t-233.5 157.5t-157.5 233.5t-58 288zM279 717q0 -113 40.5 -211t112.5 -172t169 -117t210 -43 t210 43t169 117t112.5 172t40.5 211t-40.5 211t-112.5 172t-169 117t-210 43t-210 -43t-169 -117t-112.5 -172t-40.5 -211zM451 718.5q0 26.5 1 49.5t1 31q8 145 101 230t257 85q96 0 166 -24.5t115 -63.5t67.5 -86t24.5 -90q2 -20 -11.5 -32.5t-33.5 -12.5h-197 q-25 0 -36 15.5t-17 27.5q-16 31 -32.5 41t-45.5 10q-47 0 -60.5 -34t-15.5 -77q0 -8 -1 -27.5t-1 -42t1 -42t1 -27.5q2 -43 15.5 -76.5t60.5 -33.5q29 0 45 10t33 41q6 12 17.5 27.5t35.5 15.5h197q20 0 33.5 -12.5t11.5 -32.5q-2 -43 -24.5 -90t-67.5 -86t-115 -63.5 t-166 -24.5q-164 0 -257 85t-101 230q0 8 -1 30.5t-1 49z" />
<glyph unicode="&#xaa;" horiz-adv-x="718" d="M45 1044q0 78 62.5 120t168.5 61l111 18q0 29 -5 41t-28 12q-12 0 -20 -5t-15.5 -11t-15.5 -11t-20 -5h-179q-10 0 -16 7t-4 17q2 20 17.5 47t48 51.5t84 41t124.5 16.5q143 0 212 -55.5t69 -171.5v-299q0 -10 -8 -19.5t-21 -9.5h-182q-12 0 -21.5 9t-9.5 20v28 q-23 -33 -61.5 -50t-85.5 -17q-92 0 -148.5 46.5t-56.5 118.5zM281 1061q0 -27 41 -27q31 0 48 18.5t17 61.5l-57 -14q-29 -8 -39 -18.5t-10 -20.5z" />
<glyph unicode="&#xab;" horiz-adv-x="1294" d="M43 606v135q0 33 29 58l444 432q10 8 18.5 9t10.5 1q18 0 31.5 -13.5t13.5 -31.5v-289q0 -35 -8.5 -53t-28.5 -39l-141 -141l141 -142q20 -20 28.5 -38.5t8.5 -53.5v-288q0 -18 -13.5 -32t-31.5 -14q-2 0 -10.5 1.5t-18.5 9.5l-444 432q-29 25 -29 57zM637 606v135 q0 33 29 58l444 432q10 8 18.5 9t10.5 1q18 0 31.5 -13.5t13.5 -31.5v-289q0 -35 -8.5 -53t-28.5 -39l-141 -141l141 -142q20 -20 28.5 -38.5t8.5 -53.5v-288q0 -18 -13.5 -32t-31.5 -14q-2 0 -10.5 1.5t-18.5 9.5l-444 432q-29 25 -29 57z" />
<glyph unicode="&#xac;" horiz-adv-x="1155" d="M86 424v238q0 23 16.5 39t38.5 16h850q23 0 39.5 -16.5t16.5 -38.5v-498q0 -23 -16.5 -39t-39.5 -16h-237q-23 0 -39.5 16t-16.5 39v205h-557q-23 0 -39 16t-16 39z" />
<glyph unicode="&#xad;" horiz-adv-x="964" d="M94 469v291q0 23 16.5 39t39.5 16h665q23 0 39 -16.5t16 -38.5v-291q0 -23 -16 -39t-39 -16h-665q-23 0 -39.5 16t-16.5 39z" />
<glyph unicode="&#xae;" horiz-adv-x="1622" d="M74 717q0 154 58 288t157.5 233t233.5 157.5t288 58.5t288 -58.5t233.5 -157.5t157.5 -233.5t58 -287.5q0 -154 -58 -288t-157.5 -233.5t-233.5 -157.5t-288 -58t-288 58t-233.5 157.5t-157.5 233.5t-58 288zM279 717q0 -113 40.5 -211t112.5 -172t169 -117t210 -43 t210 43t169 117t112.5 172t40.5 211t-40.5 211t-112.5 172t-169 117t-210 43t-210 -43t-169 -117t-112.5 -172t-40.5 -211zM498 389v660q0 45 45 45h299q57 0 116.5 -13.5t105.5 -44t75.5 -80t29.5 -118.5q0 -82 -33.5 -133.5t-80.5 -75.5l92 -211q4 -6 6 -12.5t2 -16.5 q0 -16 -11 -30.5t-34 -14.5h-174q-45 0 -59 39l-68 195h-43v-189q0 -45 -45 -45h-178q-45 0 -45 45zM766 780h76q25 0 38 16.5t13 41.5t-13.5 41t-37.5 16h-76v-115z" />
<glyph unicode="&#xaf;" horiz-adv-x="968" d="M102 1266v213q0 20 13.5 33.5t34.5 13.5h669q20 0 33.5 -13.5t13.5 -33.5v-213q0 -20 -13 -33.5t-34 -13.5h-669q-20 0 -34 13t-14 34z" />
<glyph unicode="&#xb0;" horiz-adv-x="880" d="M39 1063q0 82 31.5 153.5t86 125t127 83t156.5 29.5q82 0 156 -29.5t128 -83t86 -125t32 -153.5q0 -84 -32 -154.5t-86 -124t-128 -83t-156 -29.5q-84 0 -156.5 29.5t-127 83t-86 124t-31.5 154.5zM285 1063q0 -70 43 -113t112 -43q70 0 113 43t43 113t-43 113t-113 43 t-112.5 -43t-42.5 -113z" />
<glyph unicode="&#xb1;" horiz-adv-x="1179" d="M80 780v224q0 23 16.5 39t38.5 16h277v278q0 23 16 39.5t39 16.5h250q23 0 39 -16.5t16 -39.5v-278h272q23 0 39.5 -16.5t16.5 -38.5v-224q0 -23 -16.5 -39t-39.5 -16h-272v-289q0 -23 -16.5 -39t-38.5 -16h-250q-23 0 -39 16.5t-16 38.5v289h-277q-23 0 -39 16.5 t-16 38.5zM100 55v224q0 23 16.5 39t39.5 16h868q23 0 39 -16.5t16 -38.5v-224q0 -23 -16 -39t-39 -16h-868q-23 0 -39.5 16.5t-16.5 38.5z" />
<glyph unicode="&#xb2;" horiz-adv-x="755" d="M47 762v90q0 16 10.5 31.5t40.5 38.5q80 59 138.5 102t96.5 73.5t56.5 55.5t18.5 47q0 16 -4.5 28.5t-32.5 12.5q-25 0 -35 -12t-17 -25q-12 -23 -22 -31t-27 -8h-174q-37 0 -37 39q2 55 28 99.5t68 75t97 48t119 17.5q141 0 223 -59.5t82 -169.5q0 -88 -62.5 -153 t-164.5 -134h210q45 0 46 -45v-121q0 -45 -46 -45h-567q-45 0 -45 45z" />
<glyph unicode="&#xb3;" horiz-adv-x="747" d="M37 905q-2 20 11 29.5t24 9.5h186q14 0 21.5 -5t15.5 -11t19.5 -11.5t35.5 -5.5q35 0 49.5 12.5t14.5 30.5q0 23 -16.5 29t-47.5 6h-100q-18 0 -29.5 12.5t-11.5 28.5v60q0 16 5 24t15 19l82 79h-192q-45 0 -45 46v131q0 45 45 45h489q45 0 45 -45v-113q0 -16 -5 -25.5 t-21 -19.5l-113 -78q39 -10 73 -25.5t58.5 -40t38.5 -58.5t14 -83q0 -53 -25.5 -97t-69.5 -76t-105.5 -49t-135.5 -17q-94 0 -155.5 21.5t-98 52t-53 65.5t-18.5 59z" />
<glyph unicode="&#xb4;" horiz-adv-x="921" d="M102 1251q0 16 11 27l204 250q23 27 38.5 33t37.5 6h381q39 0 39 -41q0 -14 -10 -25l-301 -248q-16 -14 -34.5 -24t-51.5 -10h-281q-33 0 -33 32z" />
<glyph unicode="&#xb5;" horiz-adv-x="1431" d="M109 -352v1362q0 23 16 39t39 16h401q23 0 39.5 -16.5t16.5 -38.5v-551q0 -113 102 -113t102 113v551q0 23 16.5 39t39.5 16h389q23 0 39 -16.5t16 -38.5v-955q0 -23 -16.5 -39t-38.5 -16h-359q-23 0 -39 16.5t-16 38.5v68q-39 -57 -99.5 -85t-135.5 -38v-352 q0 -23 -16.5 -39.5t-39.5 -16.5h-401q-23 0 -39 16.5t-16 39.5z" />
<glyph unicode="&#xb6;" horiz-adv-x="1452" d="M47 1030q0 84 32 158t86 128t128 86t158 32h823q23 0 39 -16.5t16 -39.5v-1528q0 -23 -16.5 -39t-38.5 -16h-248q-23 0 -39 16.5t-16 38.5v1276h-162v-1276q0 -23 -16.5 -39t-38.5 -16h-248q-23 0 -39 16.5t-16 38.5v777q-84 0 -158 31.5t-128 86t-86 128t-32 157.5z" />
<glyph unicode="&#xb7;" horiz-adv-x="675" d="M51 717q0 59 22.5 111.5t61.5 91t91.5 61.5t111.5 23t111.5 -23t91.5 -61.5t61.5 -91t22.5 -111.5t-22.5 -111.5t-61.5 -91.5t-91.5 -61.5t-111.5 -22.5t-111.5 22.5t-91.5 61.5t-61.5 91.5t-22.5 111.5z" />
<glyph unicode="&#xb8;" horiz-adv-x="577" d="M102.5 -147.5q-2.5 12.5 12.5 41.5l71 161h138l-76 -147q12 4 33.5 7t27.5 3q78 0 122 -51t44 -133t-55 -133.5t-148 -51.5q-41 0 -76.5 10.5t-60 27t-32 34t11.5 33.5l43 37q12 12 22 12t21.5 -4t28 -9t42.5 -5q29 0 43.5 15t14.5 34q0 18 -13.5 33.5t-44.5 15.5 q-14 0 -29.5 -4t-29.5 -6t-27.5 -1t-23.5 11l-43 43q-14 14 -16.5 26.5z" />
<glyph unicode="&#xb9;" horiz-adv-x="608" d="M12.5 1211.5q1.5 17.5 18.5 29.5l229 178q20 14 47 15h180q45 0 45 -45v-627q0 -45 -45 -45h-186q-45 0 -45 45v373l-90 -70q-14 -10 -32.5 -8t-31.5 18l-79 103q-12 16 -10.5 33.5z" />
<glyph unicode="&#xba;" horiz-adv-x="716" d="M51 1161q0 39 2 56q6 109 84 168t221 59t221.5 -59t84.5 -168q2 -16 2 -55.5t-2 -55.5q-6 -109 -79 -168t-227 -59t-226.5 59t-78.5 168q-2 16 -2 55zM309 1161.5q0 -28.5 2 -45.5q4 -43 12 -56t35 -13t35 13t13 56q2 16 2 45t-2 45q-2 39 -11.5 54.5t-36.5 15.5 t-36 -15.5t-11 -54.5q-2 -16 -2 -44.5z" />
<glyph unicode="&#xbb;" horiz-adv-x="1294" d="M111 152v288q0 35 8 53.5t28 38.5l142 142l-142 141q-20 20 -28 38.5t-8 53.5v289q0 18 13 31.5t32 13.5q2 0 10 -1t18 -9l445 -432q29 -25 28 -58v-135q0 -33 -28 -57l-445 -432q-10 -8 -18 -9.5t-10 -1.5q-18 0 -31.5 13.5t-13.5 32.5zM705 152v288q0 35 8 53.5 t28 38.5l142 142l-142 141q-20 20 -28 38.5t-8 53.5v289q0 18 13 31.5t32 13.5q2 0 10 -1t18 -9l445 -432q29 -25 28 -58v-135q0 -33 -28 -57l-445 -432q-10 -8 -18 -9.5t-10 -1.5q-18 0 -31.5 13.5t-13.5 32.5z" />
<glyph unicode="&#xbc;" horiz-adv-x="1667" d="M45.5 1211.5q1.5 17.5 18.5 29.5l229 178q20 14 47 15h180q45 0 45 -45v-627q0 -45 -45 -45h-186q-45 0 -45 45v373l-90 -70q-14 -10 -32.5 -8t-31.5 18l-79 103q-12 16 -10.5 33.5zM187 41q0 4 2 10t6 12l1012 1332q14 18 29.5 28.5t43.5 10.5h152q23 0 36 -11.5 t13 -29.5q0 -4 -2 -10.5t-6 -12.5l-1012 -1331q-14 -18 -29.5 -28.5t-44.5 -10.5h-151q-23 0 -36 11.5t-13 29.5zM868 139v139q0 4 3 20.5t21 41.5l263 340q16 23 31.5 30t29.5 7h227q45 0 45 -45v-351h72q45 0 45 -45v-137q0 -45 -45 -45h-72v-49q0 -45 -45 -45h-176 q-45 0 -45 45v49h-309q-45 0 -45 45zM1122 311h106v148z" />
<glyph unicode="&#xbd;" horiz-adv-x="1691" d="M45.5 1211.5q1.5 17.5 18.5 29.5l229 178q20 14 47 15h180q45 0 45 -45v-627q0 -45 -45 -45h-186q-45 0 -45 45v373l-90 -70q-14 -10 -32.5 -8t-31.5 18l-79 103q-12 16 -10.5 33.5zM187 41q0 4 2 10t6 12l1012 1332q14 18 29.5 28.5t43.5 10.5h152q23 0 36 -11.5 t13 -29.5q0 -4 -2 -10.5t-6 -12.5l-1012 -1331q-14 -18 -29.5 -28.5t-44.5 -10.5h-151q-23 0 -36 11.5t-13 29.5zM969 45v90q0 16 10.5 31.5t40.5 38.5q80 59 138.5 102t96.5 73.5t56.5 55.5t18.5 47q0 16 -4.5 28.5t-32.5 12.5q-25 0 -35 -12t-17 -25q-12 -23 -22 -31 t-27 -8h-174q-37 0 -37 39q2 55 28 99.5t68 75t97 48t119 17.5q141 0 223 -59.5t82 -169.5q0 -88 -62.5 -153t-164.5 -134h210q45 0 46 -45v-121q0 -45 -46 -45h-567q-45 0 -45 45z" />
<glyph unicode="&#xbe;" horiz-adv-x="1705" d="M53 905q-2 20 11 29.5t24 9.5h186q14 0 21.5 -5t15.5 -11t19.5 -11.5t35.5 -5.5q35 0 49.5 12.5t14.5 30.5q0 23 -16.5 29t-47.5 6h-100q-18 0 -29.5 12.5t-11.5 28.5v60q0 16 5 24t15 19l82 79h-192q-45 0 -45 46v131q0 45 45 45h489q45 0 45 -45v-113q0 -16 -5 -25.5 t-21 -19.5l-113 -78q39 -10 73 -25.5t58.5 -40t38.5 -58.5t14 -83q0 -53 -25.5 -97t-69.5 -76t-105.5 -49t-135.5 -17q-94 0 -155.5 21.5t-98 52t-53 65.5t-18.5 59zM234 41q0 4 2 10t6 12l1012 1332q14 18 29.5 28.5t43.5 10.5h152q23 0 36 -11.5t13 -29.5q0 -4 -2 -10.5 t-6 -12.5l-1012 -1331q-14 -18 -29.5 -28.5t-44.5 -10.5h-151q-23 0 -36 11.5t-13 29.5zM916 139v139q0 4 3 20.5t21 41.5l263 340q16 23 31.5 30t29.5 7h227q45 0 45 -45v-351h72q45 0 45 -45v-137q0 -45 -45 -45h-72v-49q0 -45 -45 -45h-176q-45 0 -45 45v49h-309 q-45 0 -45 45zM1170 311h106v148z" />
<glyph unicode="&#xbf;" horiz-adv-x="1329" d="M47 -6q0 88 35 157.5t84 127t102.5 107.5t89.5 101q23 31 35.5 45.5t38.5 14.5h438q16 0 27.5 -11.5t11.5 -25.5q0 -10 -2 -16q-23 -72 -75 -132.5t-106 -111.5t-95 -94t-41 -80q0 -31 19.5 -48.5t49.5 -17.5q55 0 77 19.5t35 44t27.5 44t53.5 19.5h381q25 0 38 -19.5 t13 -41.5v-2q0 -78 -40 -160t-121 -149.5t-205.5 -110.5t-294.5 -43q-178 0 -290 41t-175.5 101.5t-87 126t-23.5 114.5zM420 684v326q0 23 16.5 39t38.5 16h375q23 0 39 -16.5t16 -38.5v-326q0 -23 -16.5 -39t-38.5 -16h-375q-23 0 -39 16.5t-16 38.5z" />
<glyph unicode="&#xc0;" horiz-adv-x="1546" d="M0 45q0 8 2 14l457 1307q6 23 28.5 45.5t63.5 22.5h444q41 0 63.5 -22.5t28.5 -45.5l457 -1307q2 -6 2 -14q0 -18 -13 -31.5t-32 -13.5h-379q-41 0 -57 17.5t-23 33.5l-49 135h-440l-49 -135q-6 -16 -22.5 -33.5t-57.5 -17.5h-379q-18 0 -31.5 13.5t-13.5 31.5zM252 1843 q0 41 39 41h402q23 0 38 -6t37 -33l205 -250q10 -10 11 -26q0 -33 -33 -33h-301q-33 0 -51.5 10t-34.5 25l-301 248q-10 10 -11 24zM657 586h232l-117 381z" />
<glyph unicode="&#xc1;" horiz-adv-x="1546" d="M0 45q0 8 2 14l457 1307q6 23 28.5 45.5t63.5 22.5h444q41 0 63.5 -22.5t28.5 -45.5l457 -1307q2 -6 2 -14q0 -18 -13 -31.5t-32 -13.5h-379q-41 0 -57 17.5t-23 33.5l-49 135h-440l-49 -135q-6 -16 -22.5 -33.5t-57.5 -17.5h-379q-18 0 -31.5 13.5t-13.5 31.5zM569 1569 q0 16 11 26l204 250q23 27 38.5 33t37.5 6h402q39 0 39 -41q0 -14 -11 -24l-301 -248q-16 -14 -34.5 -24.5t-51.5 -10.5h-301q-33 0 -33 33zM657 586h232l-117 381z" />
<glyph unicode="&#xc2;" horiz-adv-x="1546" d="M0 45q0 8 2 14l457 1307q6 23 28.5 45.5t63.5 22.5h444q41 0 63.5 -22.5t28.5 -45.5l457 -1307q2 -6 2 -14q0 -18 -13 -31.5t-32 -13.5h-379q-41 0 -57 17.5t-23 33.5l-49 135h-440l-49 -135q-6 -16 -22.5 -33.5t-57.5 -17.5h-379q-18 0 -31.5 13.5t-13.5 31.5zM324 1569 q0 16 10 26l229 250q20 23 37 31t39 8h266q23 0 39.5 -8t36.5 -31l229 -250q10 -10 11 -26q0 -33 -33 -33h-145q-20 0 -40 2t-42 12l-189 86l-188 -86q-23 -10 -42.5 -12t-39.5 -2h-146q-33 0 -32 33zM657 586h232l-117 381z" />
<glyph unicode="&#xc3;" horiz-adv-x="1546" d="M0 45q0 8 2 14l457 1307q6 23 28.5 45.5t63.5 22.5h444q41 0 63.5 -22.5t28.5 -45.5l457 -1307q2 -6 2 -14q0 -18 -13 -31.5t-32 -13.5h-379q-41 0 -57 17.5t-23 33.5l-49 135h-440l-49 -135q-6 -16 -22.5 -33.5t-57.5 -17.5h-379q-18 0 -31.5 13.5t-13.5 31.5zM356 1573 q0 35 12.5 90t43 106.5t85 88t138.5 36.5q45 0 78 -11t59.5 -25.5t50 -25.5t54.5 -11q23 0 35 10t21 21.5t19.5 21.5t26.5 10h172q18 0 28.5 -11t10.5 -28q0 -35 -12.5 -89t-43 -105.5t-85 -88t-138.5 -36.5q-47 0 -78.5 11t-58 25.5t-50.5 25.5t-54 11q-25 0 -37 -10 t-21.5 -21.5t-18.5 -21.5t-26 -10h-172q-16 0 -27.5 10t-11.5 27zM657 586h232l-117 381z" />
<glyph unicode="&#xc4;" horiz-adv-x="1546" d="M0 45q0 8 2 14l457 1307q6 23 28.5 45.5t63.5 22.5h444q41 0 63.5 -22.5t28.5 -45.5l457 -1307q2 -6 2 -14q0 -18 -13 -31.5t-32 -13.5h-379q-41 0 -57 17.5t-23 33.5l-49 135h-440l-49 -135q-6 -16 -22.5 -33.5t-57.5 -17.5h-379q-18 0 -31.5 13.5t-13.5 31.5zM323 1583 v254q0 20 13.5 33.5t34.5 13.5h253q20 0 34 -13t14 -34v-254q0 -20 -13.5 -33.5t-34.5 -13.5h-253q-20 0 -34 13.5t-14 33.5zM657 586h232l-117 381zM874 1583v254q0 20 13.5 33.5t33.5 13.5h254q20 0 33.5 -13t13.5 -34v-254q0 -20 -13 -33.5t-34 -13.5h-254 q-20 0 -33.5 13.5t-13.5 33.5z" />
<glyph unicode="&#xc5;" horiz-adv-x="1546" d="M0 45q0 8 2 14l457 1307q6 23 28.5 45.5t63.5 22.5h444q41 0 63.5 -22.5t28.5 -45.5l457 -1307q2 -6 2 -14q0 -18 -13 -31.5t-32 -13.5h-379q-41 0 -57 17.5t-23 33.5l-49 135h-440l-49 -135q-6 -16 -22.5 -33.5t-57.5 -17.5h-379q-18 0 -31.5 13.5t-13.5 31.5zM567 1710 q0 86 59.5 140.5t145.5 54.5t145.5 -54.5t59.5 -140.5t-59.5 -140t-145.5 -54t-145.5 54t-59.5 140zM657 586h232l-117 381zM711 1710q0 -27 17.5 -44t43.5 -17q27 0 44.5 17t17.5 44t-17.5 44.5t-44.5 17.5t-44 -17.5t-17 -44.5z" />
<glyph unicode="&#xc6;" horiz-adv-x="2058" d="M8 45q0 8 2 14l457 1307q6 23 28.5 45.5t63.5 22.5h1352q23 0 39 -16.5t16 -39.5v-288q0 -23 -16.5 -39.5t-38.5 -16.5h-553v-129h508q23 0 39 -16.5t16 -38.5v-266q0 -23 -16.5 -39.5t-38.5 -16.5h-508v-129h569q23 0 39 -16t16 -39v-289q0 -23 -16 -39t-39 -16h-1005 q-23 0 -39.5 16.5t-16.5 38.5v131h-305l-49 -135q-6 -16 -22.5 -33.5t-57.5 -17.5h-379q-18 0 -31.5 13.5t-13.5 31.5zM666 586h200v448h-65z" />
<glyph unicode="&#xc7;" horiz-adv-x="1501" d="M72 715q0 96 4 184q6 143 60 247.5t145.5 173.5t214 101.5t266.5 32.5q131 0 254 -29.5t219 -93t155.5 -163t61.5 -238.5q0 -18 -13.5 -31.5t-31.5 -13.5h-418q-35 0 -49 12t-27 47q-23 66 -61.5 88.5t-91.5 22.5q-68 0 -108 -36t-44 -130q-6 -170 0 -344q4 -94 44 -130 t108 -36q53 0 93 24.5t60 85.5q10 35 25.5 47.5t50.5 12.5h418q18 0 31.5 -13.5t13.5 -31.5q-2 -139 -61.5 -238.5t-155.5 -163t-219 -93t-254 -29.5l-37 -72q12 4 33.5 7t27.5 3q78 0 122 -51t44 -133t-55 -133.5t-147 -51.5q-41 0 -77 10.5t-60.5 27t-32 34t11.5 33.5 l43 37q12 12 22.5 12t21.5 -4t27.5 -9t43.5 -5q29 0 43 15t14 34q0 18 -13.5 33.5t-43.5 15.5q-14 0 -29.5 -4t-30 -6t-28 -1t-23.5 11l-43 43q-14 14 -16 26.5t12 41.5l41 94q-121 12 -221.5 50t-173 104.5t-114.5 163.5t-48 229q-4 84 -4 180z" />
<glyph unicode="&#xc8;" horiz-adv-x="1366" d="M113 55v1323q0 23 16 39.5t39 16.5h1051q23 0 39 -16.5t16 -39.5v-288q0 -23 -16.5 -39.5t-38.5 -16.5h-615v-129h570q23 0 39 -16.5t16 -38.5v-266q0 -23 -16.5 -39.5t-38.5 -16.5h-570v-129h631q23 0 39 -16t16 -39v-289q0 -23 -16.5 -39t-38.5 -16h-1067 q-23 0 -39 16.5t-16 38.5zM172 1843q0 41 39 41h402q23 0 38 -6t37 -33l205 -250q10 -10 11 -26q0 -33 -33 -33h-301q-33 0 -51.5 10t-34.5 25l-301 248q-10 10 -11 24z" />
<glyph unicode="&#xc9;" horiz-adv-x="1366" d="M113 55v1323q0 23 16 39.5t39 16.5h1051q23 0 39 -16.5t16 -39.5v-288q0 -23 -16.5 -39.5t-38.5 -16.5h-615v-129h570q23 0 39 -16.5t16 -38.5v-266q0 -23 -16.5 -39.5t-38.5 -16.5h-570v-129h631q23 0 39 -16t16 -39v-289q0 -23 -16.5 -39t-38.5 -16h-1067 q-23 0 -39 16.5t-16 38.5zM499 1569q0 16 11 26l204 250q23 27 38.5 33t37.5 6h402q39 0 39 -41q0 -14 -11 -24l-301 -248q-16 -14 -34.5 -24.5t-51.5 -10.5h-301q-33 0 -33 33z" />
<glyph unicode="&#xca;" horiz-adv-x="1366" d="M113 55v1323q0 23 16 39.5t39 16.5h1051q23 0 39 -16.5t16 -39.5v-288q0 -23 -16.5 -39.5t-38.5 -16.5h-615v-129h570q23 0 39 -16.5t16 -38.5v-266q0 -23 -16.5 -39.5t-38.5 -16.5h-570v-129h631q23 0 39 -16t16 -39v-289q0 -23 -16.5 -39t-38.5 -16h-1067 q-23 0 -39 16.5t-16 38.5zM252 1569q0 16 10 26l229 250q20 23 37 31t39 8h266q23 0 39.5 -8t36.5 -31l229 -250q10 -10 11 -26q0 -33 -33 -33h-145q-20 0 -40 2t-42 12l-189 86l-188 -86q-23 -10 -42.5 -12t-39.5 -2h-146q-33 0 -32 33z" />
<glyph unicode="&#xcb;" horiz-adv-x="1366" d="M113 55v1323q0 23 16 39.5t39 16.5h1051q23 0 39 -16.5t16 -39.5v-288q0 -23 -16.5 -39.5t-38.5 -16.5h-615v-129h570q23 0 39 -16.5t16 -38.5v-266q0 -23 -16.5 -39.5t-38.5 -16.5h-570v-129h631q23 0 39 -16t16 -39v-289q0 -23 -16.5 -39t-38.5 -16h-1067 q-23 0 -39 16.5t-16 38.5zM252 1583v254q0 20 13.5 33.5t34.5 13.5h253q20 0 34 -13t14 -34v-254q0 -20 -13.5 -33.5t-34.5 -13.5h-253q-20 0 -34 13.5t-14 33.5zM803 1583v254q0 20 13.5 33.5t33.5 13.5h254q20 0 33.5 -13t13.5 -34v-254q0 -20 -13 -33.5t-34 -13.5h-254 q-20 0 -33.5 13.5t-13.5 33.5z" />
<glyph unicode="&#xcc;" horiz-adv-x="753" d="M-154 1843q0 41 39 41h402q23 0 38 -6t37 -33l205 -250q10 -10 11 -26q0 -33 -33 -33h-301q-33 0 -51.5 10t-34.5 25l-301 248q-10 10 -11 24zM113 55v1323q0 23 16 39.5t39 16.5h418q23 0 39 -16.5t16 -39.5v-1323q0 -23 -16.5 -39t-38.5 -16h-418q-23 0 -39 16.5 t-16 38.5z" />
<glyph unicode="&#xcd;" horiz-adv-x="753" d="M113 55v1323q0 23 16 39.5t39 16.5h418q23 0 39 -16.5t16 -39.5v-1323q0 -23 -16.5 -39t-38.5 -16h-418q-23 0 -39 16.5t-16 38.5zM176 1569q0 16 11 26l204 250q23 27 38.5 33t37.5 6h402q39 0 39 -41q0 -14 -11 -24l-301 -248q-16 -14 -34.5 -24.5t-51.5 -10.5h-301 q-33 0 -33 33z" />
<glyph unicode="&#xce;" horiz-adv-x="753" d="M-71 1569q0 16 10 26l229 250q20 23 37 31t39 8h266q23 0 39.5 -8t36.5 -31l229 -250q10 -10 11 -26q0 -33 -33 -33h-145q-20 0 -40 2t-42 12l-189 86l-188 -86q-23 -10 -42.5 -12t-39.5 -2h-146q-33 0 -32 33zM113 55v1323q0 23 16 39.5t39 16.5h418q23 0 39 -16.5 t16 -39.5v-1323q0 -23 -16.5 -39t-38.5 -16h-418q-23 0 -39 16.5t-16 38.5z" />
<glyph unicode="&#xcf;" horiz-adv-x="753" d="M-72 1583v254q0 20 13.5 33.5t34.5 13.5h253q20 0 34 -13t14 -34v-254q0 -20 -13.5 -33.5t-34.5 -13.5h-253q-20 0 -34 13.5t-14 33.5zM113 55v1323q0 23 16 39.5t39 16.5h418q23 0 39 -16.5t16 -39.5v-1323q0 -23 -16.5 -39t-38.5 -16h-418q-23 0 -39 16.5t-16 38.5z M479 1583v254q0 20 13.5 33.5t33.5 13.5h254q20 0 33.5 -13t13.5 -34v-254q0 -20 -13 -33.5t-34 -13.5h-254q-20 0 -33.5 13.5t-13.5 33.5z" />
<glyph unicode="&#xd0;" horiz-adv-x="1568" d="M29 616v207q0 23 16 39.5t39 16.5h78v499q0 23 16.5 39.5t38.5 16.5h590q143 0 268 -37t218 -107.5t146.5 -176t53.5 -243.5v-305q0 -145 -52 -251.5t-143.5 -176t-216.5 -103.5t-272 -34h-592q-23 0 -39 16.5t-16 38.5v506h-78q-23 0 -39 16.5t-16 38.5zM674 399h133 q68 0 111 40t43 126v305q0 86 -42 125t-112 39h-133v-155h114q23 0 39.5 -16.5t16.5 -39.5v-207q0 -23 -16.5 -39t-39.5 -16h-114v-162z" />
<glyph unicode="&#xd1;" horiz-adv-x="1515" d="M113 55v1323q0 23 16 39.5t39 16.5h324q41 0 59 -18.5t24 -29.5l347 -567v559q0 23 16 39.5t39 16.5h371q23 0 39 -16.5t16 -39.5v-1323q0 -23 -16.5 -39t-38.5 -16h-324q-41 0 -59.5 18.5t-24.5 28.5l-346 522v-514q0 -23 -16.5 -39t-38.5 -16h-371q-23 0 -39 16.5 t-16 38.5zM342 1573q0 35 12.5 90t43 106.5t85 88t138.5 36.5q45 0 78 -11t59.5 -25.5t50 -25.5t54.5 -11q23 0 35 10t21 21.5t19.5 21.5t26.5 10h172q18 0 28.5 -11t10.5 -28q0 -35 -12.5 -89t-43 -105.5t-85 -88t-138.5 -36.5q-47 0 -78.5 11t-58 25.5t-50.5 25.5t-54 11 q-25 0 -37 -10t-21.5 -21.5t-18.5 -21.5t-26 -10h-172q-16 0 -27.5 10t-11.5 27z" />
<glyph unicode="&#xd2;" horiz-adv-x="1519" d="M72 710.5q0 94.5 4 182.5q6 135 57 239.5t140 176t212 108.5t275 37q150 0 273.5 -37t212.5 -108.5t140.5 -176t57.5 -239.5q4 -88 4 -182.5t-4 -178.5q-6 -137 -57.5 -240.5t-140.5 -173t-213 -104t-273 -34.5q-152 0 -275 34.5t-212 104t-140 173t-57 240.5 q-4 84 -4 178.5zM241 1843q0 41 39 41h402q23 0 38 -6t37 -33l205 -250q10 -10 11 -26q0 -33 -33 -33h-301q-33 0 -51.5 10t-34.5 25l-301 248q-10 10 -11 24zM608 545q4 -86 44 -126t108 -40t107.5 40t43.5 126q6 174 0 344q-4 86 -45 126t-106 40q-66 0 -107 -40t-45 -126 q-6 -170 0 -344z" />
<glyph unicode="&#xd3;" horiz-adv-x="1519" d="M72 710.5q0 94.5 4 182.5q6 135 57 239.5t140 176t212 108.5t275 37q150 0 273.5 -37t212.5 -108.5t140.5 -176t57.5 -239.5q4 -88 4 -182.5t-4 -178.5q-6 -137 -57.5 -240.5t-140.5 -173t-213 -104t-273 -34.5q-152 0 -275 34.5t-212 104t-140 173t-57 240.5 q-4 84 -4 178.5zM555 1569q0 16 11 26l204 250q23 27 38.5 33t37.5 6h402q39 0 39 -41q0 -14 -11 -24l-301 -248q-16 -14 -34.5 -24.5t-51.5 -10.5h-301q-33 0 -33 33zM608 545q4 -86 44 -126t108 -40t107.5 40t43.5 126q6 174 0 344q-4 86 -45 126t-106 40q-66 0 -107 -40 t-45 -126q-6 -170 0 -344z" />
<glyph unicode="&#xd4;" horiz-adv-x="1519" d="M72 710.5q0 94.5 4 182.5q6 135 57 239.5t140 176t212 108.5t275 37q150 0 273.5 -37t212.5 -108.5t140.5 -176t57.5 -239.5q4 -88 4 -182.5t-4 -178.5q-6 -137 -57.5 -240.5t-140.5 -173t-213 -104t-273 -34.5q-152 0 -275 34.5t-212 104t-140 173t-57 240.5 q-4 84 -4 178.5zM312 1569q0 16 10 26l229 250q20 23 37 31t39 8h266q23 0 39.5 -8t36.5 -31l229 -250q10 -10 11 -26q0 -33 -33 -33h-145q-20 0 -40 2t-42 12l-189 86l-188 -86q-23 -10 -42.5 -12t-39.5 -2h-146q-33 0 -32 33zM608 545q4 -86 44 -126t108 -40t107.5 40 t43.5 126q6 174 0 344q-4 86 -45 126t-106 40q-66 0 -107 -40t-45 -126q-6 -170 0 -344z" />
<glyph unicode="&#xd5;" horiz-adv-x="1519" d="M72 710.5q0 94.5 4 182.5q6 135 57 239.5t140 176t212 108.5t275 37q150 0 273.5 -37t212.5 -108.5t140.5 -176t57.5 -239.5q4 -88 4 -182.5t-4 -178.5q-6 -137 -57.5 -240.5t-140.5 -173t-213 -104t-273 -34.5q-152 0 -275 34.5t-212 104t-140 173t-57 240.5 q-4 84 -4 178.5zM344 1573q0 35 12.5 90t43 106.5t85 88t138.5 36.5q45 0 78 -11t59.5 -25.5t50 -25.5t54.5 -11q23 0 35 10t21 21.5t19.5 21.5t26.5 10h172q18 0 28.5 -11t10.5 -28q0 -35 -12.5 -89t-43 -105.5t-85 -88t-138.5 -36.5q-47 0 -78.5 11t-58 25.5t-50.5 25.5 t-54 11q-25 0 -37 -10t-21.5 -21.5t-18.5 -21.5t-26 -10h-172q-16 0 -27.5 10t-11.5 27zM608 545q4 -86 44 -126t108 -40t107.5 40t43.5 126q6 174 0 344q-4 86 -45 126t-106 40q-66 0 -107 -40t-45 -126q-6 -170 0 -344z" />
<glyph unicode="&#xd6;" horiz-adv-x="1519" d="M72 710.5q0 94.5 4 182.5q6 135 57 239.5t140 176t212 108.5t275 37q150 0 273.5 -37t212.5 -108.5t140.5 -176t57.5 -239.5q4 -88 4 -182.5t-4 -178.5q-6 -137 -57.5 -240.5t-140.5 -173t-213 -104t-273 -34.5q-152 0 -275 34.5t-212 104t-140 173t-57 240.5 q-4 84 -4 178.5zM311 1583v254q0 20 13.5 33.5t34.5 13.5h253q20 0 34 -13t14 -34v-254q0 -20 -13.5 -33.5t-34.5 -13.5h-253q-20 0 -34 13.5t-14 33.5zM608 545q4 -86 44 -126t108 -40t107.5 40t43.5 126q6 174 0 344q-4 86 -45 126t-106 40q-66 0 -107 -40t-45 -126 q-6 -170 0 -344zM862 1583v254q0 20 13.5 33.5t33.5 13.5h254q20 0 33.5 -13t13.5 -34v-254q0 -20 -13 -33.5t-34 -13.5h-254q-20 0 -33.5 13.5t-13.5 33.5z" />
<glyph unicode="&#xd7;" horiz-adv-x="1308" d="M68 395q0 23 16 39l248 248l-248 248q-16 16 -16 38.5t16 39.5l246 245q16 16 38.5 16.5t39.5 -16.5l247 -247l246 245q16 16 39 16.5t39 -16.5l246 -245q16 -16 16 -39t-16 -39l-246 -246l246 -246q16 -16 16 -38.5t-16 -39.5l-246 -245q-16 -16 -38.5 -16.5t-39.5 16.5 l-246 245l-247 -247q-16 -16 -39 -16.5t-39 16.5l-246 245q-16 16 -16 39z" />
<glyph unicode="&#xd8;" horiz-adv-x="1597" d="M25 326v221q0 51 45 67l47 19v131t4 129q6 135 57 239.5t140.5 176t212 108.5t274.5 37q221 0 382 -80t238 -229l86 35q14 6 23 6q18 0 30.5 -12.5t12.5 -30.5v-221q0 -51 -45 -68l-41 -16q2 -78 1 -157t-3 -149q-6 -137 -57.5 -240.5t-140.5 -173t-213 -104t-273 -34.5 q-238 0 -403.5 83.5t-235.5 253.5l-76 -28q-16 -6 -22 -6q-18 0 -30.5 12t-12.5 31zM651 842l293 114q-16 51 -52 75t-87 24q-66 0 -107 -40t-45 -126q-2 -12 -2 -24.5v-22.5zM655 510q10 -68 49 -99.5t101 -31.5q68 0 107.5 40t43.5 126q0 23 1 42t1 42z" />
<glyph unicode="&#xd9;" horiz-adv-x="1527" d="M100 541v837q0 23 16.5 39.5t39.5 16.5h401q23 0 39 -16.5t16 -39.5v-829q0 -158 152 -158t151 158v829q0 23 16.5 39.5t39.5 16.5h401q23 0 39 -16.5t16 -39.5v-837q0 -145 -49 -251t-136 -175.5t-209 -102t-267 -32.5q-147 0 -270 32.5t-210 102t-136.5 175 t-49.5 251.5zM247 1843q0 41 39 41h402q23 0 38 -6t37 -33l205 -250q10 -10 11 -26q0 -33 -33 -33h-301q-33 0 -51.5 10t-34.5 25l-301 248q-10 10 -11 24z" />
<glyph unicode="&#xda;" horiz-adv-x="1527" d="M100 541v837q0 23 16.5 39.5t39.5 16.5h401q23 0 39 -16.5t16 -39.5v-829q0 -158 152 -158t151 158v829q0 23 16.5 39.5t39.5 16.5h401q23 0 39 -16.5t16 -39.5v-837q0 -145 -49 -251t-136 -175.5t-209 -102t-267 -32.5q-147 0 -270 32.5t-210 102t-136.5 175 t-49.5 251.5zM561 1569q0 16 11 26l204 250q23 27 38.5 33t37.5 6h402q39 0 39 -41q0 -14 -11 -24l-301 -248q-16 -14 -34.5 -24.5t-51.5 -10.5h-301q-33 0 -33 33z" />
<glyph unicode="&#xdb;" horiz-adv-x="1527" d="M100 541v837q0 23 16.5 39.5t39.5 16.5h401q23 0 39 -16.5t16 -39.5v-829q0 -158 152 -158t151 158v829q0 23 16.5 39.5t39.5 16.5h401q23 0 39 -16.5t16 -39.5v-837q0 -145 -49 -251t-136 -175.5t-209 -102t-267 -32.5q-147 0 -270 32.5t-210 102t-136.5 175 t-49.5 251.5zM316 1569q0 16 10 26l229 250q20 23 37 31t39 8h266q23 0 39.5 -8t36.5 -31l229 -250q10 -10 11 -26q0 -33 -33 -33h-145q-20 0 -40 2t-42 12l-189 86l-188 -86q-23 -10 -42.5 -12t-39.5 -2h-146q-33 0 -32 33z" />
<glyph unicode="&#xdc;" horiz-adv-x="1527" d="M100 541v837q0 23 16.5 39.5t39.5 16.5h401q23 0 39 -16.5t16 -39.5v-829q0 -158 152 -158t151 158v829q0 23 16.5 39.5t39.5 16.5h401q23 0 39 -16.5t16 -39.5v-837q0 -145 -49 -251t-136 -175.5t-209 -102t-267 -32.5q-147 0 -270 32.5t-210 102t-136.5 175 t-49.5 251.5zM315 1583v254q0 20 13.5 33.5t34.5 13.5h253q20 0 34 -13t14 -34v-254q0 -20 -13.5 -33.5t-34.5 -13.5h-253q-20 0 -34 13.5t-14 33.5zM866 1583v254q0 20 13.5 33.5t33.5 13.5h254q20 0 33.5 -13t13.5 -34v-254q0 -20 -13 -33.5t-34 -13.5h-254 q-20 0 -33.5 13.5t-13.5 33.5z" />
<glyph unicode="&#xdd;" horiz-adv-x="1454" d="M6 1389q0 18 13.5 31.5t31.5 13.5h385q41 0 61.5 -20.5t24.5 -31.5l205 -411l205 411q4 10 24.5 31t61.5 21h385q18 0 31.5 -13.5t13.5 -31.5q0 -10 -4 -19l-461 -911v-404q0 -23 -16.5 -39t-38.5 -16h-402q-23 0 -39 16.5t-16 38.5v404l-461 911q-4 8 -4 19zM526 1569 q0 16 11 26l204 250q23 27 38.5 33t37.5 6h402q39 0 39 -41q0 -14 -11 -24l-301 -248q-16 -14 -34.5 -24.5t-51.5 -10.5h-301q-33 0 -33 33z" />
<glyph unicode="&#xde;" horiz-adv-x="1443" d="M113 55v1323q0 23 16 39.5t39 16.5h422q23 0 39 -16.5t16 -39.5v-147h133q143 0 259 -31t198 -93.5t126 -156.5t44 -221t-44 -219t-126 -151.5t-197.5 -87t-259.5 -27.5h-133v-189q0 -23 -16.5 -39t-38.5 -16h-422q-23 0 -39 16.5t-16 38.5zM635 623h143q33 0 63.5 25.5 t30.5 84.5q0 39 -19 78t-75 39h-143v-227z" />
<glyph unicode="&#xdf;" horiz-adv-x="1396" d="M92 55v871q0 113 35 209t108.5 166.5t188.5 111.5t272 41q158 0 269.5 -37t181.5 -96t101.5 -135t31.5 -158q0 -86 -28.5 -148.5t-92.5 -111.5q82 -41 132 -117t50 -209q0 -80 -33.5 -158.5t-104 -141t-178 -102.5t-257.5 -40h-72q-33 0 -50 16.5t-17 38.5v234 q0 23 17.5 40t49.5 15q59 -2 100.5 31t41.5 90q0 55 -39 89t-111 32q-33 0 -46 16t-13 39v201q0 23 10 39t49 16q59 0 98 28.5t39 75.5q0 45 -34.5 76t-94.5 31q-59 0 -94 -38t-35 -130v-885q0 -23 -16 -39t-39 -16h-365q-23 0 -39 16.5t-16 38.5z" />
<glyph unicode="&#xe0;" horiz-adv-x="1273" d="M35 305q0 74 31.5 132.5t90 101.5t141.5 72.5t185 47.5l217 35q0 55 -9 80t-52 25q-27 0 -43 -10.5t-29.5 -22.5t-29 -22.5t-39.5 -10.5h-348q-20 0 -34 12.5t-12 32.5q2 39 33 92.5t95.5 100.5t166 80.5t244.5 33.5q281 0 415 -115.5t134 -326.5v-588q0 -23 -16.5 -39 t-38.5 -16h-359q-23 0 -39 16.5t-16 38.5v58q-45 -61 -120 -97t-171 -36q-88 0 -161.5 24.5t-126 68.5t-81 103t-28.5 129zM127 1526q0 41 38 41h381q23 0 38.5 -6.5t37.5 -32.5l205 -250q10 -10 10 -27q0 -33 -33 -32h-280q-33 0 -51.5 10t-34.5 24l-301 248q-10 10 -10 25 zM496 340q0 -23 19 -40t58 -17q59 0 96.5 37.5t37.5 121.5l-121 -26q-53 -12 -71.5 -33t-18.5 -43z" />
<glyph unicode="&#xe1;" horiz-adv-x="1273" d="M35 305q0 74 31.5 132.5t90 101.5t141.5 72.5t185 47.5l217 35q0 55 -9 80t-52 25q-27 0 -43 -10.5t-29.5 -22.5t-29 -22.5t-39.5 -10.5h-348q-20 0 -34 12.5t-12 32.5q2 39 33 92.5t95.5 100.5t166 80.5t244.5 33.5q281 0 415 -115.5t134 -326.5v-588q0 -23 -16.5 -39 t-38.5 -16h-359q-23 0 -39 16.5t-16 38.5v58q-45 -61 -120 -97t-171 -36q-88 0 -161.5 24.5t-126 68.5t-81 103t-28.5 129zM438 1251q0 16 11 27l204 250q23 27 38.5 33t37.5 6h381q39 0 39 -41q0 -14 -10 -25l-301 -248q-16 -14 -34.5 -24t-51.5 -10h-281q-33 0 -33 32z M496 340q0 -23 19 -40t58 -17q59 0 96.5 37.5t37.5 121.5l-121 -26q-53 -12 -71.5 -33t-18.5 -43z" />
<glyph unicode="&#xe2;" horiz-adv-x="1273" d="M35 305q0 74 31.5 132.5t90 101.5t141.5 72.5t185 47.5l217 35q0 55 -9 80t-52 25q-27 0 -43 -10.5t-29.5 -22.5t-29 -22.5t-39.5 -10.5h-348q-20 0 -34 12.5t-12 32.5q2 39 33 92.5t95.5 100.5t166 80.5t244.5 33.5q281 0 415 -115.5t134 -326.5v-588q0 -23 -16.5 -39 t-38.5 -16h-359q-23 0 -39 16.5t-16 38.5v58q-45 -61 -120 -97t-171 -36q-88 0 -161.5 24.5t-126 68.5t-81 103t-28.5 129zM194 1251q0 16 11 27l229 250q20 23 36.5 31t39.5 8h246q23 0 39 -8.5t36 -30.5l230 -250q10 -10 10 -27q0 -33 -33 -32h-135q-20 0 -39.5 2 t-42.5 12l-188 86l-189 -86q-23 -10 -42 -12t-40 -2h-135q-33 0 -33 32zM496 340q0 -23 19 -40t58 -17q59 0 96.5 37.5t37.5 121.5l-121 -26q-53 -12 -71.5 -33t-18.5 -43z" />
<glyph unicode="&#xe3;" horiz-adv-x="1273" d="M35 305q0 74 31.5 132.5t90 101.5t141.5 72.5t185 47.5l217 35q0 55 -9 80t-52 25q-27 0 -43 -10.5t-29.5 -22.5t-29 -22.5t-39.5 -10.5h-348q-20 0 -34 12.5t-12 32.5q2 39 33 92.5t95.5 100.5t166 80.5t244.5 33.5q281 0 415 -115.5t134 -326.5v-588q0 -23 -16.5 -39 t-38.5 -16h-359q-23 0 -39 16.5t-16 38.5v58q-45 -61 -120 -97t-171 -36q-88 0 -161.5 24.5t-126 68.5t-81 103t-28.5 129zM217 1255q0 35 12.5 90.5t43 106.5t85 88t138.5 37q45 0 78 -11.5t59.5 -25.5t50 -25.5t54.5 -11.5q23 0 35 10.5t21 21.5t19.5 21.5t26.5 10.5h172 q18 0 28.5 -11.5t10.5 -27.5q0 -35 -12.5 -89.5t-43 -105.5t-85 -88t-138.5 -37q-47 0 -78.5 11.5t-58 26t-50.5 25.5t-54 11q-25 0 -37 -10t-21.5 -21.5t-18.5 -21.5t-26 -10h-172q-16 0 -27.5 10t-11.5 26zM496 340q0 -23 19 -40t58 -17q59 0 96.5 37.5t37.5 121.5 l-121 -26q-53 -12 -71.5 -33t-18.5 -43z" />
<glyph unicode="&#xe4;" horiz-adv-x="1273" d="M35 305q0 74 31.5 132.5t90 101.5t141.5 72.5t185 47.5l217 35q0 55 -9 80t-52 25q-27 0 -43 -10.5t-29.5 -22.5t-29 -22.5t-39.5 -10.5h-348q-20 0 -34 12.5t-12 32.5q2 39 33 92.5t95.5 100.5t166 80.5t244.5 33.5q281 0 415 -115.5t134 -326.5v-588q0 -23 -16.5 -39 t-38.5 -16h-359q-23 0 -39 16.5t-16 38.5v58q-45 -61 -120 -97t-171 -36q-88 0 -161.5 24.5t-126 68.5t-81 103t-28.5 129zM215 1266v254q0 20 13.5 33.5t34.5 13.5h253q20 0 34 -13.5t14 -33.5v-254q0 -20 -13.5 -33.5t-34.5 -13.5h-253q-20 0 -34 13t-14 34zM496 340 q0 -23 19 -40t58 -17q59 0 96.5 37.5t37.5 121.5l-121 -26q-53 -12 -71.5 -33t-18.5 -43zM705 1266v254q0 20 13 33.5t34 13.5h254q20 0 33.5 -13.5t13.5 -33.5v-254q0 -20 -13.5 -33.5t-33.5 -13.5h-254q-20 0 -33.5 13t-13.5 34z" />
<glyph unicode="&#xe5;" horiz-adv-x="1273" d="M35 305q0 74 31.5 132.5t90 101.5t141.5 72.5t185 47.5l217 35q0 55 -9 80t-52 25q-27 0 -43 -10.5t-29.5 -22.5t-29 -22.5t-39.5 -10.5h-348q-20 0 -34 12.5t-12 32.5q2 39 33 92.5t95.5 100.5t166 80.5t244.5 33.5q281 0 415 -115.5t134 -326.5v-588q0 -23 -16.5 -39 t-38.5 -16h-359q-23 0 -39 16.5t-16 38.5v58q-45 -61 -120 -97t-171 -36q-88 0 -161.5 24.5t-126 68.5t-81 103t-28.5 129zM428 1403q0 86 59.5 140t145.5 54t145.5 -54t59.5 -140t-59.5 -140.5t-145.5 -54.5t-145.5 54.5t-59.5 140.5zM496 340q0 -23 19 -40t58 -17 q59 0 96.5 37.5t37.5 121.5l-121 -26q-53 -12 -71.5 -33t-18.5 -43zM572 1403q0 -27 17.5 -44.5t43.5 -17.5q27 0 44.5 17.5t17.5 44.5t-17.5 44t-44.5 17t-44 -17t-17 -44z" />
<glyph unicode="&#xe6;" horiz-adv-x="1914" d="M35 305q0 74 31.5 132.5t90 101.5t141.5 72.5t185 47.5l217 35q0 55 -9 80t-52 25q-27 0 -43 -10.5t-29.5 -22.5t-29 -22.5t-39.5 -10.5h-348q-45 0 -46 45q0 39 31 92.5t95.5 100.5t167 80.5t245.5 33.5q115 0 192.5 -19t129.5 -56q66 35 143.5 55t169.5 20 q150 0 260.5 -45t182 -120.5t106.5 -177t35 -214.5v-61q0 -23 -16.5 -39t-39.5 -16h-610v-11q0 -61 17.5 -93t62.5 -32q18 0 30.5 10.5t28.5 26.5q18 18 30.5 23.5t37.5 5.5h387q45 0 45 -45q0 -39 -34 -93t-102.5 -104.5t-173 -85t-245.5 -34.5q-254 0 -403 124 q-47 -41 -99.5 -64.5t-104.5 -37.5t-103.5 -18t-96.5 -4q-104 0 -186 24.5t-137.5 68.5t-85 103t-29.5 129zM496 340q0 -23 19 -40t58 -17q59 0 96.5 37.5t37.5 121.5l-121 -26q-53 -12 -71.5 -33t-18.5 -43zM1196 668h164v8q0 123 -82 123t-82 -123v-8z" />
<glyph unicode="&#xe7;" horiz-adv-x="1273" d="M59 531q0 49 2 83q6 113 52.5 201t123 148.5t179 91t219.5 30.5q162 0 275.5 -47t184 -111.5t104.5 -131t36 -107.5q2 -23 -15.5 -39t-39.5 -16h-400q-23 0 -36 11t-23 30q-14 29 -29.5 45t-46.5 16q-47 0 -63.5 -35t-18.5 -96q-2 -88 0 -145q4 -66 19.5 -97.5 t62.5 -31.5q37 0 50.5 16t25.5 45q16 41 59 41h400q23 0 40 -16.5t15 -38.5q-2 -33 -31.5 -98.5t-98.5 -131t-179.5 -115.5t-276.5 -52l-37 -72q12 4 34 7t28 3q78 0 122 -51t44 -133t-55.5 -133.5t-147.5 -51.5q-41 0 -77 10.5t-60.5 27t-31.5 34t11 33.5l43 37 q12 12 22.5 12t22 -4t27.5 -9t43 -5q29 0 43 15t14 34q0 18 -13 33.5t-44 15.5q-14 0 -29.5 -4t-30 -6t-27.5 -1t-24 11l-43 43q-14 14 -16 26.5t12 41.5l41 94q-96 12 -178 49t-142.5 95t-96 137t-42.5 180q-2 33 -2 82z" />
<glyph unicode="&#xe8;" horiz-adv-x="1275" d="M57 530q0 135 41 238.5t118 174.5t184.5 106.5t240.5 35.5q150 0 260.5 -45t182 -120.5t106.5 -177t35 -214.5v-61q0 -23 -16.5 -39t-39.5 -16h-610v-11q0 -61 17.5 -93t62.5 -32q18 0 30.5 10.5t28.5 26.5q18 18 30.5 23.5t37.5 5.5h387q20 0 33.5 -12.5t11.5 -32.5 q-2 -39 -36 -93t-101.5 -104.5t-172 -85t-245.5 -34.5q-135 0 -242.5 31.5t-184.5 99t-118 172t-41 247.5zM140 1526q0 41 38 41h381q23 0 38.5 -6.5t37.5 -32.5l205 -250q10 -10 10 -27q0 -33 -33 -32h-280q-33 0 -51.5 10t-34.5 24l-301 248q-10 10 -10 25zM559 668h164 q0 70 -20.5 100.5t-61.5 30.5t-61.5 -31t-20.5 -100z" />
<glyph unicode="&#xe9;" horiz-adv-x="1275" d="M57 530q0 135 41 238.5t118 174.5t184.5 106.5t240.5 35.5q150 0 260.5 -45t182 -120.5t106.5 -177t35 -214.5v-61q0 -23 -16.5 -39t-39.5 -16h-610v-11q0 -61 17.5 -93t62.5 -32q18 0 30.5 10.5t28.5 26.5q18 18 30.5 23.5t37.5 5.5h387q20 0 33.5 -12.5t11.5 -32.5 q-2 -39 -36 -93t-101.5 -104.5t-172 -85t-245.5 -34.5q-135 0 -242.5 31.5t-184.5 99t-118 172t-41 247.5zM442 1251q0 16 11 27l204 250q23 27 38.5 33t37.5 6h381q39 0 39 -41q0 -14 -10 -25l-301 -248q-16 -14 -34.5 -24t-51.5 -10h-281q-33 0 -33 32zM559 668h164 q0 70 -20.5 100.5t-61.5 30.5t-61.5 -31t-20.5 -100z" />
<glyph unicode="&#xea;" horiz-adv-x="1275" d="M57 530q0 135 41 238.5t118 174.5t184.5 106.5t240.5 35.5q150 0 260.5 -45t182 -120.5t106.5 -177t35 -214.5v-61q0 -23 -16.5 -39t-39.5 -16h-610v-11q0 -61 17.5 -93t62.5 -32q18 0 30.5 10.5t28.5 26.5q18 18 30.5 23.5t37.5 5.5h387q20 0 33.5 -12.5t11.5 -32.5 q-2 -39 -36 -93t-101.5 -104.5t-172 -85t-245.5 -34.5q-135 0 -242.5 31.5t-184.5 99t-118 172t-41 247.5zM202 1251q0 16 11 27l229 250q20 23 36.5 31t39.5 8h246q23 0 39 -8.5t36 -30.5l230 -250q10 -10 10 -27q0 -33 -33 -32h-135q-20 0 -39.5 2t-42.5 12l-188 86 l-189 -86q-23 -10 -42 -12t-40 -2h-135q-33 0 -33 32zM559 668h164q0 70 -20.5 100.5t-61.5 30.5t-61.5 -31t-20.5 -100z" />
<glyph unicode="&#xeb;" horiz-adv-x="1275" d="M57 530q0 135 41 238.5t118 174.5t184.5 106.5t240.5 35.5q150 0 260.5 -45t182 -120.5t106.5 -177t35 -214.5v-61q0 -23 -16.5 -39t-39.5 -16h-610v-11q0 -61 17.5 -93t62.5 -32q18 0 30.5 10.5t28.5 26.5q18 18 30.5 23.5t37.5 5.5h387q20 0 33.5 -12.5t11.5 -32.5 q-2 -39 -36 -93t-101.5 -104.5t-172 -85t-245.5 -34.5q-135 0 -242.5 31.5t-184.5 99t-118 172t-41 247.5zM223 1266v254q0 20 13.5 33.5t34.5 13.5h253q20 0 34 -13.5t14 -33.5v-254q0 -20 -13.5 -33.5t-34.5 -13.5h-253q-20 0 -34 13t-14 34zM559 668h164 q0 70 -20.5 100.5t-61.5 30.5t-61.5 -31t-20.5 -100zM713 1266v254q0 20 13 33.5t34 13.5h254q20 0 33.5 -13.5t13.5 -33.5v-254q0 -20 -13.5 -33.5t-33.5 -13.5h-254q-20 0 -33.5 13t-13.5 34z" />
<glyph unicode="&#xec;" horiz-adv-x="661" d="M-178 1526q0 41 38 41h381q23 0 38.5 -6.5t37.5 -32.5l205 -250q10 -10 10 -27q0 -33 -33 -32h-280q-33 0 -51.5 10t-34.5 24l-301 248q-10 10 -10 25zM92 55v955q0 23 16.5 39t38.5 16h367q23 0 39 -16.5t16 -38.5v-955q0 -23 -16 -39t-39 -16h-367q-23 0 -39 16.5 t-16 38.5z" />
<glyph unicode="&#xed;" horiz-adv-x="661" d="M92 55v955q0 23 16.5 39t38.5 16h367q23 0 39 -16.5t16 -38.5v-955q0 -23 -16 -39t-39 -16h-367q-23 0 -39 16.5t-16 38.5zM131 1251q0 16 11 27l204 250q23 27 38.5 33t37.5 6h381q39 0 39 -41q0 -14 -10 -25l-301 -248q-16 -14 -34.5 -24t-51.5 -10h-281q-33 0 -33 32z " />
<glyph unicode="&#xee;" horiz-adv-x="661" d="M-109 1251q0 16 11 27l229 250q20 23 36.5 31t39.5 8h246q23 0 39 -8.5t36 -30.5l230 -250q10 -10 10 -27q0 -33 -33 -32h-135q-20 0 -39.5 2t-42.5 12l-188 86l-189 -86q-23 -10 -42 -12t-40 -2h-135q-33 0 -33 32zM92 55v955q0 23 16.5 39t38.5 16h367q23 0 39 -16.5 t16 -38.5v-955q0 -23 -16 -39t-39 -16h-367q-23 0 -39 16.5t-16 38.5z" />
<glyph unicode="&#xef;" horiz-adv-x="661" d="M-88 1266v254q0 20 13.5 33.5t34.5 13.5h253q20 0 34 -13.5t14 -33.5v-254q0 -20 -13.5 -33.5t-34.5 -13.5h-253q-20 0 -34 13t-14 34zM92 55v955q0 23 16.5 39t38.5 16h367q23 0 39 -16.5t16 -38.5v-955q0 -23 -16 -39t-39 -16h-367q-23 0 -39 16.5t-16 38.5zM402 1266 v254q0 20 13 33.5t34 13.5h254q20 0 33.5 -13.5t13.5 -33.5v-254q0 -20 -13.5 -33.5t-33.5 -13.5h-254q-20 0 -33.5 13t-13.5 34z" />
<glyph unicode="&#xf0;" horiz-adv-x="1306" d="M53 471q0 125 46 217t126 153.5t188.5 91.5t233.5 30h29q-25 55 -62 110l-241 -94q-16 -6 -23 -6q-18 0 -30.5 12t-12.5 31v57q0 51 45 68l152 59q-41 41 -88 78t-97 72q-27 18 -26 39q0 18 13 31.5t32 13.5h385q41 0 66.5 -8.5t41.5 -18.5q16 -14 34 -26.5t34 -26.5 l184 71q14 6 23 7q18 0 30.5 -12.5t12.5 -30.5v-58q0 -51 -45 -67l-84 -33q96 -119 153.5 -274.5t67.5 -366.5q4 -66 0 -129q-14 -242 -170 -361.5t-424 -119.5q-133 0 -242.5 29.5t-187.5 91t-121 153.5t-43 217zM553 471q0 -22 2 -53q2 -51 18.5 -81t73.5 -30 q53 0 71.5 30t20.5 79q2 31 2 54.5t-2 53.5q-4 49 -19 80t-73 31q-57 0 -72.5 -31t-19.5 -80q-2 -31 -2 -53z" />
<glyph unicode="&#xf1;" d="M92 55v955q0 23 16.5 39t38.5 16h359q23 0 39 -16.5t16 -38.5v-68q51 59 140.5 101t199.5 42q78 0 149.5 -27.5t127 -83.5t88 -144.5t32.5 -208.5v-566q0 -23 -16 -39t-39 -16h-391q-23 0 -39 16.5t-16 38.5v551q0 113 -103 113q-102 0 -102 -113v-551q0 -23 -16.5 -39 t-38.5 -16h-390q-23 0 -39 16.5t-16 38.5zM278 1255q0 35 12.5 90.5t43 106.5t85 88t138.5 37q45 0 78 -11.5t59.5 -25.5t50 -25.5t54.5 -11.5q23 0 35 10.5t21 21.5t19.5 21.5t26.5 10.5h172q18 0 28.5 -11.5t10.5 -27.5q0 -35 -12.5 -89.5t-43 -105.5t-85 -88t-138.5 -37 q-47 0 -78.5 11.5t-58 26t-50.5 25.5t-54 11q-25 0 -37 -10t-21.5 -21.5t-18.5 -21.5t-26 -10h-172q-16 0 -27.5 10t-11.5 26z" />
<glyph unicode="&#xf2;" horiz-adv-x="1314" d="M63 436q-6 96 0 193q16 227 171 341.5t423 114.5t423 -114.5t171 -341.5q6 -96 0 -193q-31 -457 -594 -456q-563 0 -594 456zM152 1526q0 41 38 41h381q23 0 38.5 -6.5t37.5 -32.5l205 -250q10 -10 10 -27q0 -33 -33 -32h-280q-33 0 -51.5 10t-34.5 24l-301 248 q-10 10 -10 25zM563 532.5q0 -24.5 1 -48t1 -38.5q2 -37 6 -62.5t13.5 -42.5t27 -25.5t45.5 -8.5q57 0 72.5 34t20.5 105q0 14 1 38t1 48.5t-1 47t-1 38.5q-4 68 -19.5 104t-73.5 36q-29 0 -46 -9.5t-26.5 -26.5t-13.5 -44t-6 -60q0 -16 -1 -38.5t-1 -47z" />
<glyph unicode="&#xf3;" horiz-adv-x="1314" d="M63 436q-6 96 0 193q16 227 171 341.5t423 114.5t423 -114.5t171 -341.5q6 -96 0 -193q-31 -457 -594 -456q-563 0 -594 456zM452 1251q0 16 11 27l204 250q23 27 38.5 33t37.5 6h381q39 0 39 -41q0 -14 -10 -25l-301 -248q-16 -14 -34.5 -24t-51.5 -10h-281 q-33 0 -33 32zM563 532.5q0 -24.5 1 -48t1 -38.5q2 -37 6 -62.5t13.5 -42.5t27 -25.5t45.5 -8.5q57 0 72.5 34t20.5 105q0 14 1 38t1 48.5t-1 47t-1 38.5q-4 68 -19.5 104t-73.5 36q-29 0 -46 -9.5t-26.5 -26.5t-13.5 -44t-6 -60q0 -16 -1 -38.5t-1 -47z" />
<glyph unicode="&#xf4;" horiz-adv-x="1314" d="M63 436q-6 96 0 193q16 227 171 341.5t423 114.5t423 -114.5t171 -341.5q6 -96 0 -193q-31 -457 -594 -456q-563 0 -594 456zM219 1251q0 16 11 27l229 250q20 23 36.5 31t39.5 8h246q23 0 39 -8.5t36 -30.5l230 -250q10 -10 10 -27q0 -33 -33 -32h-135q-20 0 -39.5 2 t-42.5 12l-188 86l-189 -86q-23 -10 -42 -12t-40 -2h-135q-33 0 -33 32zM563 532.5q0 -24.5 1 -48t1 -38.5q2 -37 6 -62.5t13.5 -42.5t27 -25.5t45.5 -8.5q57 0 72.5 34t20.5 105q0 14 1 38t1 48.5t-1 47t-1 38.5q-4 68 -19.5 104t-73.5 36q-29 0 -46 -9.5t-26.5 -26.5 t-13.5 -44t-6 -60q0 -16 -1 -38.5t-1 -47z" />
<glyph unicode="&#xf5;" horiz-adv-x="1314" d="M63 436q-6 96 0 193q16 227 171 341.5t423 114.5t423 -114.5t171 -341.5q6 -96 0 -193q-31 -457 -594 -456q-563 0 -594 456zM241 1255q0 35 12.5 90.5t43 106.5t85 88t138.5 37q45 0 78 -11.5t59.5 -25.5t50 -25.5t54.5 -11.5q23 0 35 10.5t21 21.5t19.5 21.5t26.5 10.5 h172q18 0 28.5 -11.5t10.5 -27.5q0 -35 -12.5 -89.5t-43 -105.5t-85 -88t-138.5 -37q-47 0 -78.5 11.5t-58 26t-50.5 25.5t-54 11q-25 0 -37 -10t-21.5 -21.5t-18.5 -21.5t-26 -10h-172q-16 0 -27.5 10t-11.5 26zM563 532.5q0 -24.5 1 -48t1 -38.5q2 -37 6 -62.5t13.5 -42.5 t27 -25.5t45.5 -8.5q57 0 72.5 34t20.5 105q0 14 1 38t1 48.5t-1 47t-1 38.5q-4 68 -19.5 104t-73.5 36q-29 0 -46 -9.5t-26.5 -26.5t-13.5 -44t-6 -60q0 -16 -1 -38.5t-1 -47z" />
<glyph unicode="&#xf6;" horiz-adv-x="1314" d="M63 436q-6 96 0 193q16 227 171 341.5t423 114.5t423 -114.5t171 -341.5q6 -96 0 -193q-31 -457 -594 -456q-563 0 -594 456zM239 1266v254q0 20 13.5 33.5t34.5 13.5h253q20 0 34 -13.5t14 -33.5v-254q0 -20 -13.5 -33.5t-34.5 -13.5h-253q-20 0 -34 13t-14 34z M563 532.5q0 -24.5 1 -48t1 -38.5q2 -37 6 -62.5t13.5 -42.5t27 -25.5t45.5 -8.5q57 0 72.5 34t20.5 105q0 14 1 38t1 48.5t-1 47t-1 38.5q-4 68 -19.5 104t-73.5 36q-29 0 -46 -9.5t-26.5 -26.5t-13.5 -44t-6 -60q0 -16 -1 -38.5t-1 -47zM729 1266v254q0 20 13 33.5 t34 13.5h254q20 0 33.5 -13.5t13.5 -33.5v-254q0 -20 -13.5 -33.5t-33.5 -13.5h-254q-20 0 -33.5 13t-13.5 34z" />
<glyph unicode="&#xf7;" horiz-adv-x="1058" d="M59 496v237q0 23 16.5 39t39.5 16h829q23 0 39 -16t16 -39v-237q0 -23 -16 -39.5t-39 -16.5h-829q-23 0 -39.5 16.5t-16.5 39.5zM346 104v234q0 23 16.5 39t38.5 16h254q23 0 39.5 -16.5t16.5 -38.5v-234q0 -23 -16.5 -39t-39.5 -16h-254q-23 0 -39 16.5t-16 38.5z M346 891v233q0 23 16.5 39.5t38.5 16.5h254q23 0 39.5 -16.5t16.5 -39.5v-233q0 -23 -16.5 -39t-39.5 -16h-254q-23 0 -39 16t-16 39z" />
<glyph unicode="&#xf8;" horiz-adv-x="1366" d="M16 221v139q0 51 45 68l31 10q-6 94 0 191q16 227 171 341.5t423 114.5q188 0 318.5 -52t201.5 -163l76 31q14 6 23 6q18 0 30.5 -12t12.5 -31v-139q0 -51 -45 -68l-25 -10q4 -47 5 -105.5t-3 -105.5q-31 -457 -594 -456q-399 0 -532 231l-72 -27q-16 -6 -23 -6 q-18 0 -30.5 12.5t-12.5 30.5zM594 633l172 67q-8 29 -25.5 43.5t-54.5 14.5q-55 0 -71.5 -33t-20.5 -92zM600 385q6 -41 23.5 -59.5t62.5 -18.5q57 0 72.5 34t19.5 105v9z" />
<glyph unicode="&#xf9;" d="M82 444v566q0 23 16.5 39t38.5 16h391q23 0 39.5 -16.5t16.5 -38.5v-551q0 -113 102 -113t102 113v551q0 23 16.5 39t39.5 16h389q23 0 39 -16.5t16 -38.5v-955q0 -23 -16.5 -39t-38.5 -16h-359q-23 0 -39 16.5t-16 38.5v68q-51 -76 -140 -109.5t-200 -33.5 q-78 0 -149.5 26.5t-127 83.5t-88 145.5t-32.5 208.5zM172 1526q0 41 38 41h381q23 0 38.5 -6.5t37.5 -32.5l205 -250q10 -10 10 -27q0 -33 -33 -32h-280q-33 0 -51.5 10t-34.5 24l-301 248q-10 10 -10 25z" />
<glyph unicode="&#xfa;" d="M82 444v566q0 23 16.5 39t38.5 16h391q23 0 39.5 -16.5t16.5 -38.5v-551q0 -113 102 -113t102 113v551q0 23 16.5 39t39.5 16h389q23 0 39 -16.5t16 -38.5v-955q0 -23 -16.5 -39t-38.5 -16h-359q-23 0 -39 16.5t-16 38.5v68q-51 -76 -140 -109.5t-200 -33.5 q-78 0 -149.5 26.5t-127 83.5t-88 145.5t-32.5 208.5zM487 1251q0 16 11 27l204 250q23 27 38.5 33t37.5 6h381q39 0 39 -41q0 -14 -10 -25l-301 -248q-16 -14 -34.5 -24t-51.5 -10h-281q-33 0 -33 32z" />
<glyph unicode="&#xfb;" d="M82 444v566q0 23 16.5 39t38.5 16h391q23 0 39.5 -16.5t16.5 -38.5v-551q0 -113 102 -113t102 113v551q0 23 16.5 39t39.5 16h389q23 0 39 -16.5t16 -38.5v-955q0 -23 -16.5 -39t-38.5 -16h-359q-23 0 -39 16.5t-16 38.5v68q-51 -76 -140 -109.5t-200 -33.5 q-78 0 -149.5 26.5t-127 83.5t-88 145.5t-32.5 208.5zM245 1251q0 16 11 27l229 250q20 23 36.5 31t39.5 8h246q23 0 39 -8.5t36 -30.5l230 -250q10 -10 10 -27q0 -33 -33 -32h-135q-20 0 -39.5 2t-42.5 12l-188 86l-189 -86q-23 -10 -42 -12t-40 -2h-135q-33 0 -33 32z" />
<glyph unicode="&#xfc;" d="M82 444v566q0 23 16.5 39t38.5 16h391q23 0 39.5 -16.5t16.5 -38.5v-551q0 -113 102 -113t102 113v551q0 23 16.5 39t39.5 16h389q23 0 39 -16.5t16 -38.5v-955q0 -23 -16.5 -39t-38.5 -16h-359q-23 0 -39 16.5t-16 38.5v68q-51 -76 -140 -109.5t-200 -33.5 q-78 0 -149.5 26.5t-127 83.5t-88 145.5t-32.5 208.5zM266 1266v254q0 20 13.5 33.5t34.5 13.5h253q20 0 34 -13.5t14 -33.5v-254q0 -20 -13.5 -33.5t-34.5 -13.5h-253q-20 0 -34 13t-14 34zM756 1266v254q0 20 13 33.5t34 13.5h254q20 0 33.5 -13.5t13.5 -33.5v-254 q0 -20 -13.5 -33.5t-33.5 -13.5h-254q-20 0 -33.5 13t-13.5 34z" />
<glyph unicode="&#xfd;" horiz-adv-x="1302" d="M27 1016q4 20 17 34.5t34 14.5h346q31 0 45 -16.5t20 -32.5l168 -467l174 467q8 18 23.5 33.5t46.5 15.5h342q18 0 32.5 -13.5t14.5 -29.5q0 -12 -2 -21l-577 -1341q-8 -18 -24.5 -33.5t-47.5 -15.5h-336q-18 0 -31.5 12t-13.5 31q0 4 -1 9t3 11l164 394l-395 933 q-2 6 -2 15zM467 1251q0 16 11 27l204 250q23 27 38.5 33t37.5 6h381q39 0 39 -41q0 -14 -10 -25l-301 -248q-16 -14 -34.5 -24t-51.5 -10h-281q-33 0 -33 32z" />
<glyph unicode="&#xfe;" horiz-adv-x="1355" d="M94 -334v1733q0 23 16.5 39t39.5 16h378q23 0 39.5 -16.5t16.5 -38.5v-430q47 59 106.5 87.5t165.5 28.5q88 0 166 -25.5t135 -82.5t92 -146.5t41 -218.5q2 -47 2 -80.5t-2 -80.5q-4 -121 -38.5 -209t-93 -146.5t-136.5 -87t-166 -28.5q-86 0 -155.5 28.5t-116.5 93.5 v-436q0 -23 -16.5 -39t-39.5 -16h-378q-23 0 -39.5 16.5t-16.5 38.5zM580 524.5q0 -28.5 4 -75.5q4 -49 26.5 -76t75.5 -27q57 0 76.5 32t25.5 87q4 31 4.5 67.5t-4.5 67.5q-6 55 -25.5 87t-76.5 32t-77.5 -32t-24.5 -87q-4 -47 -4 -75.5z" />
<glyph unicode="&#xff;" horiz-adv-x="1302" d="M27 1016q4 20 17 34.5t34 14.5h346q31 0 45 -16.5t20 -32.5l168 -467l174 467q8 18 23.5 33.5t46.5 15.5h342q18 0 32.5 -13.5t14.5 -29.5q0 -12 -2 -21l-577 -1341q-8 -18 -24.5 -33.5t-47.5 -15.5h-336q-18 0 -31.5 12t-13.5 31q0 4 -1 9t3 11l164 394l-395 933 q-2 6 -2 15zM241 1266v254q0 20 13.5 33.5t34.5 13.5h253q20 0 34 -13.5t14 -33.5v-254q0 -20 -13.5 -33.5t-34.5 -13.5h-253q-20 0 -34 13t-14 34zM731 1266v254q0 20 13 33.5t34 13.5h254q20 0 33.5 -13.5t13.5 -33.5v-254q0 -20 -13.5 -33.5t-33.5 -13.5h-254 q-20 0 -33.5 13t-13.5 34z" />
<glyph unicode="&#x100;" horiz-adv-x="1546" d="M0 45q0 8 2 14l457 1307q6 23 28.5 45.5t63.5 22.5h444q41 0 63.5 -22.5t28.5 -45.5l457 -1307q2 -6 2 -14q0 -18 -13 -31.5t-32 -13.5h-379q-41 0 -57 17.5t-23 33.5l-49 135h-440l-49 -135q-6 -16 -22.5 -33.5t-57.5 -17.5h-379q-18 0 -31.5 13.5t-13.5 31.5zM340 1583 v213q0 20 13.5 33.5t34.5 13.5h772q20 0 33.5 -13t13.5 -34v-213q0 -20 -13.5 -33.5t-33.5 -13.5h-772q-20 0 -34 13.5t-14 33.5zM657 586h232l-117 381z" />
<glyph unicode="&#x101;" horiz-adv-x="1273" d="M35 305q0 74 31.5 132.5t90 101.5t141.5 72.5t185 47.5l217 35q0 55 -9 80t-52 25q-27 0 -43 -10.5t-29.5 -22.5t-29 -22.5t-39.5 -10.5h-348q-20 0 -34 12.5t-12 32.5q2 39 33 92.5t95.5 100.5t166 80.5t244.5 33.5q281 0 415 -115.5t134 -326.5v-588q0 -23 -16.5 -39 t-38.5 -16h-359q-23 0 -39 16.5t-16 38.5v58q-45 -61 -120 -97t-171 -36q-88 0 -161.5 24.5t-126 68.5t-81 103t-28.5 129zM252 1266v213q0 20 13.5 33.5t34.5 13.5h669q20 0 33.5 -13.5t13.5 -33.5v-213q0 -20 -13 -33.5t-34 -13.5h-669q-20 0 -34 13t-14 34zM496 340 q0 -23 19 -40t58 -17q59 0 96.5 37.5t37.5 121.5l-121 -26q-53 -12 -71.5 -33t-18.5 -43z" />
<glyph unicode="&#x102;" horiz-adv-x="1546" d="M0 45q0 8 2 14l457 1307q6 23 28.5 45.5t63.5 22.5h444q41 0 63.5 -22.5t28.5 -45.5l457 -1307q2 -6 2 -14q0 -18 -13 -31.5t-32 -13.5h-379q-41 0 -57 17.5t-23 33.5l-49 135h-440l-49 -135q-6 -16 -22.5 -33.5t-57.5 -17.5h-379q-18 0 -31.5 13.5t-13.5 31.5zM409 1845 q0 16 10.5 27.5t28.5 11.5h203q18 0 28.5 -11t10.5 -28q0 -47 16.5 -79.5t65.5 -32.5t65.5 32.5t16.5 79.5q0 16 10 27.5t29 11.5h202q18 0 28.5 -11t10.5 -28q0 -70 -22.5 -128t-66.5 -101t-112.5 -66.5t-160.5 -23.5t-160.5 23.5t-113 66.5t-67 101.5t-22.5 127.5z M657 586h232l-117 381z" />
<glyph unicode="&#x103;" horiz-adv-x="1273" d="M35 305q0 74 31.5 132.5t90 101.5t141.5 72.5t185 47.5l217 35q0 55 -9 80t-52 25q-27 0 -43 -10.5t-29.5 -22.5t-29 -22.5t-39.5 -10.5h-348q-20 0 -34 12.5t-12 32.5q2 39 33 92.5t95.5 100.5t166 80.5t244.5 33.5q281 0 415 -115.5t134 -326.5v-588q0 -23 -16.5 -39 t-38.5 -16h-359q-23 0 -39 16.5t-16 38.5v58q-45 -61 -120 -97t-171 -36q-88 0 -161.5 24.5t-126 68.5t-81 103t-28.5 129zM280 1528q0 16 10.5 27.5t28.5 11.5h193q18 0 28.5 -11.5t10.5 -27.5q0 -47 17.5 -80t64.5 -33t64.5 33t17.5 80q0 16 10 27.5t28 11.5h193 q18 0 28.5 -11.5t10.5 -27.5q0 -70 -23.5 -128.5t-68.5 -101.5t-110.5 -66.5t-149.5 -23.5t-149.5 23.5t-110.5 66.5t-69 101.5t-24 128.5zM496 340q0 -23 19 -40t58 -17q59 0 96.5 37.5t37.5 121.5l-121 -26q-53 -12 -71.5 -33t-18.5 -43z" />
<glyph unicode="&#x104;" horiz-adv-x="1546" d="M0 45q0 8 2 14l457 1307q6 23 28.5 45.5t63.5 22.5h444q41 0 63.5 -22.5t28.5 -45.5l457 -1307q2 -6 2 -14q0 -18 -13 -31.5t-32 -13.5h-63q-53 -4 -71.5 -37t-18.5 -63q0 -33 21.5 -67t80.5 -34h20q23 0 39.5 -16t16.5 -39v-139q0 -23 -16.5 -39.5t-39.5 -16.5h-28 q-92 0 -158.5 28t-110 75t-63.5 110.5t-20 137.5q0 29 3 53t7 47q-29 4 -41 19.5t-17 31.5l-49 135h-440l-49 -135q-6 -16 -22.5 -33.5t-57.5 -17.5h-379q-18 0 -31.5 13.5t-13.5 31.5zM657 586h232l-117 381z" />
<glyph unicode="&#x105;" horiz-adv-x="1273" d="M35 305q0 74 31.5 132.5t90 101.5t141.5 72.5t185 47.5l217 35q0 55 -9 80t-52 25q-27 0 -43 -10.5t-29.5 -22.5t-29 -22.5t-39.5 -10.5h-348q-20 0 -34 12.5t-12 32.5q2 39 33 92.5t95.5 100.5t166 80.5t244.5 33.5q281 0 415 -115.5t134 -326.5v-588q0 -23 -16.5 -39 t-38.5 -16h-33q-53 -4 -71.5 -37t-18.5 -63q0 -33 21.5 -67t80.5 -34h21q23 0 39 -16t16 -39v-139q0 -23 -16.5 -39.5t-38.5 -16.5h-29q-92 0 -158.5 28t-109.5 75t-63.5 110.5t-20.5 137.5q0 25 2 51t6 49q-41 10 -41 55v58q-45 -61 -120 -97t-171 -36q-88 0 -161.5 24.5 t-126 68.5t-81 103t-28.5 129zM496 340q0 -23 19 -40t58 -17q59 0 96.5 37.5t37.5 121.5l-121 -26q-53 -12 -71.5 -33t-18.5 -43z" />
<glyph unicode="&#x106;" horiz-adv-x="1501" d="M72 715q0 96 4 184q6 143 60 247.5t145.5 173.5t214 101.5t266.5 32.5q131 0 254 -29.5t219 -93t155.5 -163t61.5 -238.5q0 -18 -13.5 -31.5t-31.5 -13.5h-418q-35 0 -49 12t-27 47q-23 66 -61.5 88.5t-91.5 22.5q-68 0 -108 -36t-44 -130q-6 -170 0 -344q4 -94 44 -130 t108 -36q53 0 93 24.5t60 85.5q10 35 25.5 47.5t50.5 12.5h418q18 0 31.5 -13.5t13.5 -31.5q-2 -139 -61.5 -238.5t-155.5 -163t-219 -93t-254 -29.5q-147 0 -270 31.5t-214.5 99t-143.5 172t-58 252.5q-4 84 -4 180zM567 1569q0 16 11 26l204 250q23 27 38.5 33t37.5 6h402 q39 0 39 -41q0 -14 -11 -24l-301 -248q-16 -14 -34.5 -24.5t-51.5 -10.5h-301q-33 0 -33 33z" />
<glyph unicode="&#x107;" horiz-adv-x="1273" d="M59 531q0 49 2 83q6 113 52.5 201t123 148.5t179 91t219.5 30.5q162 0 275.5 -47t184 -111.5t104.5 -131t36 -107.5q2 -23 -15.5 -39t-39.5 -16h-400q-23 0 -36 11t-23 30q-14 29 -29.5 45t-46.5 16q-47 0 -63.5 -35t-18.5 -96q-2 -88 0 -145q4 -66 19.5 -97.5 t62.5 -31.5q37 0 50.5 16t25.5 45q16 41 59 41h400q23 0 40 -16.5t15 -38.5q-2 -23 -15.5 -60.5t-42 -82t-74.5 -89.5t-112.5 -81.5t-154.5 -60t-201 -23.5q-117 0 -219.5 30.5t-179 90t-122.5 146.5t-53 202q-2 33 -2 82zM442 1251q0 16 11 27l204 250q23 27 38.5 33 t37.5 6h381q39 0 39 -41q0 -14 -10 -25l-301 -248q-16 -14 -34.5 -24t-51.5 -10h-281q-33 0 -33 32z" />
<glyph unicode="&#x108;" horiz-adv-x="1501" d="M72 715q0 96 4 184q6 143 60 247.5t145.5 173.5t214 101.5t266.5 32.5q131 0 254 -29.5t219 -93t155.5 -163t61.5 -238.5q0 -18 -13.5 -31.5t-31.5 -13.5h-418q-35 0 -49 12t-27 47q-23 66 -61.5 88.5t-91.5 22.5q-68 0 -108 -36t-44 -130q-6 -170 0 -344q4 -94 44 -130 t108 -36q53 0 93 24.5t60 85.5q10 35 25.5 47.5t50.5 12.5h418q18 0 31.5 -13.5t13.5 -31.5q-2 -139 -61.5 -238.5t-155.5 -163t-219 -93t-254 -29.5q-147 0 -270 31.5t-214.5 99t-143.5 172t-58 252.5q-4 84 -4 180zM314 1569q0 16 10 26l229 250q20 23 37 31t39 8h266 q23 0 39.5 -8t36.5 -31l229 -250q10 -10 11 -26q0 -33 -33 -33h-145q-20 0 -40 2t-42 12l-189 86l-188 -86q-23 -10 -42.5 -12t-39.5 -2h-146q-33 0 -32 33z" />
<glyph unicode="&#x109;" horiz-adv-x="1273" d="M59 531q0 49 2 83q6 113 52.5 201t123 148.5t179 91t219.5 30.5q162 0 275.5 -47t184 -111.5t104.5 -131t36 -107.5q2 -23 -15.5 -39t-39.5 -16h-400q-23 0 -36 11t-23 30q-14 29 -29.5 45t-46.5 16q-47 0 -63.5 -35t-18.5 -96q-2 -88 0 -145q4 -66 19.5 -97.5 t62.5 -31.5q37 0 50.5 16t25.5 45q16 41 59 41h400q23 0 40 -16.5t15 -38.5q-2 -23 -15.5 -60.5t-42 -82t-74.5 -89.5t-112.5 -81.5t-154.5 -60t-201 -23.5q-117 0 -219.5 30.5t-179 90t-122.5 146.5t-53 202q-2 33 -2 82zM208 1251q0 16 11 27l229 250q20 23 36.5 31 t39.5 8h246q23 0 39 -8.5t36 -30.5l230 -250q10 -10 10 -27q0 -33 -33 -32h-135q-20 0 -39.5 2t-42.5 12l-188 86l-189 -86q-23 -10 -42 -12t-40 -2h-135q-33 0 -33 32z" />
<glyph unicode="&#x10a;" horiz-adv-x="1501" d="M72 715q0 96 4 184q6 143 60 247.5t145.5 173.5t214 101.5t266.5 32.5q131 0 254 -29.5t219 -93t155.5 -163t61.5 -238.5q0 -18 -13.5 -31.5t-31.5 -13.5h-418q-35 0 -49 12t-27 47q-23 66 -61.5 88.5t-91.5 22.5q-68 0 -108 -36t-44 -130q-6 -170 0 -344q4 -94 44 -130 t108 -36q53 0 93 24.5t60 85.5q10 35 25.5 47.5t50.5 12.5h418q18 0 31.5 -13.5t13.5 -31.5q-2 -139 -61.5 -238.5t-155.5 -163t-219 -93t-254 -29.5q-147 0 -270 31.5t-214.5 99t-143.5 172t-58 252.5q-4 84 -4 180zM575 1583v279q0 20 13.5 33.5t34.5 13.5h278 q20 0 33.5 -13.5t13.5 -33.5v-279q0 -20 -13 -33.5t-34 -13.5h-278q-20 0 -34 13.5t-14 33.5z" />
<glyph unicode="&#x10b;" horiz-adv-x="1273" d="M59 531q0 49 2 83q6 113 52.5 201t123 148.5t179 91t219.5 30.5q162 0 275.5 -47t184 -111.5t104.5 -131t36 -107.5q2 -23 -15.5 -39t-39.5 -16h-400q-23 0 -36 11t-23 30q-14 29 -29.5 45t-46.5 16q-47 0 -63.5 -35t-18.5 -96q-2 -88 0 -145q4 -66 19.5 -97.5 t62.5 -31.5q37 0 50.5 16t25.5 45q16 41 59 41h400q23 0 40 -16.5t15 -38.5q-2 -23 -15.5 -60.5t-42 -82t-74.5 -89.5t-112.5 -81.5t-154.5 -60t-201 -23.5q-117 0 -219.5 30.5t-179 90t-122.5 146.5t-53 202q-2 33 -2 82zM467 1266v268q0 20 13.5 33.5t34.5 13.5h268 q20 0 33.5 -13.5t13.5 -33.5v-268q0 -20 -13.5 -33.5t-33.5 -13.5h-268q-20 0 -34 13t-14 34z" />
<glyph unicode="&#x10c;" horiz-adv-x="1501" d="M72 715q0 96 4 184q6 143 60 247.5t145.5 173.5t214 101.5t266.5 32.5q131 0 254 -29.5t219 -93t155.5 -163t61.5 -238.5q0 -18 -13.5 -31.5t-31.5 -13.5h-418q-35 0 -49 12t-27 47q-23 66 -61.5 88.5t-91.5 22.5q-68 0 -108 -36t-44 -130q-6 -170 0 -344q4 -94 44 -130 t108 -36q53 0 93 24.5t60 85.5q10 35 25.5 47.5t50.5 12.5h418q18 0 31.5 -13.5t13.5 -31.5q-2 -139 -61.5 -238.5t-155.5 -163t-219 -93t-254 -29.5q-147 0 -270 31.5t-214.5 99t-143.5 172t-58 252.5q-4 84 -4 180zM312 1851q0 33 32 33h146q20 0 39.5 -2t42.5 -12 l188 -86l189 86q23 10 42 12t40 2h145q33 0 33 -33q0 -16 -11 -26l-229 -250q-20 -23 -36.5 -31t-39.5 -8h-266q-23 0 -39 8t-37 31l-229 250q-10 10 -10 26z" />
<glyph unicode="&#x10d;" horiz-adv-x="1273" d="M59 531q0 49 2 83q6 113 52.5 201t123 148.5t179 91t219.5 30.5q162 0 275.5 -47t184 -111.5t104.5 -131t36 -107.5q2 -23 -15.5 -39t-39.5 -16h-400q-23 0 -36 11t-23 30q-14 29 -29.5 45t-46.5 16q-47 0 -63.5 -35t-18.5 -96q-2 -88 0 -145q4 -66 19.5 -97.5 t62.5 -31.5q37 0 50.5 16t25.5 45q16 41 59 41h400q23 0 40 -16.5t15 -38.5q-2 -23 -15.5 -60.5t-42 -82t-74.5 -89.5t-112.5 -81.5t-154.5 -60t-201 -23.5q-117 0 -219.5 30.5t-179 90t-122.5 146.5t-53 202q-2 33 -2 82zM208 1534q0 33 33 33h135q20 0 40 -2t42 -13 l189 -86l188 86q23 10 42.5 12.5t39.5 2.5h135q33 0 33 -33q0 -16 -10 -27l-230 -250q-20 -23 -36.5 -30.5t-38.5 -7.5h-246q-23 0 -39.5 8t-36.5 30l-229 250q-10 10 -11 27z" />
<glyph unicode="&#x10e;" horiz-adv-x="1515" d="M113 55v1323q0 23 16 39.5t39 16.5h590q143 0 266 -37t214 -107.5t144.5 -176t59.5 -243.5q2 -43 2 -80.5v-73.5v-73t-2 -78q-6 -145 -57.5 -251.5t-139.5 -176t-209 -103.5t-268 -34h-600q-23 0 -39 16.5t-16 38.5zM299 1851q0 33 32 33h146q20 0 39.5 -2t42.5 -12 l188 -86l189 86q23 10 42 12t40 2h145q33 0 33 -33q0 -16 -11 -26l-229 -250q-20 -23 -36.5 -31t-39.5 -8h-266q-23 0 -39 8t-37 31l-229 250q-10 10 -10 26zM625 399h133q68 0 114 40t50 126q2 43 3 81t1 74t-1 71.5t-3 78.5q-4 86 -54.5 125t-119.5 39h-123v-635z" />
<glyph unicode="&#x10f;" horiz-adv-x="1632" d="M63.5 533.5q-0.5 33.5 2.5 80.5q4 121 38.5 209t93 146.5t135.5 87t167 28.5q86 0 154.5 -25.5t117.5 -70.5v410q0 23 16.5 39t38.5 16h379q23 0 39.5 -16.5t16.5 -38.5v-1344q0 -23 -16.5 -39t-39.5 -16h-348q-23 0 -39 16.5t-16 38.5v47q-49 -55 -123 -88.5t-180 -33.5 q-90 0 -167 25.5t-134.5 82.5t-92 146.5t-40.5 218.5q-2 47 -2.5 80.5zM563 532.5q0 -36.5 4 -67.5q6 -55 25.5 -87t77.5 -32q57 0 77.5 32t24.5 87q4 47 4 75.5t-4 75.5q-4 49 -26.5 76t-75.5 27q-57 0 -77 -32t-26 -87q-4 -31 -4 -67.5zM1364 1089v4l43 281q4 29 26 54.5 t62 25.5h287q18 0 31.5 -13.5t13.5 -31.5q0 -8 -2 -15l-112 -284q-8 -20 -28 -43t-61 -23h-215q-18 0 -31.5 13.5t-13.5 31.5z" />
<glyph unicode="&#x110;" horiz-adv-x="1564" d="M29 618v207q0 23 16 39.5t39 16.5h78v497q0 23 16.5 39.5t38.5 16.5h590q143 0 266 -37t214 -107.5t144.5 -176t59.5 -243.5q2 -43 2 -80.5v-73.5v-73t-2 -78q-6 -145 -58.5 -251.5t-142.5 -176t-212 -103.5t-269 -34h-592q-23 0 -39 16.5t-16 38.5v508h-78 q-23 0 -39 16.5t-16 38.5zM674 399h133q68 0 114 40t50 126q2 43 3 81t1 74t-1 71.5t-3 78.5q-4 86 -49 125t-115 39h-133v-153h114q23 0 39.5 -16.5t16.5 -39.5v-207q0 -23 -16.5 -39t-39.5 -16h-114v-164z" />
<glyph unicode="&#x111;" horiz-adv-x="1355" d="M63.5 533.5q-0.5 33.5 2.5 80.5q4 121 38.5 209t93 146.5t135.5 87t167 28.5q86 0 154.5 -25.5t117.5 -70.5v133h-61q-23 0 -39.5 16.5t-16.5 39.5v104q0 23 16.5 39t39.5 16h61v62q0 23 16.5 39t38.5 16h379q23 0 39.5 -16.5t16.5 -38.5v-62h61q23 0 39 -16t16 -39v-104 q0 -23 -16 -39.5t-39 -16.5h-61v-1067q0 -23 -16.5 -39t-39.5 -16h-348q-23 0 -39 16.5t-16 38.5v62q-47 -59 -122 -98t-181 -39q-90 0 -167 25.5t-134.5 82.5t-92 146.5t-40.5 218.5q-2 47 -2.5 80.5zM563 532.5q0 -36.5 4 -67.5q6 -55 25.5 -87t77.5 -32q57 0 77.5 32 t24.5 87q4 47 4 75.5t-4 75.5q-4 49 -26.5 76t-75.5 27q-57 0 -77 -32t-26 -87q-4 -31 -4 -67.5z" />
<glyph unicode="&#x112;" horiz-adv-x="1366" d="M113 55v1323q0 23 16 39.5t39 16.5h1051q23 0 39 -16.5t16 -39.5v-288q0 -23 -16.5 -39.5t-38.5 -16.5h-615v-129h570q23 0 39 -16.5t16 -38.5v-266q0 -23 -16.5 -39.5t-38.5 -16.5h-570v-129h631q23 0 39 -16t16 -39v-289q0 -23 -16.5 -39t-38.5 -16h-1067 q-23 0 -39 16.5t-16 38.5zM268 1583v213q0 20 13.5 33.5t34.5 13.5h772q20 0 33.5 -13t13.5 -34v-213q0 -20 -13.5 -33.5t-33.5 -13.5h-772q-20 0 -34 13.5t-14 33.5z" />
<glyph unicode="&#x113;" horiz-adv-x="1275" d="M57 530q0 135 41 238.5t118 174.5t184.5 106.5t240.5 35.5q150 0 260.5 -45t182 -120.5t106.5 -177t35 -214.5v-61q0 -23 -16.5 -39t-39.5 -16h-610v-11q0 -61 17.5 -93t62.5 -32q18 0 30.5 10.5t28.5 26.5q18 18 30.5 23.5t37.5 5.5h387q20 0 33.5 -12.5t11.5 -32.5 q-2 -39 -36 -93t-101.5 -104.5t-172 -85t-245.5 -34.5q-135 0 -242.5 31.5t-184.5 99t-118 172t-41 247.5zM260 1266v213q0 20 13.5 33.5t34.5 13.5h669q20 0 33.5 -13.5t13.5 -33.5v-213q0 -20 -13 -33.5t-34 -13.5h-669q-20 0 -34 13t-14 34zM559 668h164 q0 70 -20.5 100.5t-61.5 30.5t-61.5 -31t-20.5 -100z" />
<glyph unicode="&#x114;" horiz-adv-x="1366" d="M113 55v1323q0 23 16 39.5t39 16.5h1051q23 0 39 -16.5t16 -39.5v-288q0 -23 -16.5 -39.5t-38.5 -16.5h-615v-129h570q23 0 39 -16.5t16 -38.5v-266q0 -23 -16.5 -39.5t-38.5 -16.5h-570v-129h631q23 0 39 -16t16 -39v-289q0 -23 -16.5 -39t-38.5 -16h-1067 q-23 0 -39 16.5t-16 38.5zM338 1845q0 16 10.5 27.5t28.5 11.5h203q18 0 28.5 -11t10.5 -28q0 -47 16.5 -79.5t65.5 -32.5t65.5 32.5t16.5 79.5q0 16 10 27.5t29 11.5h202q18 0 28.5 -11t10.5 -28q0 -70 -22.5 -128t-66.5 -101t-112.5 -66.5t-160.5 -23.5t-160.5 23.5 t-113 66.5t-67 101.5t-22.5 127.5z" />
<glyph unicode="&#x115;" horiz-adv-x="1275" d="M57 530q0 135 41 238.5t118 174.5t184.5 106.5t240.5 35.5q150 0 260.5 -45t182 -120.5t106.5 -177t35 -214.5v-61q0 -23 -16.5 -39t-39.5 -16h-610v-11q0 -61 17.5 -93t62.5 -32q18 0 30.5 10.5t28.5 26.5q18 18 30.5 23.5t37.5 5.5h387q20 0 33.5 -12.5t11.5 -32.5 q-2 -39 -36 -93t-101.5 -104.5t-172 -85t-245.5 -34.5q-135 0 -242.5 31.5t-184.5 99t-118 172t-41 247.5zM288 1528q0 16 10.5 27.5t28.5 11.5h193q18 0 28.5 -11.5t10.5 -27.5q0 -47 17.5 -80t64.5 -33t64.5 33t17.5 80q0 16 10 27.5t28 11.5h193q18 0 28.5 -11.5 t10.5 -27.5q0 -70 -23.5 -128.5t-68.5 -101.5t-110.5 -66.5t-149.5 -23.5t-149.5 23.5t-110.5 66.5t-69 101.5t-24 128.5zM559 668h164q0 70 -20.5 100.5t-61.5 30.5t-61.5 -31t-20.5 -100z" />
<glyph unicode="&#x116;" horiz-adv-x="1366" d="M113 55v1323q0 23 16 39.5t39 16.5h1051q23 0 39 -16.5t16 -39.5v-288q0 -23 -16.5 -39.5t-38.5 -16.5h-615v-129h570q23 0 39 -16.5t16 -38.5v-266q0 -23 -16.5 -39.5t-38.5 -16.5h-570v-129h631q23 0 39 -16t16 -39v-289q0 -23 -16.5 -39t-38.5 -16h-1067 q-23 0 -39 16.5t-16 38.5zM514 1583v279q0 20 13.5 33.5t34.5 13.5h278q20 0 33.5 -13.5t13.5 -33.5v-279q0 -20 -13 -33.5t-34 -13.5h-278q-20 0 -34 13.5t-14 33.5z" />
<glyph unicode="&#x117;" horiz-adv-x="1275" d="M57 530q0 135 41 238.5t118 174.5t184.5 106.5t240.5 35.5q150 0 260.5 -45t182 -120.5t106.5 -177t35 -214.5v-61q0 -23 -16.5 -39t-39.5 -16h-610v-11q0 -61 17.5 -93t62.5 -32q18 0 30.5 10.5t28.5 26.5q18 18 30.5 23.5t37.5 5.5h387q20 0 33.5 -12.5t11.5 -32.5 q-2 -39 -36 -93t-101.5 -104.5t-172 -85t-245.5 -34.5q-135 0 -242.5 31.5t-184.5 99t-118 172t-41 247.5zM460 1266v268q0 20 13.5 33.5t34.5 13.5h268q20 0 33.5 -13.5t13.5 -33.5v-268q0 -20 -13.5 -33.5t-33.5 -13.5h-268q-20 0 -34 13t-14 34zM559 668h164 q0 70 -20.5 100.5t-61.5 30.5t-61.5 -31t-20.5 -100z" />
<glyph unicode="&#x118;" horiz-adv-x="1366" d="M113 55v1323q0 23 16 39.5t39 16.5h1051q23 0 39 -16.5t16 -39.5v-288q0 -23 -16.5 -39.5t-38.5 -16.5h-615v-129h570q23 0 39 -16.5t16 -38.5v-266q0 -23 -16.5 -39.5t-38.5 -16.5h-570v-129h631q23 0 39 -16t16 -39v-289q0 -23 -16.5 -39t-38.5 -16h-21 q-59 0 -80.5 -34t-21.5 -66q0 -33 21.5 -67t80.5 -34h21q23 0 39 -16t16 -39v-139q0 -23 -16.5 -39.5t-38.5 -16.5h-29q-92 0 -158.5 28t-109.5 75t-63.5 110.5t-20.5 137.5q0 29 3 52t7 48h-696q-23 0 -39 16.5t-16 38.5z" />
<glyph unicode="&#x119;" horiz-adv-x="1275" d="M57 530q0 135 41 238.5t118 174.5t184.5 106.5t240.5 35.5q150 0 260.5 -45t182 -120.5t106.5 -177t35 -214.5v-61q0 -23 -16.5 -39t-39.5 -16h-610v-11q0 -61 17.5 -93t62.5 -32q18 0 30.5 10.5t28.5 26.5q18 18 30.5 23.5t37.5 5.5h387q20 0 33.5 -12.5t11.5 -32.5 q-2 -35 -27.5 -81t-78 -91t-130 -83t-184.5 -52q-66 -10 -92.5 -34t-26.5 -56q0 -33 21.5 -67t81.5 -34h20q23 0 39.5 -16t16.5 -39v-139q0 -23 -16.5 -39.5t-39.5 -16.5h-28q-92 0 -159 28t-110 75t-63.5 110.5t-20.5 137.5q0 57 13 106q-168 47 -262.5 175t-94.5 349z M559 668h164q0 70 -20.5 100.5t-61.5 30.5t-61.5 -31t-20.5 -100z" />
<glyph unicode="&#x11a;" horiz-adv-x="1366" d="M113 55v1323q0 23 16 39.5t39 16.5h1051q23 0 39 -16.5t16 -39.5v-288q0 -23 -16.5 -39.5t-38.5 -16.5h-615v-129h570q23 0 39 -16.5t16 -38.5v-266q0 -23 -16.5 -39.5t-38.5 -16.5h-570v-129h631q23 0 39 -16t16 -39v-289q0 -23 -16.5 -39t-38.5 -16h-1067 q-23 0 -39 16.5t-16 38.5zM252 1851q0 33 32 33h146q20 0 39.5 -2t42.5 -12l188 -86l189 86q23 10 42 12t40 2h145q33 0 33 -33q0 -16 -11 -26l-229 -250q-20 -23 -36.5 -31t-39.5 -8h-266q-23 0 -39 8t-37 31l-229 250q-10 10 -10 26z" />
<glyph unicode="&#x11b;" horiz-adv-x="1275" d="M57 530q0 135 41 238.5t118 174.5t184.5 106.5t240.5 35.5q150 0 260.5 -45t182 -120.5t106.5 -177t35 -214.5v-61q0 -23 -16.5 -39t-39.5 -16h-610v-11q0 -61 17.5 -93t62.5 -32q18 0 30.5 10.5t28.5 26.5q18 18 30.5 23.5t37.5 5.5h387q20 0 33.5 -12.5t11.5 -32.5 q-2 -39 -36 -93t-101.5 -104.5t-172 -85t-245.5 -34.5q-135 0 -242.5 31.5t-184.5 99t-118 172t-41 247.5zM202 1534q0 33 33 33h135q20 0 40 -2t42 -13l189 -86l188 86q23 10 42.5 12.5t39.5 2.5h135q33 0 33 -33q0 -16 -10 -27l-230 -250q-20 -23 -36.5 -30.5t-38.5 -7.5 h-246q-23 0 -39.5 8t-36.5 30l-229 250q-10 10 -11 27zM559 668h164q0 70 -20.5 100.5t-61.5 30.5t-61.5 -31t-20.5 -100z" />
<glyph unicode="&#x11c;" horiz-adv-x="1542" d="M72 725q0 98 4 186q6 135 57 237.5t141.5 170t215 101.5t276.5 34q162 0 292 -37t220 -99.5t140 -145t52 -175.5q0 -18 -13 -31.5t-32 -13.5h-452q-41 0 -60 23q-6 8 -15 21.5t-26.5 26.5t-43 22.5t-62.5 9.5q-152 0 -158 -154q-6 -170 0 -348q4 -92 47 -133t119 -41 q78 0 126 33.5t48 113.5h-96q-23 0 -39 16.5t-16 39.5v227q0 23 16 39t39 16h563q23 0 39 -16.5t16 -38.5v-266q0 -139 -52 -243.5t-145 -176.5t-222 -107.5t-285 -35.5t-281 34.5t-214 104t-139 175t-56 249.5q-4 84 -4 182zM322 1569q0 16 10 26l229 250q20 23 37 31t39 8 h266q23 0 39.5 -8t36.5 -31l229 -250q10 -10 11 -26q0 -33 -33 -33h-145q-20 0 -40 2t-42 12l-189 86l-188 -86q-23 -10 -42.5 -12t-39.5 -2h-146q-33 0 -32 33z" />
<glyph unicode="&#x11d;" horiz-adv-x="1363" d="M61 562.5q0 21.5 2 51.5q12 242 126 356.5t309 114.5q100 0 177 -38.5t126 -100.5v64q0 23 16.5 39t38.5 16h358q23 0 39.5 -16.5t16.5 -38.5l2 -975q0 -129 -45 -221.5t-124 -150.5t-184.5 -86t-226.5 -28q-174 0 -289.5 45.5t-185.5 105.5t-100.5 121.5t-32.5 94.5 q-2 23 15.5 39t39.5 16h400q23 0 35 -11t22 -30q14 -27 31.5 -39t54.5 -12q88 0 88 121v135q-47 -41 -114.5 -64.5t-157.5 -23.5q-96 0 -174 24.5t-133.5 79t-88.5 142.5t-39 217q-2 31 -2 52.5zM227 1251q0 16 11 27l229 250q20 23 36.5 31t39.5 8h246q23 0 39 -8.5 t36 -30.5l230 -250q10 -10 10 -27q0 -33 -33 -32h-135q-20 0 -39.5 2t-42.5 12l-188 86l-189 -86q-23 -10 -42 -12t-40 -2h-135q-33 0 -33 32zM563 561.5q0 -22.5 2 -39.5q4 -55 24.5 -87t78.5 -32q53 0 75.5 27t26.5 76q2 16 2 55t-2 55q-4 49 -26.5 76t-75.5 27 q-57 0 -78 -32t-25 -87q-2 -16 -2 -38.5z" />
<glyph unicode="&#x11e;" horiz-adv-x="1542" d="M72 725q0 98 4 186q6 135 57 237.5t141.5 170t215 101.5t276.5 34q162 0 292 -37t220 -99.5t140 -145t52 -175.5q0 -18 -13 -31.5t-32 -13.5h-452q-41 0 -60 23q-6 8 -15 21.5t-26.5 26.5t-43 22.5t-62.5 9.5q-152 0 -158 -154q-6 -170 0 -348q4 -92 47 -133t119 -41 q78 0 126 33.5t48 113.5h-96q-23 0 -39 16.5t-16 39.5v227q0 23 16 39t39 16h563q23 0 39 -16.5t16 -38.5v-266q0 -139 -52 -243.5t-145 -176.5t-222 -107.5t-285 -35.5t-281 34.5t-214 104t-139 175t-56 249.5q-4 84 -4 182zM407 1845q0 16 10.5 27.5t28.5 11.5h203 q18 0 28.5 -11t10.5 -28q0 -47 16.5 -79.5t65.5 -32.5t65.5 32.5t16.5 79.5q0 16 10 27.5t29 11.5h202q18 0 28.5 -11t10.5 -28q0 -70 -22.5 -128t-66.5 -101t-112.5 -66.5t-160.5 -23.5t-160.5 23.5t-113 66.5t-67 101.5t-22.5 127.5z" />
<glyph unicode="&#x11f;" horiz-adv-x="1363" d="M61 562.5q0 21.5 2 51.5q12 242 126 356.5t309 114.5q100 0 177 -38.5t126 -100.5v64q0 23 16.5 39t38.5 16h358q23 0 39.5 -16.5t16.5 -38.5l2 -975q0 -129 -45 -221.5t-124 -150.5t-184.5 -86t-226.5 -28q-174 0 -289.5 45.5t-185.5 105.5t-100.5 121.5t-32.5 94.5 q-2 23 15.5 39t39.5 16h400q23 0 35 -11t22 -30q14 -27 31.5 -39t54.5 -12q88 0 88 121v135q-47 -41 -114.5 -64.5t-157.5 -23.5q-96 0 -174 24.5t-133.5 79t-88.5 142.5t-39 217q-2 31 -2 52.5zM313 1528q0 16 10.5 27.5t28.5 11.5h193q18 0 28.5 -11.5t10.5 -27.5 q0 -47 17.5 -80t64.5 -33t64.5 33t17.5 80q0 16 10 27.5t28 11.5h193q18 0 28.5 -11.5t10.5 -27.5q0 -70 -23.5 -128.5t-68.5 -101.5t-110.5 -66.5t-149.5 -23.5t-149.5 23.5t-110.5 66.5t-69 101.5t-24 128.5zM563 561.5q0 -22.5 2 -39.5q4 -55 24.5 -87t78.5 -32 q53 0 75.5 27t26.5 76q2 16 2 55t-2 55q-4 49 -26.5 76t-75.5 27q-57 0 -78 -32t-25 -87q-2 -16 -2 -38.5z" />
<glyph unicode="&#x120;" horiz-adv-x="1542" d="M72 725q0 98 4 186q6 135 57 237.5t141.5 170t215 101.5t276.5 34q162 0 292 -37t220 -99.5t140 -145t52 -175.5q0 -18 -13 -31.5t-32 -13.5h-452q-41 0 -60 23q-6 8 -15 21.5t-26.5 26.5t-43 22.5t-62.5 9.5q-152 0 -158 -154q-6 -170 0 -348q4 -92 47 -133t119 -41 q78 0 126 33.5t48 113.5h-96q-23 0 -39 16.5t-16 39.5v227q0 23 16 39t39 16h563q23 0 39 -16.5t16 -38.5v-266q0 -139 -52 -243.5t-145 -176.5t-222 -107.5t-285 -35.5t-281 34.5t-214 104t-139 175t-56 249.5q-4 84 -4 182zM583 1583v279q0 20 13.5 33.5t34.5 13.5h278 q20 0 33.5 -13.5t13.5 -33.5v-279q0 -20 -13 -33.5t-34 -13.5h-278q-20 0 -34 13.5t-14 33.5z" />
<glyph unicode="&#x121;" horiz-adv-x="1363" d="M61 562.5q0 21.5 2 51.5q12 242 126 356.5t309 114.5q100 0 177 -38.5t126 -100.5v64q0 23 16.5 39t38.5 16h358q23 0 39.5 -16.5t16.5 -38.5l2 -975q0 -129 -45 -221.5t-124 -150.5t-184.5 -86t-226.5 -28q-174 0 -289.5 45.5t-185.5 105.5t-100.5 121.5t-32.5 94.5 q-2 23 15.5 39t39.5 16h400q23 0 35 -11t22 -30q14 -27 31.5 -39t54.5 -12q88 0 88 121v135q-47 -41 -114.5 -64.5t-157.5 -23.5q-96 0 -174 24.5t-133.5 79t-88.5 142.5t-39 217q-2 31 -2 52.5zM485 1266v268q0 20 13.5 33.5t34.5 13.5h268q20 0 33.5 -13.5t13.5 -33.5 v-268q0 -20 -13.5 -33.5t-33.5 -13.5h-268q-20 0 -34 13t-14 34zM563 561.5q0 -22.5 2 -39.5q4 -55 24.5 -87t78.5 -32q53 0 75.5 27t26.5 76q2 16 2 55t-2 55q-4 49 -26.5 76t-75.5 27q-57 0 -78 -32t-25 -87q-2 -16 -2 -38.5z" />
<glyph unicode="&#x122;" horiz-adv-x="1542" d="M72 725q0 98 4 186q6 135 57 237.5t141.5 170t215 101.5t276.5 34q162 0 292 -37t220 -99.5t140 -145t52 -175.5q0 -18 -13 -31.5t-32 -13.5h-452q-41 0 -60 23q-6 8 -15 21.5t-26.5 26.5t-43 22.5t-62.5 9.5q-152 0 -158 -154q-6 -170 0 -348q4 -92 47 -133t119 -41 q78 0 126 33.5t48 113.5h-96q-23 0 -39 16.5t-16 39.5v227q0 23 16 39t39 16h563q23 0 39 -16.5t16 -38.5v-266q0 -139 -52 -243.5t-145 -176.5t-222 -107.5t-285 -35.5t-281 34.5t-214 104t-139 175t-56 249.5q-4 84 -4 182zM499 -463l43 281q4 29 26 54.5t62 25.5h310 q18 0 31.5 -13.5t13.5 -31.5q0 -8 -2 -15l-113 -284q-8 -20 -27.5 -43t-60.5 -23h-238q-18 0 -31.5 13.5t-13.5 31.5v4z" />
<glyph unicode="&#x123;" horiz-adv-x="1363" d="M61 562.5q0 21.5 2 51.5q12 242 126 356.5t309 114.5q100 0 177 -38.5t126 -100.5v64q0 23 16.5 39t38.5 16h358q23 0 39.5 -16.5t16.5 -38.5l2 -975q0 -129 -45 -221.5t-124 -150.5t-184.5 -86t-226.5 -28q-174 0 -289.5 45.5t-185.5 105.5t-100.5 121.5t-32.5 94.5 q-2 23 15.5 39t39.5 16h400q23 0 35 -11t22 -30q14 -27 31.5 -39t54.5 -12q88 0 88 121v135q-47 -41 -114.5 -64.5t-157.5 -23.5q-96 0 -174 24.5t-133.5 79t-88.5 142.5t-39 217q-2 31 -2 52.5zM502 1263q0 8 2 15l112 284q8 20 28 43t61 23h215q18 0 31.5 -13.5 t13.5 -31.5v-4l-43 -281q-4 -29 -26 -54.5t-62 -25.5h-287q-18 0 -31.5 13.5t-13.5 31.5zM563 561.5q0 -22.5 2 -39.5q4 -55 24.5 -87t78.5 -32q53 0 75.5 27t26.5 76q2 16 2 55t-2 55q-4 49 -26.5 76t-75.5 27q-57 0 -78 -32t-25 -87q-2 -16 -2 -38.5z" />
<glyph unicode="&#x124;" horiz-adv-x="1581" d="M113 55v1323q0 23 16 39.5t39 16.5h401q23 0 39.5 -16.5t16.5 -39.5v-430h331v430q0 23 16.5 39.5t39.5 16.5h401q23 0 39 -16.5t16 -39.5v-1323q0 -23 -16 -39t-39 -16h-401q-23 0 -39.5 16.5t-16.5 38.5v443h-331v-443q0 -23 -16.5 -39t-39.5 -16h-401q-23 0 -39 15.5 t-16 39.5zM342 1569q0 16 10 26l229 250q20 23 37 31t39 8h266q23 0 39.5 -8t36.5 -31l229 -250q10 -10 11 -26q0 -33 -33 -33h-145q-20 0 -40 2t-42 12l-189 86l-188 -86q-23 -10 -42.5 -12t-39.5 -2h-146q-33 0 -32 33z" />
<glyph unicode="&#x125;" horiz-adv-x="1402" d="M92 55v1344q0 23 16.5 39t38.5 16h400q23 0 39 -16.5t16 -38.5v-441q53 59 134 93t177 34q78 0 152 -27.5t130 -83.5t91 -144.5t35 -208.5v-566q0 -23 -16.5 -39t-38.5 -16h-402q-23 0 -39 16.5t-16 38.5v551q0 113 -102 113q-49 0 -77 -28.5t-28 -84.5v-551 q0 -23 -16.5 -39t-38.5 -16h-400q-23 0 -39 16.5t-16 38.5zM268 1568q0 16 11 27l229 250q20 23 36.5 31t39.5 8h246q23 0 39 -8.5t36 -30.5l230 -250q10 -10 10 -27q0 -33 -33 -32h-135q-20 0 -39.5 2t-42.5 12l-188 86l-189 -86q-23 -10 -42 -12t-40 -2h-135q-33 0 -33 32 z" />
<glyph unicode="&#x126;" horiz-adv-x="1581" d="M113 55v1323q0 23 16 39.5t39 16.5h401q23 0 39.5 -16.5t16.5 -39.5v-59h331v59q0 23 16.5 39.5t39.5 16.5h401q23 0 39 -16.5t16 -39.5v-1323q0 -23 -16 -39t-39 -16h-401q-23 0 -39.5 16.5t-16.5 38.5v443h-331v-443q0 -23 -16.5 -39t-39.5 -16h-401q-23 0 -39 15.5 t-16 39.5zM625 948h331v115h-331v-115z" />
<glyph unicode="&#x127;" horiz-adv-x="1404" d="M-14 1157v105q0 23 16 39t39 16h53v82q0 23 16.5 39t39.5 16h399q23 0 39 -16.5t16 -38.5v-82h49q23 0 39.5 -16.5t16.5 -38.5v-105q0 -23 -16.5 -39t-39.5 -16h-49v-144q53 59 134 93t177 34q78 0 152 -27.5t130 -83.5t91 -144.5t35 -208.5v-564q0 -23 -16.5 -39 t-38.5 -16h-402q-23 0 -39 16.5t-16 38.5v549q0 113 -102 113q-49 0 -77 -28.5t-28 -84.5v-551q0 -23 -16.5 -39t-38.5 -16h-399q-23 0 -39.5 16.5t-16.5 38.5v1047h-53q-23 0 -39 16.5t-16 38.5z" />
<glyph unicode="&#x128;" horiz-adv-x="753" d="M-39 1573q0 35 12.5 90t43 106.5t85 88t138.5 36.5q45 0 78 -11t59.5 -25.5t50 -25.5t54.5 -11q23 0 35 10t21 21.5t19.5 21.5t26.5 10h172q18 0 28.5 -11t10.5 -28q0 -35 -12.5 -89t-43 -105.5t-85 -88t-138.5 -36.5q-47 0 -78.5 11t-58 25.5t-50.5 25.5t-54 11 q-25 0 -37 -10t-21.5 -21.5t-18.5 -21.5t-26 -10h-172q-16 0 -27.5 10t-11.5 27zM113 55v1323q0 23 16 39.5t39 16.5h418q23 0 39 -16.5t16 -39.5v-1323q0 -23 -16.5 -39t-38.5 -16h-418q-23 0 -39 16.5t-16 38.5z" />
<glyph unicode="&#x129;" horiz-adv-x="661" d="M-86 1255q0 35 12.5 90.5t43 106.5t85 88t138.5 37q45 0 78 -11.5t59.5 -25.5t50 -25.5t54.5 -11.5q23 0 35 10.5t21 21.5t19.5 21.5t26.5 10.5h172q18 0 28.5 -11.5t10.5 -27.5q0 -35 -12.5 -89.5t-43 -105.5t-85 -88t-138.5 -37q-47 0 -78.5 11.5t-58 26t-50.5 25.5 t-54 11q-25 0 -37 -10t-21.5 -21.5t-18.5 -21.5t-26 -10h-172q-16 0 -27.5 10t-11.5 26zM92 55v955q0 23 16.5 39t38.5 16h367q23 0 39 -16.5t16 -38.5v-955q0 -23 -16 -39t-39 -16h-367q-23 0 -39 16.5t-16 38.5z" />
<glyph unicode="&#x12a;" horiz-adv-x="753" d="M-56 1583v213q0 20 13.5 33.5t34.5 13.5h772q20 0 33.5 -13t13.5 -34v-213q0 -20 -13.5 -33.5t-33.5 -13.5h-772q-20 0 -34 13.5t-14 33.5zM113 55v1323q0 23 16 39.5t39 16.5h418q23 0 39 -16.5t16 -39.5v-1323q0 -23 -16.5 -39t-38.5 -16h-418q-23 0 -39 16.5t-16 38.5 z" />
<glyph unicode="&#x12b;" horiz-adv-x="661" d="M-52 1266v213q0 20 13.5 33.5t34.5 13.5h669q20 0 33.5 -13.5t13.5 -33.5v-213q0 -20 -13 -33.5t-34 -13.5h-669q-20 0 -34 13t-14 34zM92 55v955q0 23 16.5 39t38.5 16h367q23 0 39 -16.5t16 -38.5v-955q0 -23 -16 -39t-39 -16h-367q-23 0 -39 16.5t-16 38.5z" />
<glyph unicode="&#x12c;" horiz-adv-x="753" d="M14 1845q0 16 10.5 27.5t28.5 11.5h203q18 0 28.5 -11t10.5 -28q0 -47 16.5 -79.5t65.5 -32.5t65.5 32.5t16.5 79.5q0 16 10 27.5t29 11.5h202q18 0 28.5 -11t10.5 -28q0 -70 -22.5 -128t-66.5 -101t-112.5 -66.5t-160.5 -23.5t-160.5 23.5t-113 66.5t-67 101.5 t-22.5 127.5zM113 55v1323q0 23 16 39.5t39 16.5h418q23 0 39 -16.5t16 -39.5v-1323q0 -23 -16.5 -39t-38.5 -16h-418q-23 0 -39 16.5t-16 38.5z" />
<glyph unicode="&#x12d;" horiz-adv-x="661" d="M-23 1528q0 16 10.5 27.5t28.5 11.5h193q18 0 28.5 -11.5t10.5 -27.5q0 -47 17.5 -80t64.5 -33t64.5 33t17.5 80q0 16 10 27.5t28 11.5h193q18 0 28.5 -11.5t10.5 -27.5q0 -70 -23.5 -128.5t-68.5 -101.5t-110.5 -66.5t-149.5 -23.5t-149.5 23.5t-110.5 66.5t-69 101.5 t-24 128.5zM92 55v955q0 23 16.5 39t38.5 16h367q23 0 39 -16.5t16 -38.5v-955q0 -23 -16 -39t-39 -16h-367q-23 0 -39 16.5t-16 38.5z" />
<glyph unicode="&#x12e;" horiz-adv-x="753" d="M113 55v1323q0 23 16 39.5t39 16.5h418q23 0 39 -16.5t16 -39.5v-1323q0 -23 -16.5 -39t-38.5 -16h-21q-59 0 -80.5 -35t-21.5 -67q0 -33 21.5 -68t80.5 -35h21q23 0 39 -16.5t16 -38.5v-139q0 -23 -16.5 -39.5t-38.5 -16.5h-29q-92 0 -158.5 28t-109.5 76t-63.5 111.5 t-20.5 137.5q0 29 3 53t7 49h-47q-23 0 -39 16.5t-16 38.5z" />
<glyph unicode="&#x12f;" horiz-adv-x="661" d="M92 55v955q0 23 16.5 39t38.5 16h367q23 0 39 -16.5t16 -38.5v-955q0 -23 -16 -39t-39 -16h-20q-59 0 -81 -24.5t-22 -57.5t21.5 -57.5t81.5 -24.5h20q23 0 39 -16.5t16 -38.5v-119q0 -23 -16 -39t-39 -16h-29q-86 0 -148.5 24.5t-103 66.5t-60 98.5t-19.5 121.5 q0 23 2 43.5t6 38.5h-15q-23 0 -39 16.5t-16 38.5zM102 1233v248q0 23 16.5 39t39.5 16h346q23 0 39 -16.5t16 -38.5v-248q0 -23 -16.5 -39t-38.5 -16h-346q-23 0 -39.5 16t-16.5 39z" />
<glyph unicode="&#x130;" horiz-adv-x="753" d="M113 55v1323q0 23 16 39.5t39 16.5h418q23 0 39 -16.5t16 -39.5v-1323q0 -23 -16.5 -39t-38.5 -16h-418q-23 0 -39 16.5t-16 38.5zM190 1583v279q0 20 13.5 33.5t34.5 13.5h278q20 0 33.5 -13.5t13.5 -33.5v-279q0 -20 -13 -33.5t-34 -13.5h-278q-20 0 -34 13.5t-14 33.5 z" />
<glyph unicode="&#x131;" horiz-adv-x="661" d="M92 55v955q0 23 16.5 39t38.5 16h367q23 0 39 -16.5t16 -38.5v-955q0 -23 -16 -39t-39 -16h-367q-23 0 -39 16.5t-16 38.5z" />
<glyph unicode="&#x132;" horiz-adv-x="1652" d="M113 55v1323q0 23 16 39.5t39 16.5h418q23 0 39 -16.5t16 -39.5v-1323q0 -23 -16.5 -39t-38.5 -16h-418q-23 0 -39 16.5t-16 38.5zM805 35v330q0 23 16.5 39t38.5 16q86 0 124 41t38 149v768q0 23 16.5 39.5t38.5 16.5h420q23 0 39 -16.5t16 -39.5v-850q0 -164 -48 -270 t-138 -167.5t-218 -86t-288 -24.5q-23 0 -39 16t-16 39z" />
<glyph unicode="&#x133;" horiz-adv-x="1368" d="M92 55v955q0 23 16.5 39t38.5 16h367q23 0 39 -16.5t16 -38.5v-955q0 -23 -16 -39t-39 -16h-367q-23 0 -39 16.5t-16 38.5zM102 1233v248q0 23 16.5 39t39.5 16h346q23 0 39 -16.5t16 -38.5v-248q0 -23 -16.5 -39t-38.5 -16h-346q-23 0 -39.5 16t-16.5 39zM519 -86 q0 23 16 39t39 16h119q47 0 67.5 28t20.5 75v938q0 23 16.5 39t38.5 16h385q23 0 39 -16.5t16 -38.5v-951q0 -115 -39.5 -199.5t-109.5 -140t-166 -82t-207 -26.5h-180q-23 0 -39 16.5t-16 38.5v248zM791 1233v248q0 23 16.5 39t38.5 16h365q23 0 39 -16.5t16 -38.5v-248 q0 -23 -16.5 -39t-38.5 -16h-365q-23 0 -39 16t-16 39z" />
<glyph unicode="&#x134;" horiz-adv-x="1437" d="M20 481q0 18 13.5 31.5t32.5 13.5h417q35 0 51.5 -15t32.5 -50q20 -41 44 -61.5t75 -20.5q55 0 88 36t33 130v473h-608q-23 0 -39.5 16.5t-16.5 38.5v305q0 23 16.5 39.5t39.5 16.5h1083q23 0 39 -16.5t16 -39.5v-850q0 -141 -52 -244.5t-142 -171t-212 -100t-261 -32.5 q-127 0 -244 32.5t-206 97t-143 157.5t-57 214zM312 1569q0 16 10 26l229 250q20 23 37 31t39 8h266q23 0 39.5 -8t36.5 -31l229 -250q10 -10 11 -26q0 -33 -33 -33h-145q-20 0 -40 2t-42 12l-189 86l-188 -86q-23 -10 -42.5 -12t-39.5 -2h-146q-33 0 -32 33z" />
<glyph unicode="&#x135;" horiz-adv-x="987" d="M45 -14q0 23 16.5 39t38.5 16h207q47 0 67.5 27.5t20.5 74.5v547h-289q-23 0 -39 16.5t-16 38.5v265q0 23 16.5 39t38.5 16h734q23 0 39 -16.5t16 -38.5v-867q0 -127 -40 -225t-109.5 -166.5t-166 -104.5t-206.5 -36h-273q-23 0 -39 16.5t-16 38.5v320zM49 1251 q0 16 11 27l229 250q20 23 36.5 31t39.5 8h246q23 0 39 -8.5t36 -30.5l230 -250q10 -10 10 -27q0 -33 -33 -32h-135q-20 0 -39.5 2t-42.5 12l-188 86l-189 -86q-23 -10 -42 -12t-40 -2h-135q-33 0 -33 32z" />
<glyph unicode="&#x136;" horiz-adv-x="1464" d="M113 55v1323q0 23 16 39.5t39 16.5h391q23 0 39 -16.5t16 -39.5v-405l232 416q10 16 28.5 30.5t53.5 14.5h452q18 0 31.5 -13.5t13.5 -31.5q0 -14 -6 -23l-368 -618l403 -680q6 -10 6 -23q0 -18 -13 -31.5t-32 -13.5h-467q-41 0 -60.5 18.5t-23.5 28.5l-250 447v-439 q0 -23 -16 -39t-39 -16h-391q-23 0 -39 16.5t-16 38.5zM473 -463l43 281q4 29 26 54.5t62 25.5h310q18 0 31.5 -13.5t13.5 -31.5q0 -8 -2 -15l-113 -284q-8 -20 -27.5 -43t-60.5 -23h-238q-18 0 -31.5 13.5t-13.5 31.5v4z" />
<glyph unicode="&#x137;" horiz-adv-x="1316" d="M92 55v1344q0 23 16.5 39t38.5 16h359q23 0 39 -16.5t16 -38.5v-664l180 295q4 8 17.5 21.5t42.5 13.5h413q20 0 35 -14.5t15 -34.5q0 -10 -3.5 -18.5t-7.5 -12.5l-280 -399l332 -510q8 -12 8 -27q0 -20 -14.5 -34.5t-34.5 -14.5h-430q-31 0 -45.5 15.5t-18.5 19.5 l-209 348v-328q0 -23 -16.5 -39t-38.5 -16h-359q-23 0 -39 16.5t-16 38.5zM378 -463l43 281q4 29 26 54.5t62 25.5h287q18 0 31.5 -13.5t13.5 -31.5q0 -8 -2 -15l-112 -284q-8 -20 -28 -43t-61 -23h-215q-18 0 -31.5 13.5t-13.5 31.5v4z" />
<glyph unicode="&#x138;" horiz-adv-x="1316" d="M92 55v955q0 23 16.5 39t38.5 16h359q23 0 39 -16.5t16 -38.5v-336l201 356q4 8 17.5 21.5t41.5 13.5h393q20 0 35 -14.5t15 -34.5q0 -10 -3.5 -18.5t-7.5 -12.5l-260 -440l312 -469q8 -12 8 -27q0 -20 -14.5 -34.5t-34.5 -14.5h-430q-31 0 -45.5 15.5t-18.5 19.5 l-209 348v-328q0 -23 -16.5 -39t-38.5 -16h-359q-23 0 -39 16.5t-16 38.5z" />
<glyph unicode="&#x139;" horiz-adv-x="1282" d="M113 55v1323q0 23 16 39.5t39 16.5h410q23 0 39 -16.5t16 -39.5v-958h567q23 0 39 -16.5t16 -38.5v-310q0 -23 -16 -39t-39 -16h-1032q-23 0 -39 16.5t-16 38.5zM161 1569q0 16 11 26l204 250q23 27 38.5 33t37.5 6h402q39 0 39 -41q0 -14 -11 -24l-301 -248 q-16 -14 -34.5 -24.5t-51.5 -10.5h-301q-33 0 -33 33z" />
<glyph unicode="&#x13a;" horiz-adv-x="661" d="M92 55v1344q0 23 16.5 39t38.5 16h367q23 0 39 -16.5t16 -38.5v-1344q0 -23 -16 -39t-39 -16h-367q-23 0 -39 16.5t-16 38.5zM157 1568q0 16 11 27l204 250q23 27 38.5 33t37.5 6h381q39 0 39 -41q0 -14 -10 -25l-301 -248q-16 -14 -34.5 -24t-51.5 -10h-281 q-33 0 -33 32z" />
<glyph unicode="&#x13b;" horiz-adv-x="1282" d="M113 55v1323q0 23 16 39.5t39 16.5h410q23 0 39 -16.5t16 -39.5v-958h567q23 0 39 -16.5t16 -38.5v-310q0 -23 -16 -39t-39 -16h-1032q-23 0 -39 16.5t-16 38.5zM370 -463l43 281q4 29 26 54.5t62 25.5h310q18 0 31.5 -13.5t13.5 -31.5q0 -8 -2 -15l-113 -284 q-8 -20 -27.5 -43t-60.5 -23h-238q-18 0 -31.5 13.5t-13.5 31.5v4z" />
<glyph unicode="&#x13c;" horiz-adv-x="661" d="M65 -463l43 281q4 29 26 54.5t62 25.5h287q18 0 31.5 -13.5t13.5 -31.5q0 -8 -2 -15l-112 -284q-8 -20 -28 -43t-61 -23h-215q-18 0 -31.5 13.5t-13.5 31.5v4zM92 55v1344q0 23 16.5 39t38.5 16h367q23 0 39 -16.5t16 -38.5v-1344q0 -23 -16 -39t-39 -16h-367 q-23 0 -39 16.5t-16 38.5z" />
<glyph unicode="&#x13d;" horiz-adv-x="1294" d="M113 55v1323q0 23 16 39.5t39 16.5h410q23 0 39 -16.5t16 -39.5v-958h567q23 0 39 -16.5t16 -38.5v-310q0 -23 -16 -39t-39 -16h-1032q-23 0 -39 16.5t-16 38.5zM762 1090v4l43 280q4 29 25.5 54.5t62.5 25.5h309q18 0 31.5 -13.5t13.5 -31.5q0 -8 -2 -14l-112 -285 q-8 -20 -28 -43t-61 -23h-237q-18 0 -31.5 13.5t-13.5 32.5z" />
<glyph unicode="&#x13e;" horiz-adv-x="937" d="M92 55v1344q0 23 16.5 39t38.5 16h367q23 0 39 -16.5t16 -38.5v-1344q0 -23 -16 -39t-39 -16h-367q-23 0 -39 16.5t-16 38.5zM669 1089v4l43 281q4 29 26 54.5t62 25.5h287q18 0 31.5 -13.5t13.5 -31.5q0 -8 -2 -15l-112 -284q-8 -20 -28 -43t-61 -23h-215 q-18 0 -31.5 13.5t-13.5 31.5z" />
<glyph unicode="&#x13f;" horiz-adv-x="1284" d="M113 55v1323q0 23 16 39.5t39 16.5h410q23 0 39 -16.5t16 -39.5v-958h567q23 0 39 -16.5t16 -38.5v-310q0 -23 -16 -39t-39 -16h-1032q-23 0 -39 16.5t-16 38.5zM748 680v278q0 20 13 34t34 14h278q20 0 33.5 -13.5t13.5 -34.5v-278q0 -20 -13 -33.5t-34 -13.5h-278 q-20 0 -33.5 13t-13.5 34z" />
<glyph unicode="&#x140;" horiz-adv-x="1044" d="M92 55v1344q0 23 16.5 39t38.5 16h367q23 0 39 -16.5t16 -38.5v-1344q0 -23 -16 -39t-39 -16h-367q-23 0 -39 16.5t-16 38.5zM672 604v268q0 20 13 34t34 14h268q20 0 33.5 -13.5t13.5 -34.5v-268q0 -20 -13 -33.5t-34 -13.5h-268q-20 0 -33.5 13.5t-13.5 33.5z" />
<glyph unicode="&#x141;" horiz-adv-x="1298" d="M27 483v222q0 51 45 67l57 23v583q0 23 16.5 39.5t38.5 16.5h410q23 0 39 -16.5t16 -39.5v-379l297 117q14 6 23 6q18 0 30.5 -12t12.5 -31v-221q0 -51 -45 -67l-318 -125v-246h568q23 0 39 -16.5t16 -38.5v-310q0 -23 -16.5 -39t-38.5 -16h-1033q-23 0 -39 16.5 t-16 38.5v406l-37 -15q-16 -6 -22 -6q-18 0 -30.5 12.5t-12.5 30.5z" />
<glyph unicode="&#x142;" horiz-adv-x="819" d="M49 483v222q0 51 45 67l78 29v598q0 23 16.5 39t38.5 16h367q23 0 39 -16.5t16 -38.5v-412l58 23q14 6 22 6q18 0 30.5 -12.5t12.5 -30.5v-221q0 -51 -45 -68l-78 -31v-598q0 -23 -16.5 -39t-38.5 -16h-367q-23 0 -39 16.5t-16 38.5v414l-57 -23q-16 -6 -23 -6 q-18 0 -30.5 12.5t-12.5 30.5z" />
<glyph unicode="&#x143;" horiz-adv-x="1515" d="M113 55v1323q0 23 16 39.5t39 16.5h324q41 0 59 -18.5t24 -29.5l347 -567v559q0 23 16 39.5t39 16.5h371q23 0 39 -16.5t16 -39.5v-1323q0 -23 -16.5 -39t-38.5 -16h-324q-41 0 -59.5 18.5t-24.5 28.5l-346 522v-514q0 -23 -16.5 -39t-38.5 -16h-371q-23 0 -39 16.5 t-16 38.5zM551 1569q0 16 11 26l204 250q23 27 38.5 33t37.5 6h402q39 0 39 -41q0 -14 -11 -24l-301 -248q-16 -14 -34.5 -24.5t-51.5 -10.5h-301q-33 0 -33 33z" />
<glyph unicode="&#x144;" d="M92 55v955q0 23 16.5 39t38.5 16h359q23 0 39 -16.5t16 -38.5v-68q51 59 140.5 101t199.5 42q78 0 149.5 -27.5t127 -83.5t88 -144.5t32.5 -208.5v-566q0 -23 -16 -39t-39 -16h-391q-23 0 -39 16.5t-16 38.5v551q0 113 -103 113q-102 0 -102 -113v-551q0 -23 -16.5 -39 t-38.5 -16h-390q-23 0 -39 16.5t-16 38.5zM495 1251q0 16 11 27l204 250q23 27 38.5 33t37.5 6h381q39 0 39 -41q0 -14 -10 -25l-301 -248q-16 -14 -34.5 -24t-51.5 -10h-281q-33 0 -33 32z" />
<glyph unicode="&#x145;" horiz-adv-x="1515" d="M113 55v1323q0 23 16 39.5t39 16.5h324q41 0 59 -18.5t24 -29.5l347 -567v559q0 23 16 39.5t39 16.5h371q23 0 39 -16.5t16 -39.5v-1323q0 -23 -16.5 -39t-38.5 -16h-324q-41 0 -59.5 18.5t-24.5 28.5l-346 522v-514q0 -23 -16.5 -39t-38.5 -16h-371q-23 0 -39 16.5 t-16 38.5zM493 -463l43 281q4 29 26 54.5t62 25.5h310q18 0 31.5 -13.5t13.5 -31.5q0 -8 -2 -15l-113 -284q-8 -20 -27.5 -43t-60.5 -23h-238q-18 0 -31.5 13.5t-13.5 31.5v4z" />
<glyph unicode="&#x146;" d="M92 55v955q0 23 16.5 39t38.5 16h359q23 0 39 -16.5t16 -38.5v-68q51 59 140.5 101t199.5 42q78 0 149.5 -27.5t127 -83.5t88 -144.5t32.5 -208.5v-566q0 -23 -16 -39t-39 -16h-391q-23 0 -39 16.5t-16 38.5v551q0 113 -103 113q-102 0 -102 -113v-551q0 -23 -16.5 -39 t-38.5 -16h-390q-23 0 -39 16.5t-16 38.5zM444 -463l43 281q4 29 26 54.5t62 25.5h287q18 0 31.5 -13.5t13.5 -31.5q0 -8 -2 -15l-112 -284q-8 -20 -28 -43t-61 -23h-215q-18 0 -31.5 13.5t-13.5 31.5v4z" />
<glyph unicode="&#x147;" horiz-adv-x="1515" d="M113 55v1323q0 23 16 39.5t39 16.5h324q41 0 59 -18.5t24 -29.5l347 -567v559q0 23 16 39.5t39 16.5h371q23 0 39 -16.5t16 -39.5v-1323q0 -23 -16.5 -39t-38.5 -16h-324q-41 0 -59.5 18.5t-24.5 28.5l-346 522v-514q0 -23 -16.5 -39t-38.5 -16h-371q-23 0 -39 16.5 t-16 38.5zM310 1851q0 33 32 33h146q20 0 39.5 -2t42.5 -12l188 -86l189 86q23 10 42 12t40 2h145q33 0 33 -33q0 -16 -11 -26l-229 -250q-20 -23 -36.5 -31t-39.5 -8h-266q-23 0 -39 8t-37 31l-229 250q-10 10 -10 26z" />
<glyph unicode="&#x148;" d="M92 55v955q0 23 16.5 39t38.5 16h359q23 0 39 -16.5t16 -38.5v-68q51 59 140.5 101t199.5 42q78 0 149.5 -27.5t127 -83.5t88 -144.5t32.5 -208.5v-566q0 -23 -16 -39t-39 -16h-391q-23 0 -39 16.5t-16 38.5v551q0 113 -103 113q-102 0 -102 -113v-551q0 -23 -16.5 -39 t-38.5 -16h-390q-23 0 -39 16.5t-16 38.5zM256 1534q0 33 33 33h135q20 0 40 -2t42 -13l189 -86l188 86q23 10 42.5 12.5t39.5 2.5h135q33 0 33 -33q0 -16 -10 -27l-230 -250q-20 -23 -36.5 -30.5t-38.5 -7.5h-246q-23 0 -39.5 8t-36.5 30l-229 250q-10 10 -11 27z" />
<glyph unicode="&#x149;" d="M92 55v955q0 23 16.5 39t38.5 16h359q23 0 39 -16.5t16 -38.5v-68q51 59 140.5 101t199.5 42q78 0 149.5 -27.5t127 -83.5t88 -144.5t32.5 -208.5v-566q0 -23 -16 -39t-39 -16h-391q-23 0 -39 16.5t-16 38.5v551q0 113 -103 113q-102 0 -102 -113v-551q0 -23 -16.5 -39 t-38.5 -16h-390q-23 0 -39 16.5t-16 38.5zM172 1264v4l43 281q4 29 26 54.5t62 25.5h287q18 0 31.5 -13.5t13.5 -31.5q0 -8 -2 -15l-112 -284q-8 -20 -28 -43t-61 -23h-215q-18 0 -31.5 13.5t-13.5 31.5z" />
<glyph unicode="&#x14a;" horiz-adv-x="1515" d="M113 55v1323q0 23 16 39.5t39 16.5h324q41 0 59 -18.5t24 -29.5l347 -567v559q0 23 16 39.5t39 16.5h371q23 0 39 -16.5t16 -39.5v-1325q0 -131 -52.5 -228t-142.5 -160.5t-212 -94.5t-261 -31h-33q-23 0 -39 16.5t-16 38.5v306q0 23 16.5 39t38.5 16h82q66 0 102 32.5 t36 86.5l-328 495v-514q0 -23 -16.5 -39t-38.5 -16h-371q-23 0 -39 16.5t-16 38.5z" />
<glyph unicode="&#x14b;" d="M92 55v955q0 23 16.5 39t38.5 16h359q23 0 39 -16.5t16 -38.5v-68q51 59 140.5 101t199.5 42q78 0 149.5 -27.5t127 -83.5t88 -144.5t32.5 -208.5v-523q0 -145 -50 -250.5t-139 -174t-210 -101.5t-260 -33h-59q-23 0 -39.5 16.5t-16.5 38.5v306q0 23 16.5 39t39.5 16h79 q66 0 102 36t36 130v485q0 113 -103 113q-102 0 -102 -113v-551q0 -23 -16.5 -39t-38.5 -16h-390q-23 0 -39 16.5t-16 38.5z" />
<glyph unicode="&#x14c;" horiz-adv-x="1519" d="M72 710.5q0 94.5 4 182.5q6 135 57 239.5t140 176t212 108.5t275 37q150 0 273.5 -37t212.5 -108.5t140.5 -176t57.5 -239.5q4 -88 4 -182.5t-4 -178.5q-6 -137 -57.5 -240.5t-140.5 -173t-213 -104t-273 -34.5q-152 0 -275 34.5t-212 104t-140 173t-57 240.5 q-4 84 -4 178.5zM327 1583v213q0 20 13.5 33.5t34.5 13.5h772q20 0 33.5 -13t13.5 -34v-213q0 -20 -13.5 -33.5t-33.5 -13.5h-772q-20 0 -34 13.5t-14 33.5zM608 545q4 -86 44 -126t108 -40t107.5 40t43.5 126q6 174 0 344q-4 86 -45 126t-106 40q-66 0 -107 -40t-45 -126 q-6 -170 0 -344z" />
<glyph unicode="&#x14d;" horiz-adv-x="1314" d="M63 436q-6 96 0 193q16 227 171 341.5t423 114.5t423 -114.5t171 -341.5q6 -96 0 -193q-31 -457 -594 -456q-563 0 -594 456zM276 1266v213q0 20 13.5 33.5t34.5 13.5h669q20 0 33.5 -13.5t13.5 -33.5v-213q0 -20 -13 -33.5t-34 -13.5h-669q-20 0 -34 13t-14 34z M563 532.5q0 -24.5 1 -48t1 -38.5q2 -37 6 -62.5t13.5 -42.5t27 -25.5t45.5 -8.5q57 0 72.5 34t20.5 105q0 14 1 38t1 48.5t-1 47t-1 38.5q-4 68 -19.5 104t-73.5 36q-29 0 -46 -9.5t-26.5 -26.5t-13.5 -44t-6 -60q0 -16 -1 -38.5t-1 -47z" />
<glyph unicode="&#x14e;" horiz-adv-x="1519" d="M72 710.5q0 94.5 4 182.5q6 135 57 239.5t140 176t212 108.5t275 37q150 0 273.5 -37t212.5 -108.5t140.5 -176t57.5 -239.5q4 -88 4 -182.5t-4 -178.5q-6 -137 -57.5 -240.5t-140.5 -173t-213 -104t-273 -34.5q-152 0 -275 34.5t-212 104t-140 173t-57 240.5 q-4 84 -4 178.5zM397 1845q0 16 10.5 27.5t28.5 11.5h203q18 0 28.5 -11t10.5 -28q0 -47 16.5 -79.5t65.5 -32.5t65.5 32.5t16.5 79.5q0 16 10 27.5t29 11.5h202q18 0 28.5 -11t10.5 -28q0 -70 -22.5 -128t-66.5 -101t-112.5 -66.5t-160.5 -23.5t-160.5 23.5t-113 66.5 t-67 101.5t-22.5 127.5zM608 545q4 -86 44 -126t108 -40t107.5 40t43.5 126q6 174 0 344q-4 86 -45 126t-106 40q-66 0 -107 -40t-45 -126q-6 -170 0 -344z" />
<glyph unicode="&#x14f;" horiz-adv-x="1314" d="M63 436q-6 96 0 193q16 227 171 341.5t423 114.5t423 -114.5t171 -341.5q6 -96 0 -193q-31 -457 -594 -456q-563 0 -594 456zM305 1528q0 16 10.5 27.5t28.5 11.5h193q18 0 28.5 -11.5t10.5 -27.5q0 -47 17.5 -80t64.5 -33t64.5 33t17.5 80q0 16 10 27.5t28 11.5h193 q18 0 28.5 -11.5t10.5 -27.5q0 -70 -23.5 -128.5t-68.5 -101.5t-110.5 -66.5t-149.5 -23.5t-149.5 23.5t-110.5 66.5t-69 101.5t-24 128.5zM563 532.5q0 -24.5 1 -48t1 -38.5q2 -37 6 -62.5t13.5 -42.5t27 -25.5t45.5 -8.5q57 0 72.5 34t20.5 105q0 14 1 38t1 48.5t-1 47 t-1 38.5q-4 68 -19.5 104t-73.5 36q-29 0 -46 -9.5t-26.5 -26.5t-13.5 -44t-6 -60q0 -16 -1 -38.5t-1 -47z" />
<glyph unicode="&#x150;" horiz-adv-x="1519" d="M72 710.5q0 94.5 4 182.5q6 135 57 239.5t140 176t212 108.5t275 37q150 0 273.5 -37t212.5 -108.5t140.5 -176t57.5 -239.5q4 -88 4 -182.5t-4 -178.5q-6 -137 -57.5 -240.5t-140.5 -173t-213 -104t-273 -34.5q-152 0 -275 34.5t-212 104t-140 173t-57 240.5 q-4 84 -4 178.5zM352 1569q0 8 3.5 16t7.5 14l110 246q10 20 26.5 29.5t49.5 9.5h322q41 0 41 -39q0 -14 -13 -26l-233 -254q-25 -29 -70 -29h-211q-33 0 -33 33zM608 545q4 -86 44 -126t108 -40t107.5 40t43.5 126q6 174 0 344q-4 86 -45 126t-106 40q-66 0 -107 -40 t-45 -126q-6 -170 0 -344zM854 1569q0 8 3 16t7 14l111 246q10 20 26.5 29.5t49.5 9.5h321q41 0 41 -39q0 -14 -12 -26l-233 -254q-25 -29 -70 -29h-211q-33 0 -33 33z" />
<glyph unicode="&#x151;" horiz-adv-x="1314" d="M63 436q-6 96 0 193q16 227 171 341.5t423 114.5t423 -114.5t171 -341.5q6 -96 0 -193q-31 -457 -594 -456q-563 0 -594 456zM227 1251q0 8 3.5 16.5t7.5 14.5l110 246q10 20 26.5 29.5t49.5 9.5h301q41 0 41 -39q0 -14 -12 -27l-234 -254q-25 -29 -69 -28h-191 q-33 0 -33 32zM563 532.5q0 -24.5 1 -48t1 -38.5q2 -37 6 -62.5t13.5 -42.5t27 -25.5t45.5 -8.5q57 0 72.5 34t20.5 105q0 14 1 38t1 48.5t-1 47t-1 38.5q-4 68 -19.5 104t-73.5 36q-29 0 -46 -9.5t-26.5 -26.5t-13.5 -44t-6 -60q0 -16 -1 -38.5t-1 -47zM752 1251 q0 8 3 16.5t7 14.5l111 246q10 20 26.5 29.5t48.5 9.5h301q41 0 41 -39q0 -14 -12 -27l-233 -254q-25 -29 -70 -28h-190q-33 0 -33 32z" />
<glyph unicode="&#x152;" horiz-adv-x="2052" d="M68 716q0 36 1 73.5t3 80.5q6 137 59 243t144.5 176.5t214 107.5t266.5 37h1147q23 0 39 -16.5t16 -39.5v-288q0 -23 -16.5 -39.5t-38.5 -16.5h-574v-129h529q23 0 39 -16.5t16 -38.5v-266q0 -23 -16.5 -39.5t-38.5 -16.5h-529v-129h590q23 0 39 -16t16 -39v-289 q0 -23 -16 -39t-39 -16h-1174q-147 0 -268 34t-209 103.5t-139 176t-57 251.5q-2 41 -3 78t-1 73zM588 720q0 -36 1 -74t3 -81q4 -86 50 -126t114 -40h84v635h-74q-70 0 -120 -39t-54 -125q-2 -43 -3 -78.5t-1 -71.5z" />
<glyph unicode="&#x153;" horiz-adv-x="1972" d="M63 436q-6 96 0 193q16 227 171 341.5t423 114.5q213 0 355 -73q135 74 325 73q150 0 260.5 -45t182 -120.5t106.5 -177t35 -214.5v-61q0 -23 -16.5 -39t-38.5 -16h-611v-11q0 -61 17.5 -93t62.5 -32q18 0 30.5 10.5t29.5 26.5q18 18 30.5 23.5t36.5 5.5h387 q20 0 33.5 -12.5t11.5 -32.5q-2 -39 -35.5 -93t-101 -104.5t-172 -85t-246.5 -34.5q-98 0 -181 15t-150 50q-137 -66 -351 -65q-563 0 -594 456zM563 532.5q0 -24.5 1 -48t1 -38.5q2 -37 6 -62.5t13.5 -42.5t27 -25.5t45.5 -8.5q57 0 72.5 34t20.5 105q0 14 1 38t1 48.5 t-1 47t-1 38.5q-4 68 -19.5 104t-73.5 36q-29 0 -46 -9.5t-26.5 -26.5t-13.5 -44t-6 -60q0 -16 -1 -38.5t-1 -47zM1255 668h164q0 70 -20.5 100.5t-61.5 30.5t-61.5 -31t-20.5 -100z" />
<glyph unicode="&#x154;" horiz-adv-x="1478" d="M113 55v1323q0 23 16 39.5t39 16.5h606q147 0 264 -34t197 -98.5t123 -156.5t43 -209q0 -139 -61.5 -239.5t-159.5 -161.5l252 -467q6 -12 6 -23q0 -18 -13.5 -31.5t-31.5 -13.5h-420q-41 0 -61.5 20.5t-26.5 34.5l-176 391h-84v-391q0 -23 -16.5 -39t-39.5 -16h-401 q-23 0 -39 16.5t-16 38.5zM518 1569q0 16 11 26l204 250q23 27 38.5 33t37.5 6h402q39 0 39 -41q0 -14 -11 -24l-301 -248q-16 -14 -34.5 -24.5t-51.5 -10.5h-301q-33 0 -33 33zM625 836h149q47 0 70.5 31.5t23.5 72.5t-21.5 77t-72.5 36h-149v-217z" />
<glyph unicode="&#x155;" horiz-adv-x="1060" d="M92 55v955q0 23 16.5 39t38.5 16h359q23 0 39 -16.5t16 -38.5v-72q66 57 146.5 92t173.5 35h98q23 0 39 -16.5t16 -38.5v-320q0 -23 -16.5 -39t-38.5 -16h-264q-123 0 -123 -123v-457q0 -23 -16.5 -39t-38.5 -16h-390q-23 0 -39 16.5t-16 38.5zM358 1251q0 16 11 27 l204 250q23 27 38.5 33t37.5 6h381q39 0 39 -41q0 -14 -10 -25l-301 -248q-16 -14 -34.5 -24t-51.5 -10h-281q-33 0 -33 32z" />
<glyph unicode="&#x156;" horiz-adv-x="1478" d="M113 55v1323q0 23 16 39.5t39 16.5h606q147 0 264 -34t197 -98.5t123 -156.5t43 -209q0 -139 -61.5 -239.5t-159.5 -161.5l252 -467q6 -12 6 -23q0 -18 -13.5 -31.5t-31.5 -13.5h-420q-41 0 -61.5 20.5t-26.5 34.5l-176 391h-84v-391q0 -23 -16.5 -39t-39.5 -16h-401 q-23 0 -39 16.5t-16 38.5zM483 -463l43 281q4 29 26 54.5t62 25.5h310q18 0 31.5 -13.5t13.5 -31.5q0 -8 -2 -15l-113 -284q-8 -20 -27.5 -43t-60.5 -23h-238q-18 0 -31.5 13.5t-13.5 31.5v4zM625 836h149q47 0 70.5 31.5t23.5 72.5t-21.5 77t-72.5 36h-149v-217z" />
<glyph unicode="&#x157;" horiz-adv-x="1060" d="M73 -463l43 281q4 29 26 54.5t62 25.5h287q18 0 31.5 -13.5t13.5 -31.5q0 -8 -2 -15l-112 -284q-8 -20 -28 -43t-61 -23h-215q-18 0 -31.5 13.5t-13.5 31.5v4zM92 55v955q0 23 16.5 39t38.5 16h359q23 0 39 -16.5t16 -38.5v-72q66 57 146.5 92t173.5 35h98q23 0 39 -16.5 t16 -38.5v-320q0 -23 -16.5 -39t-38.5 -16h-264q-123 0 -123 -123v-457q0 -23 -16.5 -39t-38.5 -16h-390q-23 0 -39 16.5t-16 38.5z" />
<glyph unicode="&#x158;" horiz-adv-x="1478" d="M113 55v1323q0 23 16 39.5t39 16.5h606q147 0 264 -34t197 -98.5t123 -156.5t43 -209q0 -139 -61.5 -239.5t-159.5 -161.5l252 -467q6 -12 6 -23q0 -18 -13.5 -31.5t-31.5 -13.5h-420q-41 0 -61.5 20.5t-26.5 34.5l-176 391h-84v-391q0 -23 -16.5 -39t-39.5 -16h-401 q-23 0 -39 16.5t-16 38.5zM295 1851q0 33 32 33h146q20 0 39.5 -2t42.5 -12l188 -86l189 86q23 10 42 12t40 2h145q33 0 33 -33q0 -16 -11 -26l-229 -250q-20 -23 -36.5 -31t-39.5 -8h-266q-23 0 -39 8t-37 31l-229 250q-10 10 -10 26zM625 836h149q47 0 70.5 31.5 t23.5 72.5t-21.5 77t-72.5 36h-149v-217z" />
<glyph unicode="&#x159;" horiz-adv-x="1060" d="M92 55v955q0 23 16.5 39t38.5 16h359q23 0 39 -16.5t16 -38.5v-72q66 57 146.5 92t173.5 35h98q23 0 39 -16.5t16 -38.5v-320q0 -23 -16.5 -39t-38.5 -16h-264q-123 0 -123 -123v-457q0 -23 -16.5 -39t-38.5 -16h-390q-23 0 -39 16.5t-16 38.5zM125 1534q0 33 33 33h135 q20 0 40 -2t42 -13l189 -86l188 86q23 10 42.5 12.5t39.5 2.5h135q33 0 33 -33q0 -16 -10 -27l-230 -250q-20 -23 -36.5 -30.5t-38.5 -7.5h-246q-23 0 -39.5 8t-36.5 30l-229 250q-10 10 -11 27z" />
<glyph unicode="&#x15a;" horiz-adv-x="1427" d="M37 416q0 18 13 31.5t32 13.5h389q33 0 49.5 -9.5t38.5 -25.5q29 -23 64.5 -35t87.5 -12q70 0 111.5 14.5t41.5 42.5q0 37 -56 56.5t-208 39.5q-121 16 -219 50t-167 89.5t-105.5 132.5t-36.5 179q0 104 45 191.5t127 148.5t197.5 96t254.5 35q154 0 272.5 -41 t200.5 -104.5t125 -137t45 -141.5q0 -18 -13 -31.5t-30 -13.5h-409q-29 0 -46.5 8t-35.5 25q-10 10 -38 23.5t-71 13.5q-53 0 -75.5 -15.5t-22.5 -42.5q0 -14 9 -26.5t35 -23.5t70 -20t113 -18q154 -18 261.5 -53t175 -89t98.5 -129t31 -175q0 -113 -52.5 -202 t-143.5 -151.5t-215 -96t-269 -33.5q-170 0 -296 35.5t-209 96t-125 139.5t-44 165zM499 1569q0 16 11 26l204 250q23 27 38.5 33t37.5 6h402q39 0 39 -41q0 -14 -11 -24l-301 -248q-16 -14 -34.5 -24.5t-51.5 -10.5h-301q-33 0 -33 33z" />
<glyph unicode="&#x15b;" horiz-adv-x="1208" d="M45 272q-2 23 12.5 39.5t36.5 16.5h357q23 0 40 -9.5t34.5 -21.5t37 -21.5t43.5 -9.5q16 0 31.5 7.5t15.5 23.5q0 12 -5 24.5t-25.5 23.5t-63.5 22.5t-119 25.5q-72 12 -139.5 38t-119.5 66t-83.5 99t-31.5 139q0 66 33.5 129.5t99 112.5t162 78.5t223.5 29.5t225 -29.5 t166.5 -73.5t105.5 -95t39 -94q2 -23 -12 -39.5t-33 -16.5h-344q-23 0 -40 9.5t-34.5 21.5t-35 21.5t-39.5 9.5q-16 0 -28.5 -9.5t-12.5 -23.5q0 -12 5 -24.5t27.5 -22.5t67.5 -20.5t125 -22.5q111 -16 186.5 -52t123.5 -84t68.5 -102.5t20.5 -105.5q0 -166 -147.5 -259 t-425.5 -93q-147 0 -250.5 30.5t-168 74.5t-95.5 95t-33 92zM372 1251q0 16 11 27l204 250q23 27 38.5 33t37.5 6h381q39 0 39 -41q0 -14 -10 -25l-301 -248q-16 -14 -34.5 -24t-51.5 -10h-281q-33 0 -33 32z" />
<glyph unicode="&#x15c;" horiz-adv-x="1427" d="M37 416q0 18 13 31.5t32 13.5h389q33 0 49.5 -9.5t38.5 -25.5q29 -23 64.5 -35t87.5 -12q70 0 111.5 14.5t41.5 42.5q0 37 -56 56.5t-208 39.5q-121 16 -219 50t-167 89.5t-105.5 132.5t-36.5 179q0 104 45 191.5t127 148.5t197.5 96t254.5 35q154 0 272.5 -41 t200.5 -104.5t125 -137t45 -141.5q0 -18 -13 -31.5t-30 -13.5h-409q-29 0 -46.5 8t-35.5 25q-10 10 -38 23.5t-71 13.5q-53 0 -75.5 -15.5t-22.5 -42.5q0 -14 9 -26.5t35 -23.5t70 -20t113 -18q154 -18 261.5 -53t175 -89t98.5 -129t31 -175q0 -113 -52.5 -202 t-143.5 -151.5t-215 -96t-269 -33.5q-170 0 -296 35.5t-209 96t-125 139.5t-44 165zM265 1569q0 16 10 26l229 250q20 23 37 31t39 8h266q23 0 39.5 -8t36.5 -31l229 -250q10 -10 11 -26q0 -33 -33 -33h-145q-20 0 -40 2t-42 12l-189 86l-188 -86q-23 -10 -42.5 -12 t-39.5 -2h-146q-33 0 -32 33z" />
<glyph unicode="&#x15d;" horiz-adv-x="1208" d="M45 272q-2 23 12.5 39.5t36.5 16.5h357q23 0 40 -9.5t34.5 -21.5t37 -21.5t43.5 -9.5q16 0 31.5 7.5t15.5 23.5q0 12 -5 24.5t-25.5 23.5t-63.5 22.5t-119 25.5q-72 12 -139.5 38t-119.5 66t-83.5 99t-31.5 139q0 66 33.5 129.5t99 112.5t162 78.5t223.5 29.5t225 -29.5 t166.5 -73.5t105.5 -95t39 -94q2 -23 -12 -39.5t-33 -16.5h-344q-23 0 -40 9.5t-34.5 21.5t-35 21.5t-39.5 9.5q-16 0 -28.5 -9.5t-12.5 -23.5q0 -12 5 -24.5t27.5 -22.5t67.5 -20.5t125 -22.5q111 -16 186.5 -52t123.5 -84t68.5 -102.5t20.5 -105.5q0 -166 -147.5 -259 t-425.5 -93q-147 0 -250.5 30.5t-168 74.5t-95.5 95t-33 92zM165 1251q0 16 11 27l229 250q20 23 36.5 31t39.5 8h246q23 0 39 -8.5t36 -30.5l230 -250q10 -10 10 -27q0 -33 -33 -32h-135q-20 0 -39.5 2t-42.5 12l-188 86l-189 -86q-23 -10 -42 -12t-40 -2h-135 q-33 0 -33 32z" />
<glyph unicode="&#x15e;" horiz-adv-x="1427" d="M37 416q0 18 13 31.5t32 13.5h389q33 0 49.5 -9.5t38.5 -25.5q29 -23 64.5 -35t87.5 -12q70 0 111.5 14.5t41.5 42.5q0 37 -56 56.5t-208 39.5q-121 16 -219 50t-167 89.5t-105.5 132.5t-36.5 179q0 104 45 191.5t127 148.5t197.5 96t254.5 35q154 0 272.5 -41 t200.5 -104.5t125 -137t45 -141.5q0 -18 -13 -31.5t-30 -13.5h-409q-29 0 -46.5 8t-35.5 25q-10 10 -38 23.5t-71 13.5q-53 0 -75.5 -15.5t-22.5 -42.5q0 -14 9 -26.5t35 -23.5t70 -20t113 -18q154 -18 261.5 -53t175 -89t98.5 -129t31 -175q0 -111 -51.5 -200 t-141.5 -151.5t-213 -96t-266 -35.5l-37 -72q12 4 33.5 7t27.5 3q78 0 122 -51t44 -133t-55 -133.5t-147 -51.5q-41 0 -77 10.5t-60.5 27t-32 34t11.5 33.5l43 37q12 12 22.5 12t21.5 -4t27.5 -9t43.5 -5q29 0 43 15t14 34q0 18 -13.5 33.5t-43.5 15.5q-14 0 -29.5 -4 t-30 -6t-28 -1t-23.5 11l-43 43q-14 14 -16 26.5t12 41.5l41 92q-139 12 -242.5 52t-172.5 98.5t-102.5 130t-35.5 149.5z" />
<glyph unicode="&#x15f;" horiz-adv-x="1208" d="M45 272q-2 23 12.5 39.5t36.5 16.5h357q23 0 40 -9.5t34.5 -21.5t37 -21.5t43.5 -9.5q16 0 31.5 7.5t15.5 23.5q0 12 -5 24.5t-25.5 23.5t-63.5 22.5t-119 25.5q-72 12 -139.5 38t-119.5 66t-83.5 99t-31.5 139q0 66 33.5 129.5t99 112.5t162 78.5t223.5 29.5t225 -29.5 t166.5 -73.5t105.5 -95t39 -94q2 -23 -12 -39.5t-33 -16.5h-344q-23 0 -40 9.5t-34.5 21.5t-35 21.5t-39.5 9.5q-16 0 -28.5 -9.5t-12.5 -23.5q0 -12 5 -24.5t27.5 -22.5t67.5 -20.5t125 -22.5q111 -16 186.5 -52t123.5 -84t68.5 -102.5t20.5 -105.5q0 -164 -144 -256 t-417 -96l-37 -72q12 4 34 7t28 3q78 0 122 -51t44 -133t-55.5 -133.5t-147.5 -51.5q-41 0 -77 10.5t-60.5 27t-31.5 34t11 33.5l43 37q12 12 22.5 12t21.5 -4t27.5 -9t43.5 -5q29 0 43 15t14 34q0 18 -13 33.5t-44 15.5q-14 0 -29.5 -4t-30 -6t-27.5 -1t-24 11l-43 43 q-14 14 -16 26.5t12 41.5l41 92q-115 12 -195.5 44.5t-133 73.5t-76 86.5t-25.5 81.5z" />
<glyph unicode="&#x160;" horiz-adv-x="1427" d="M37 416q0 18 13 31.5t32 13.5h389q33 0 49.5 -9.5t38.5 -25.5q29 -23 64.5 -35t87.5 -12q70 0 111.5 14.5t41.5 42.5q0 37 -56 56.5t-208 39.5q-121 16 -219 50t-167 89.5t-105.5 132.5t-36.5 179q0 104 45 191.5t127 148.5t197.5 96t254.5 35q154 0 272.5 -41 t200.5 -104.5t125 -137t45 -141.5q0 -18 -13 -31.5t-30 -13.5h-409q-29 0 -46.5 8t-35.5 25q-10 10 -38 23.5t-71 13.5q-53 0 -75.5 -15.5t-22.5 -42.5q0 -14 9 -26.5t35 -23.5t70 -20t113 -18q154 -18 261.5 -53t175 -89t98.5 -129t31 -175q0 -113 -52.5 -202 t-143.5 -151.5t-215 -96t-269 -33.5q-170 0 -296 35.5t-209 96t-125 139.5t-44 165zM265 1851q0 33 32 33h146q20 0 39.5 -2t42.5 -12l188 -86l189 86q23 10 42 12t40 2h145q33 0 33 -33q0 -16 -11 -26l-229 -250q-20 -23 -36.5 -31t-39.5 -8h-266q-23 0 -39 8t-37 31 l-229 250q-10 10 -10 26z" />
<glyph unicode="&#x161;" horiz-adv-x="1208" d="M45 272q-2 23 12.5 39.5t36.5 16.5h357q23 0 40 -9.5t34.5 -21.5t37 -21.5t43.5 -9.5q16 0 31.5 7.5t15.5 23.5q0 12 -5 24.5t-25.5 23.5t-63.5 22.5t-119 25.5q-72 12 -139.5 38t-119.5 66t-83.5 99t-31.5 139q0 66 33.5 129.5t99 112.5t162 78.5t223.5 29.5t225 -29.5 t166.5 -73.5t105.5 -95t39 -94q2 -23 -12 -39.5t-33 -16.5h-344q-23 0 -40 9.5t-34.5 21.5t-35 21.5t-39.5 9.5q-16 0 -28.5 -9.5t-12.5 -23.5q0 -12 5 -24.5t27.5 -22.5t67.5 -20.5t125 -22.5q111 -16 186.5 -52t123.5 -84t68.5 -102.5t20.5 -105.5q0 -166 -147.5 -259 t-425.5 -93q-147 0 -250.5 30.5t-168 74.5t-95.5 95t-33 92zM165 1534q0 33 33 33h135q20 0 40 -2t42 -13l189 -86l188 86q23 10 42.5 12.5t39.5 2.5h135q33 0 33 -33q0 -16 -10 -27l-230 -250q-20 -23 -36.5 -30.5t-38.5 -7.5h-246q-23 0 -39.5 8t-36.5 30l-229 250 q-10 10 -11 27z" />
<glyph unicode="&#x162;" d="M35 1049v329q0 23 16.5 39.5t38.5 16.5h1200q23 0 39.5 -16.5t16.5 -39.5v-329q0 -23 -16.5 -39.5t-39.5 -16.5h-340v-938q0 -23 -16 -39t-39 -16h-410q-23 0 -39 16.5t-16 38.5v938h-340q-23 0 -39 16.5t-16 39.5zM415 -463l43 281q4 29 26 54.5t62 25.5h310 q18 0 31.5 -13.5t13.5 -31.5q0 -8 -2 -15l-113 -284q-8 -20 -27.5 -43t-60.5 -23h-238q-18 0 -31.5 13.5t-13.5 31.5v4z" />
<glyph unicode="&#x163;" horiz-adv-x="1089" d="M23 762v248q0 23 16 39t39 16h162v334q0 23 16 39t39 16h358q23 0 39.5 -16.5t16.5 -38.5v-334h258q23 0 39 -16.5t16 -38.5v-248q0 -23 -16.5 -39t-38.5 -16h-258v-226q0 -47 20.5 -74.5t67.5 -27.5h186q23 0 39 -16.5t16 -38.5v-269q0 -23 -16 -39t-39 -16h-231 q-111 0 -205 21.5t-163 72.5t-106.5 135t-37.5 211v267h-162q-23 0 -39 16t-16 39zM335 -463l43 281q4 29 26 54.5t62 25.5h287q18 0 31.5 -13.5t13.5 -31.5q0 -8 -2 -15l-112 -284q-8 -20 -28 -43t-61 -23h-215q-18 0 -31.5 13.5t-13.5 31.5v4z" />
<glyph unicode="&#x164;" d="M35 1049v329q0 23 16.5 39.5t38.5 16.5h1200q23 0 39.5 -16.5t16.5 -39.5v-329q0 -23 -16.5 -39.5t-39.5 -16.5h-340v-938q0 -23 -16 -39t-39 -16h-410q-23 0 -39 16.5t-16 38.5v938h-340q-23 0 -39 16.5t-16 39.5zM242 1851q0 33 32 33h146q20 0 39.5 -2t42.5 -12 l188 -86l189 86q23 10 42 12t40 2h145q33 0 33 -33q0 -16 -11 -26l-229 -250q-20 -23 -36.5 -31t-39.5 -8h-266q-23 0 -39 8t-37 31l-229 250q-10 10 -10 26z" />
<glyph unicode="&#x165;" horiz-adv-x="1294" d="M23 762v248q0 23 16 39t39 16h162v334q0 23 16 39t39 16h358q23 0 39.5 -16.5t16.5 -38.5v-334h258q23 0 39 -16.5t16 -38.5v-248q0 -23 -16.5 -39t-38.5 -16h-258v-226q0 -47 20.5 -74.5t67.5 -27.5h186q23 0 39 -16.5t16 -38.5v-269q0 -23 -16 -39t-39 -16h-231 q-111 0 -205 21.5t-163 72.5t-106.5 135t-37.5 211v267h-162q-23 0 -39 16t-16 39zM1063 1089v4l43 281q4 29 26 54.5t62 25.5h287q18 0 31.5 -13.5t13.5 -31.5q0 -8 -2 -15l-112 -284q-8 -20 -28 -43t-61 -23h-215q-18 0 -31.5 13.5t-13.5 31.5z" />
<glyph unicode="&#x166;" horiz-adv-x="1396" d="M43 1049v329q0 23 16.5 39.5t38.5 16.5h1200q23 0 39.5 -16.5t16.5 -39.5v-329q0 -23 -16.5 -39.5t-39.5 -16.5h-340v-209h185q23 0 39 -16t16 -39v-145q0 -23 -16.5 -39.5t-38.5 -16.5h-185v-473q0 -23 -16 -39t-39 -16h-409q-23 0 -39.5 16.5t-16.5 38.5v473h-184 q-23 0 -39 16.5t-16 39.5v145q0 23 16 39t39 16h184v209h-340q-23 0 -39 16.5t-16 39.5z" />
<glyph unicode="&#x167;" horiz-adv-x="1091" d="M25 598v104q0 23 16 39.5t39 16.5h162v92h-162q-23 0 -39 16.5t-16 38.5v105q0 23 16 39t39 16h162v334q0 23 16 39t39 16h358q23 0 39.5 -16.5t16.5 -38.5v-334h258q23 0 39 -16.5t16 -38.5v-105q0 -23 -16.5 -39t-38.5 -16h-258v-92h258q23 0 39 -16.5t16 -39.5v-104 q0 -23 -16.5 -39t-38.5 -16h-258v-62q0 -47 20.5 -74.5t67.5 -27.5h186q23 0 39 -16.5t16 -38.5v-269q0 -23 -16 -39t-39 -16h-231q-111 0 -205 21.5t-163 72.5t-106.5 135t-37.5 211v103h-162q-23 0 -39 16t-16 39z" />
<glyph unicode="&#x168;" horiz-adv-x="1527" d="M100 541v837q0 23 16.5 39.5t39.5 16.5h401q23 0 39 -16.5t16 -39.5v-829q0 -158 152 -158t151 158v829q0 23 16.5 39.5t39.5 16.5h401q23 0 39 -16.5t16 -39.5v-837q0 -145 -49 -251t-136 -175.5t-209 -102t-267 -32.5q-147 0 -270 32.5t-210 102t-136.5 175 t-49.5 251.5zM348 1573q0 35 12.5 90t43 106.5t85 88t138.5 36.5q45 0 78 -11t59.5 -25.5t50 -25.5t54.5 -11q23 0 35 10t21 21.5t19.5 21.5t26.5 10h172q18 0 28.5 -11t10.5 -28q0 -35 -12.5 -89t-43 -105.5t-85 -88t-138.5 -36.5q-47 0 -78.5 11t-58 25.5t-50.5 25.5 t-54 11q-25 0 -37 -10t-21.5 -21.5t-18.5 -21.5t-26 -10h-172q-16 0 -27.5 10t-11.5 27z" />
<glyph unicode="&#x169;" d="M82 444v566q0 23 16.5 39t38.5 16h391q23 0 39.5 -16.5t16.5 -38.5v-551q0 -113 102 -113t102 113v551q0 23 16.5 39t39.5 16h389q23 0 39 -16.5t16 -38.5v-955q0 -23 -16.5 -39t-38.5 -16h-359q-23 0 -39 16.5t-16 38.5v68q-51 -76 -140 -109.5t-200 -33.5 q-78 0 -149.5 26.5t-127 83.5t-88 145.5t-32.5 208.5zM268 1255q0 35 12.5 90.5t43 106.5t85 88t138.5 37q45 0 78 -11.5t59.5 -25.5t50 -25.5t54.5 -11.5q23 0 35 10.5t21 21.5t19.5 21.5t26.5 10.5h172q18 0 28.5 -11.5t10.5 -27.5q0 -35 -12.5 -89.5t-43 -105.5t-85 -88 t-138.5 -37q-47 0 -78.5 11.5t-58 26t-50.5 25.5t-54 11q-25 0 -37 -10t-21.5 -21.5t-18.5 -21.5t-26 -10h-172q-16 0 -27.5 10t-11.5 26z" />
<glyph unicode="&#x16a;" horiz-adv-x="1527" d="M100 541v837q0 23 16.5 39.5t39.5 16.5h401q23 0 39 -16.5t16 -39.5v-829q0 -158 152 -158t151 158v829q0 23 16.5 39.5t39.5 16.5h401q23 0 39 -16.5t16 -39.5v-837q0 -145 -49 -251t-136 -175.5t-209 -102t-267 -32.5q-147 0 -270 32.5t-210 102t-136.5 175 t-49.5 251.5zM331 1583v213q0 20 13.5 33.5t34.5 13.5h772q20 0 33.5 -13t13.5 -34v-213q0 -20 -13.5 -33.5t-33.5 -13.5h-772q-20 0 -34 13.5t-14 33.5z" />
<glyph unicode="&#x16b;" d="M82 444v566q0 23 16.5 39t38.5 16h391q23 0 39.5 -16.5t16.5 -38.5v-551q0 -113 102 -113t102 113v551q0 23 16.5 39t39.5 16h389q23 0 39 -16.5t16 -38.5v-955q0 -23 -16.5 -39t-38.5 -16h-359q-23 0 -39 16.5t-16 38.5v68q-51 -76 -140 -109.5t-200 -33.5 q-78 0 -149.5 26.5t-127 83.5t-88 145.5t-32.5 208.5zM303 1266v213q0 20 13.5 33.5t34.5 13.5h669q20 0 33.5 -13.5t13.5 -33.5v-213q0 -20 -13 -33.5t-34 -13.5h-669q-20 0 -34 13t-14 34z" />
<glyph unicode="&#x16c;" horiz-adv-x="1527" d="M100 541v837q0 23 16.5 39.5t39.5 16.5h401q23 0 39 -16.5t16 -39.5v-829q0 -158 152 -158t151 158v829q0 23 16.5 39.5t39.5 16.5h401q23 0 39 -16.5t16 -39.5v-837q0 -145 -49 -251t-136 -175.5t-209 -102t-267 -32.5q-147 0 -270 32.5t-210 102t-136.5 175 t-49.5 251.5zM401 1845q0 16 10.5 27.5t28.5 11.5h203q18 0 28.5 -11t10.5 -28q0 -47 16.5 -79.5t65.5 -32.5t65.5 32.5t16.5 79.5q0 16 10 27.5t29 11.5h202q18 0 28.5 -11t10.5 -28q0 -70 -22.5 -128t-66.5 -101t-112.5 -66.5t-160.5 -23.5t-160.5 23.5t-113 66.5 t-67 101.5t-22.5 127.5z" />
<glyph unicode="&#x16d;" d="M82 444v566q0 23 16.5 39t38.5 16h391q23 0 39.5 -16.5t16.5 -38.5v-551q0 -113 102 -113t102 113v551q0 23 16.5 39t39.5 16h389q23 0 39 -16.5t16 -38.5v-955q0 -23 -16.5 -39t-38.5 -16h-359q-23 0 -39 16.5t-16 38.5v68q-51 -76 -140 -109.5t-200 -33.5 q-78 0 -149.5 26.5t-127 83.5t-88 145.5t-32.5 208.5zM331 1528q0 16 10.5 27.5t28.5 11.5h193q18 0 28.5 -11.5t10.5 -27.5q0 -47 17.5 -80t64.5 -33t64.5 33t17.5 80q0 16 10 27.5t28 11.5h193q18 0 28.5 -11.5t10.5 -27.5q0 -70 -23.5 -128.5t-68.5 -101.5t-110.5 -66.5 t-149.5 -23.5t-149.5 23.5t-110.5 66.5t-69 101.5t-24 128.5z" />
<glyph unicode="&#x16e;" horiz-adv-x="1527" d="M100 541v837q0 23 16.5 39.5t39.5 16.5h401q23 0 39 -16.5t16 -39.5v-829q0 -158 152 -158t151 158v829q0 23 16.5 39.5t39.5 16.5h401q23 0 39 -16.5t16 -39.5v-837q0 -145 -49 -251t-136 -175.5t-209 -102t-267 -32.5q-147 0 -270 32.5t-210 102t-136.5 175 t-49.5 251.5zM559 1710q0 86 59.5 140.5t145.5 54.5t145.5 -54.5t59.5 -140.5t-59.5 -140t-145.5 -54t-145.5 54t-59.5 140zM703 1710q0 -27 17.5 -44t43.5 -17q27 0 44.5 17t17.5 44t-17.5 44.5t-44.5 17.5t-44 -17.5t-17 -44.5z" />
<glyph unicode="&#x16f;" d="M82 444v566q0 23 16.5 39t38.5 16h391q23 0 39.5 -16.5t16.5 -38.5v-551q0 -113 102 -113t102 113v551q0 23 16.5 39t39.5 16h389q23 0 39 -16.5t16 -38.5v-955q0 -23 -16.5 -39t-38.5 -16h-359q-23 0 -39 16.5t-16 38.5v68q-51 -76 -140 -109.5t-200 -33.5 q-78 0 -149.5 26.5t-127 83.5t-88 145.5t-32.5 208.5zM479 1403q0 86 59.5 140t145.5 54t145.5 -54t59.5 -140t-59.5 -140.5t-145.5 -54.5t-145.5 54.5t-59.5 140.5zM623 1403q0 -27 17.5 -44.5t43.5 -17.5q27 0 44.5 17.5t17.5 44.5t-17.5 44t-44.5 17t-44 -17t-17 -44z " />
<glyph unicode="&#x170;" horiz-adv-x="1527" d="M100 541v837q0 23 16.5 39.5t39.5 16.5h401q23 0 39 -16.5t16 -39.5v-829q0 -158 152 -158t151 158v829q0 23 16.5 39.5t39.5 16.5h401q23 0 39 -16.5t16 -39.5v-837q0 -145 -49 -251t-136 -175.5t-209 -102t-267 -32.5q-147 0 -270 32.5t-210 102t-136.5 175 t-49.5 251.5zM344 1569q0 8 3.5 16t7.5 14l110 246q10 20 26.5 29.5t49.5 9.5h322q41 0 41 -39q0 -14 -13 -26l-233 -254q-25 -29 -70 -29h-211q-33 0 -33 33zM846 1569q0 8 3 16t7 14l111 246q10 20 26.5 29.5t49.5 9.5h321q41 0 41 -39q0 -14 -12 -26l-233 -254 q-25 -29 -70 -29h-211q-33 0 -33 33z" />
<glyph unicode="&#x171;" d="M82 444v566q0 23 16.5 39t38.5 16h391q23 0 39.5 -16.5t16.5 -38.5v-551q0 -113 102 -113t102 113v551q0 23 16.5 39t39.5 16h389q23 0 39 -16.5t16 -38.5v-955q0 -23 -16.5 -39t-38.5 -16h-359q-23 0 -39 16.5t-16 38.5v68q-51 -76 -140 -109.5t-200 -33.5 q-78 0 -149.5 26.5t-127 83.5t-88 145.5t-32.5 208.5zM264 1251q0 8 3.5 16.5t7.5 14.5l110 246q10 20 26.5 29.5t49.5 9.5h301q41 0 41 -39q0 -14 -12 -27l-234 -254q-25 -29 -69 -28h-191q-33 0 -33 32zM789 1251q0 8 3 16.5t7 14.5l111 246q10 20 26.5 29.5t48.5 9.5h301 q41 0 41 -39q0 -14 -12 -27l-233 -254q-25 -29 -70 -28h-190q-33 0 -33 32z" />
<glyph unicode="&#x172;" horiz-adv-x="1527" d="M100 541v837q0 23 16.5 39.5t39.5 16.5h401q23 0 39 -16.5t16 -39.5v-829q0 -158 152 -158t151 158v829q0 23 16.5 39.5t39.5 16.5h401q23 0 39 -16.5t16 -39.5v-837q0 -127 -36.5 -221.5t-104 -161t-162 -107.5t-206.5 -61q-49 -10 -62.5 -36t-13.5 -54q0 -33 21.5 -67 t80.5 -34h21q23 0 39 -16t16 -39v-139q0 -23 -16.5 -39.5t-38.5 -16.5h-29q-92 0 -158.5 28t-109.5 75t-63.5 110.5t-20.5 137.5q0 53 8 94q-111 16 -202 58t-155.5 109.5t-99.5 162t-35 217.5z" />
<glyph unicode="&#x173;" d="M82 444v566q0 23 16.5 39t38.5 16h391q23 0 39.5 -16.5t16.5 -38.5v-551q0 -113 102 -113t102 113v551q0 23 16.5 39t39.5 16h389q23 0 39 -16.5t16 -38.5v-955q0 -23 -16.5 -39t-38.5 -16h-33q-53 -4 -71.5 -37t-18.5 -63q0 -33 21.5 -67t80.5 -34h21q23 0 39 -16 t16 -39v-139q0 -23 -16.5 -39.5t-38.5 -16.5h-29q-92 0 -158.5 28t-109.5 75t-63.5 110.5t-20.5 137.5q0 49 10 100q-18 4 -30.5 19.5t-12.5 35.5v68q-51 -76 -140 -109.5t-200 -33.5q-78 0 -149.5 26.5t-127 83.5t-88 145.5t-32.5 208.5z" />
<glyph unicode="&#x174;" horiz-adv-x="1753" d="M49 1382v7q0 18 13.5 31.5t31.5 13.5h381q35 0 52.5 -12.5t21.5 -43.5l69 -577l84 256q4 14 18.5 36.5t51.5 22.5h209q37 0 51.5 -22.5t18.5 -36.5l84 -254l69 575q4 31 21.5 43.5t52.5 12.5h381q18 0 31.5 -13.5t13.5 -31.5v-7l-188 -1304q-4 -29 -29 -53.5t-66 -24.5 h-293q-41 0 -60 21.5t-24 33.5l-167 420l-168 -420q-4 -12 -23.5 -33.5t-60.5 -21.5h-293q-41 0 -65.5 24.5t-28.5 53.5zM428 1569q0 16 10 26l229 250q20 23 37 31t39 8h266q23 0 39.5 -8t36.5 -31l229 -250q10 -10 11 -26q0 -33 -33 -33h-145q-20 0 -40 2t-42 12l-189 86 l-188 -86q-23 -10 -42.5 -12t-39.5 -2h-146q-33 0 -32 33z" />
<glyph unicode="&#x175;" horiz-adv-x="1779" d="M33 1016q0 20 14 34.5t35 14.5h315q31 0 48.5 -16.5t21.5 -32.5l125 -426l133 426q4 16 21.5 32.5t48.5 16.5h190q31 0 48.5 -16.5t21.5 -32.5l133 -426l125 426q4 16 21.5 32.5t47.5 16.5h316q20 0 34.5 -14.5t14.5 -34.5q0 -8 -2 -17l-299 -948q-6 -18 -21.5 -34.5 t-46.5 -16.5h-274q-31 0 -46.5 16.5t-21.5 34.5l-145 414l-148 -414q-6 -18 -21 -34.5t-46 -16.5h-275q-31 0 -46 16.5t-21 34.5l-299 948q-2 8 -2 17zM452 1251q0 16 11 27l229 250q20 23 36.5 31t39.5 8h246q23 0 39 -8.5t36 -30.5l230 -250q10 -10 10 -27q0 -33 -33 -32 h-135q-20 0 -39.5 2t-42.5 12l-188 86l-189 -86q-23 -10 -42 -12t-40 -2h-135q-33 0 -33 32z" />
<glyph unicode="&#x176;" horiz-adv-x="1454" d="M6 1389q0 18 13.5 31.5t31.5 13.5h385q41 0 61.5 -20.5t24.5 -31.5l205 -411l205 411q4 10 24.5 31t61.5 21h385q18 0 31.5 -13.5t13.5 -31.5q0 -10 -4 -19l-461 -911v-404q0 -23 -16.5 -39t-38.5 -16h-402q-23 0 -39 16.5t-16 38.5v404l-461 911q-4 8 -4 19zM279 1569 q0 16 10 26l229 250q20 23 37 31t39 8h266q23 0 39.5 -8t36.5 -31l229 -250q10 -10 11 -26q0 -33 -33 -33h-145q-20 0 -40 2t-42 12l-189 86l-188 -86q-23 -10 -42.5 -12t-39.5 -2h-146q-33 0 -32 33z" />
<glyph unicode="&#x177;" horiz-adv-x="1302" d="M27 1016q4 20 17 34.5t34 14.5h346q31 0 45 -16.5t20 -32.5l168 -467l174 467q8 18 23.5 33.5t46.5 15.5h342q18 0 32.5 -13.5t14.5 -29.5q0 -12 -2 -21l-577 -1341q-8 -18 -24.5 -33.5t-47.5 -15.5h-336q-18 0 -31.5 12t-13.5 31q0 4 -1 9t3 11l164 394l-395 933 q-2 6 -2 15zM219 1251q0 16 11 27l229 250q20 23 36.5 31t39.5 8h246q23 0 39 -8.5t36 -30.5l230 -250q10 -10 10 -27q0 -33 -33 -32h-135q-20 0 -39.5 2t-42.5 12l-188 86l-189 -86q-23 -10 -42 -12t-40 -2h-135q-33 0 -33 32z" />
<glyph unicode="&#x178;" horiz-adv-x="1454" d="M6 1389q0 18 13.5 31.5t31.5 13.5h385q41 0 61.5 -20.5t24.5 -31.5l205 -411l205 411q4 10 24.5 31t61.5 21h385q18 0 31.5 -13.5t13.5 -31.5q0 -10 -4 -19l-461 -911v-404q0 -23 -16.5 -39t-38.5 -16h-402q-23 0 -39 16.5t-16 38.5v404l-461 911q-4 8 -4 19zM278 1583 v254q0 20 13.5 33.5t34.5 13.5h253q20 0 34 -13t14 -34v-254q0 -20 -13.5 -33.5t-34.5 -13.5h-253q-20 0 -34 13.5t-14 33.5zM829 1583v254q0 20 13.5 33.5t33.5 13.5h254q20 0 33.5 -13t13.5 -34v-254q0 -20 -13 -33.5t-34 -13.5h-254q-20 0 -33.5 13.5t-13.5 33.5z" />
<glyph unicode="&#x179;" horiz-adv-x="1419" d="M72 55v295q0 29 11 46.5t19 25.5l574 596h-529q-23 0 -39 16.5t-16 38.5v305q0 23 16.5 39.5t38.5 16.5h1123q23 0 39 -16.5t16 -39.5v-291q0 -41 -27 -67l-542 -600h540q23 0 39.5 -16.5t16.5 -38.5v-310q0 -23 -16.5 -39t-39.5 -16h-1169q-23 0 -39 16.5t-16 38.5z M503 1569q0 16 11 26l204 250q23 27 38.5 33t37.5 6h402q39 0 39 -41q0 -14 -11 -24l-301 -248q-16 -14 -34.5 -24.5t-51.5 -10.5h-301q-33 0 -33 33z" />
<glyph unicode="&#x17a;" horiz-adv-x="1208" d="M74 55v236q0 25 9 42t23 29l408 351h-371q-23 0 -39 16t-16 39v242q0 23 16.5 39t38.5 16h906q23 0 39 -16.5t16 -38.5v-258q0 -35 -29 -60l-389 -340h406q23 0 39 -16.5t16 -38.5v-242q0 -23 -16.5 -39t-38.5 -16h-963q-23 0 -39 16.5t-16 38.5zM415 1251q0 16 11 27 l204 250q23 27 38.5 33t37.5 6h381q39 0 39 -41q0 -14 -10 -25l-301 -248q-16 -14 -34.5 -24t-51.5 -10h-281q-33 0 -33 32z" />
<glyph unicode="&#x17b;" horiz-adv-x="1419" d="M72 55v295q0 29 11 46.5t19 25.5l574 596h-529q-23 0 -39 16.5t-16 38.5v305q0 23 16.5 39.5t38.5 16.5h1123q23 0 39 -16.5t16 -39.5v-291q0 -41 -27 -67l-542 -600h540q23 0 39.5 -16.5t16.5 -38.5v-310q0 -23 -16.5 -39t-39.5 -16h-1169q-23 0 -39 16.5t-16 38.5z M524 1583v279q0 20 13.5 33.5t34.5 13.5h278q20 0 33.5 -13.5t13.5 -33.5v-279q0 -20 -13 -33.5t-34 -13.5h-278q-20 0 -34 13.5t-14 33.5z" />
<glyph unicode="&#x17c;" horiz-adv-x="1208" d="M74 55v236q0 25 9 42t23 29l408 351h-371q-23 0 -39 16t-16 39v242q0 23 16.5 39t38.5 16h906q23 0 39 -16.5t16 -38.5v-258q0 -35 -29 -60l-389 -340h406q23 0 39 -16.5t16 -38.5v-242q0 -23 -16.5 -39t-38.5 -16h-963q-23 0 -39 16.5t-16 38.5zM430 1266v268 q0 20 13.5 33.5t34.5 13.5h268q20 0 33.5 -13.5t13.5 -33.5v-268q0 -20 -13.5 -33.5t-33.5 -13.5h-268q-20 0 -34 13t-14 34z" />
<glyph unicode="&#x17d;" horiz-adv-x="1419" d="M72 55v295q0 29 11 46.5t19 25.5l574 596h-529q-23 0 -39 16.5t-16 38.5v305q0 23 16.5 39.5t38.5 16.5h1123q23 0 39 -16.5t16 -39.5v-291q0 -41 -27 -67l-542 -600h540q23 0 39.5 -16.5t16.5 -38.5v-310q0 -23 -16.5 -39t-39.5 -16h-1169q-23 0 -39 16.5t-16 38.5z M262 1851q0 33 32 33h146q20 0 39.5 -2t42.5 -12l188 -86l189 86q23 10 42 12t40 2h145q33 0 33 -33q0 -16 -11 -26l-229 -250q-20 -23 -36.5 -31t-39.5 -8h-266q-23 0 -39 8t-37 31l-229 250q-10 10 -10 26z" />
<glyph unicode="&#x17e;" horiz-adv-x="1208" d="M74 55v236q0 25 9 42t23 29l408 351h-371q-23 0 -39 16t-16 39v242q0 23 16.5 39t38.5 16h906q23 0 39 -16.5t16 -38.5v-258q0 -35 -29 -60l-389 -340h406q23 0 39 -16.5t16 -38.5v-242q0 -23 -16.5 -39t-38.5 -16h-963q-23 0 -39 16.5t-16 38.5zM172 1534q0 33 33 33 h135q20 0 40 -2t42 -13l189 -86l188 86q23 10 42.5 12.5t39.5 2.5h135q33 0 33 -33q0 -16 -10 -27l-230 -250q-20 -23 -36.5 -30.5t-38.5 -7.5h-246q-23 0 -39.5 8t-36.5 30l-229 250q-10 10 -11 27z" />
<glyph unicode="&#x17f;" horiz-adv-x="792" d="M33 762v248q0 23 16.5 39t38.5 16h141v35q0 125 41 205.5t114 128t170 65t208 17.5h190q23 0 39.5 -16.5t16.5 -39.5v-248q0 -23 -16.5 -39t-39.5 -16h-166q-88 0 -88 -67v-1035q0 -23 -16 -39t-39 -16h-358q-23 0 -39.5 16.5t-16.5 38.5v652h-141q-23 0 -39 16t-16 39z " />
<glyph unicode="&#x192;" horiz-adv-x="1069" d="M-20 -100q0 23 16 39t39 16h80q66 0 101.5 36t35.5 130v586h-141q-23 0 -39.5 16t-16.5 39v248q0 23 16.5 39t39.5 16h141v35q0 125 41 205.5t113.5 128t170 65t207.5 17.5h191q23 0 39 -16.5t16 -39.5v-248q0 -23 -16.5 -39t-38.5 -16h-166q-88 0 -88 -67v-25h231 q23 0 39.5 -16.5t16.5 -38.5v-248q0 -23 -16.5 -39t-39.5 -16h-231v-609q0 -293 -154.5 -426t-451.5 -133h-80q-23 0 -39 16.5t-16 38.5v306z" />
<glyph unicode="&#x1fc;" horiz-adv-x="2058" d="M8 45q0 8 2 14l457 1307q6 23 28.5 45.5t63.5 22.5h1352q23 0 39 -16.5t16 -39.5v-288q0 -23 -16.5 -39.5t-38.5 -16.5h-553v-129h508q23 0 39 -16.5t16 -38.5v-266q0 -23 -16.5 -39.5t-38.5 -16.5h-508v-129h569q23 0 39 -16t16 -39v-289q0 -23 -16 -39t-39 -16h-1005 q-23 0 -39.5 16.5t-16.5 38.5v131h-305l-49 -135q-6 -16 -22.5 -33.5t-57.5 -17.5h-379q-18 0 -31.5 13.5t-13.5 31.5zM666 586h200v448h-65zM899 1569q0 16 11 26l204 250q23 27 38.5 33t37.5 6h402q39 0 39 -41q0 -14 -11 -24l-301 -248q-16 -14 -34.5 -24.5t-51.5 -10.5 h-301q-33 0 -33 33z" />
<glyph unicode="&#x1fd;" horiz-adv-x="1914" d="M35 305q0 74 31.5 132.5t90 101.5t141.5 72.5t185 47.5l217 35q0 55 -9 80t-52 25q-27 0 -43 -10.5t-29.5 -22.5t-29 -22.5t-39.5 -10.5h-348q-45 0 -46 45q0 39 31 92.5t95.5 100.5t167 80.5t245.5 33.5q115 0 192.5 -19t129.5 -56q66 35 143.5 55t169.5 20 q150 0 260.5 -45t182 -120.5t106.5 -177t35 -214.5v-61q0 -23 -16.5 -39t-39.5 -16h-610v-11q0 -61 17.5 -93t62.5 -32q18 0 30.5 10.5t28.5 26.5q18 18 30.5 23.5t37.5 5.5h387q45 0 45 -45q0 -39 -34 -93t-102.5 -104.5t-173 -85t-245.5 -34.5q-254 0 -403 124 q-47 -41 -99.5 -64.5t-104.5 -37.5t-103.5 -18t-96.5 -4q-104 0 -186 24.5t-137.5 68.5t-85 103t-29.5 129zM496 340q0 -23 19 -40t58 -17q59 0 96.5 37.5t37.5 121.5l-121 -26q-53 -12 -71.5 -33t-18.5 -43zM768 1251q0 16 11 27l204 250q23 27 38.5 33t37.5 6h381 q39 0 39 -41q0 -14 -10 -25l-301 -248q-16 -14 -34.5 -24t-51.5 -10h-281q-33 0 -33 32zM1196 668h164v8q0 123 -82 123t-82 -123v-8z" />
<glyph unicode="&#x1fe;" horiz-adv-x="1597" d="M25 326v221q0 51 45 67l47 19v131t4 129q6 135 57 239.5t140.5 176t212 108.5t274.5 37q221 0 382 -80t238 -229l86 35q14 6 23 6q18 0 30.5 -12.5t12.5 -30.5v-221q0 -51 -45 -68l-41 -16q2 -78 1 -157t-3 -149q-6 -137 -57.5 -240.5t-140.5 -173t-213 -104t-273 -34.5 q-238 0 -403.5 83.5t-235.5 253.5l-76 -28q-16 -6 -22 -6q-18 0 -30.5 12t-12.5 31zM587 1569q0 16 11 26l204 250q23 27 38.5 33t37.5 6h402q39 0 39 -41q0 -14 -11 -24l-301 -248q-16 -14 -34.5 -24.5t-51.5 -10.5h-301q-33 0 -33 33zM651 842l293 114q-16 51 -52 75 t-87 24q-66 0 -107 -40t-45 -126q-2 -12 -2 -24.5v-22.5zM655 510q10 -68 49 -99.5t101 -31.5q68 0 107.5 40t43.5 126q0 23 1 42t1 42z" />
<glyph unicode="&#x1ff;" horiz-adv-x="1366" d="M16 221v139q0 51 45 68l31 10q-6 94 0 191q16 227 171 341.5t423 114.5q188 0 318.5 -52t201.5 -163l76 31q14 6 23 6q18 0 30.5 -12t12.5 -31v-139q0 -51 -45 -68l-25 -10q4 -47 5 -105.5t-3 -105.5q-31 -457 -594 -456q-399 0 -532 231l-72 -27q-16 -6 -23 -6 q-18 0 -30.5 12.5t-12.5 30.5zM467 1251q0 16 11 27l204 250q23 27 38.5 33t37.5 6h381q39 0 39 -41q0 -14 -10 -25l-301 -248q-16 -14 -34.5 -24t-51.5 -10h-281q-33 0 -33 32zM594 633l172 67q-8 29 -25.5 43.5t-54.5 14.5q-55 0 -71.5 -33t-20.5 -92zM600 385 q6 -41 23.5 -59.5t62.5 -18.5q57 0 72.5 34t19.5 105v9z" />
<glyph unicode="&#x218;" horiz-adv-x="1427" d="M37 416q0 18 13 31.5t32 13.5h389q33 0 49.5 -9.5t38.5 -25.5q29 -23 64.5 -35t87.5 -12q70 0 111.5 14.5t41.5 42.5q0 37 -56 56.5t-208 39.5q-121 16 -219 50t-167 89.5t-105.5 132.5t-36.5 179q0 104 45 191.5t127 148.5t197.5 96t254.5 35q154 0 272.5 -41 t200.5 -104.5t125 -137t45 -141.5q0 -18 -13 -31.5t-30 -13.5h-409q-29 0 -46.5 8t-35.5 25q-10 10 -38 23.5t-71 13.5q-53 0 -75.5 -15.5t-22.5 -42.5q0 -14 9 -26.5t35 -23.5t70 -20t113 -18q154 -18 261.5 -53t175 -89t98.5 -129t31 -175q0 -113 -52.5 -202 t-143.5 -151.5t-215 -96t-269 -33.5q-170 0 -296 35.5t-209 96t-125 139.5t-44 165zM440 -463l43 281q4 29 26 54.5t62 25.5h310q18 0 31.5 -13.5t13.5 -31.5q0 -8 -2 -15l-113 -284q-8 -20 -27.5 -43t-60.5 -23h-238q-18 0 -31.5 13.5t-13.5 31.5v4z" />
<glyph unicode="&#x219;" horiz-adv-x="1208" d="M45 272q-2 23 12.5 39.5t36.5 16.5h357q23 0 40 -9.5t34.5 -21.5t37 -21.5t43.5 -9.5q16 0 31.5 7.5t15.5 23.5q0 12 -5 24.5t-25.5 23.5t-63.5 22.5t-119 25.5q-72 12 -139.5 38t-119.5 66t-83.5 99t-31.5 139q0 66 33.5 129.5t99 112.5t162 78.5t223.5 29.5t225 -29.5 t166.5 -73.5t105.5 -95t39 -94q2 -23 -12 -39.5t-33 -16.5h-344q-23 0 -40 9.5t-34.5 21.5t-35 21.5t-39.5 9.5q-16 0 -28.5 -9.5t-12.5 -23.5q0 -12 5 -24.5t27.5 -22.5t67.5 -20.5t125 -22.5q111 -16 186.5 -52t123.5 -84t68.5 -102.5t20.5 -105.5q0 -166 -147.5 -259 t-425.5 -93q-147 0 -250.5 30.5t-168 74.5t-95.5 95t-33 92zM346 -463l43 281q4 29 26 54.5t62 25.5h287q18 0 31.5 -13.5t13.5 -31.5q0 -8 -2 -15l-112 -284q-8 -20 -28 -43t-61 -23h-215q-18 0 -31.5 13.5t-13.5 31.5v4z" />
<glyph unicode="&#x237;" horiz-adv-x="987" d="M45 -14q0 23 16.5 39t38.5 16h207q47 0 67.5 27.5t20.5 74.5v547h-289q-23 0 -39 16.5t-16 38.5v265q0 23 16.5 39t38.5 16h734q23 0 39 -16.5t16 -38.5v-867q0 -127 -40 -225t-109.5 -166.5t-166 -104.5t-206.5 -36h-273q-23 0 -39 16.5t-16 38.5v320z" />
<glyph unicode="&#x2c6;" horiz-adv-x="1081" d="M102 1251q0 16 11 27l229 250q20 23 36.5 31t39.5 8h246q23 0 39 -8.5t36 -30.5l230 -250q10 -10 10 -27q0 -33 -33 -32h-135q-20 0 -39.5 2t-42.5 12l-188 86l-189 -86q-23 -10 -42 -12t-40 -2h-135q-33 0 -33 32z" />
<glyph unicode="&#x2c7;" horiz-adv-x="1081" d="M102 1534q0 33 33 33h135q20 0 40 -2t42 -13l189 -86l188 86q23 10 42.5 12.5t39.5 2.5h135q33 0 33 -33q0 -16 -10 -27l-230 -250q-20 -23 -36.5 -30.5t-38.5 -7.5h-246q-23 0 -39.5 8t-36.5 30l-229 250q-10 10 -11 27z" />
<glyph unicode="&#x2d8;" horiz-adv-x="911" d="M102 1528q0 16 10.5 27.5t28.5 11.5h193q18 0 28.5 -11.5t10.5 -27.5q0 -47 17.5 -80t64.5 -33t64.5 33t17.5 80q0 16 10 27.5t28 11.5h193q18 0 28.5 -11.5t10.5 -27.5q0 -70 -23.5 -128.5t-68.5 -101.5t-110.5 -66.5t-149.5 -23.5t-149.5 23.5t-110.5 66.5t-69 101.5 t-24 128.5z" />
<glyph unicode="&#x2d9;" horiz-adv-x="567" d="M102 1266v268q0 20 13.5 33.5t34.5 13.5h268q20 0 33.5 -13.5t13.5 -33.5v-268q0 -20 -13.5 -33.5t-33.5 -13.5h-268q-20 0 -34 13t-14 34z" />
<glyph unicode="&#x2da;" horiz-adv-x="614" d="M102 1403q0 86 59.5 140t145.5 54t145.5 -54t59.5 -140t-59.5 -140.5t-145.5 -54.5t-145.5 54.5t-59.5 140.5zM246 1403q0 -27 17.5 -44.5t43.5 -17.5q27 0 44.5 17.5t17.5 44.5t-17.5 44t-44.5 17t-44 -17t-17 -44z" />
<glyph unicode="&#x2db;" horiz-adv-x="620" d="M82 -100q0 74 20.5 137t63.5 110.5t109.5 75t158.5 27.5h29q23 0 39 -16.5t16 -38.5v-140q0 -23 -16.5 -39t-38.5 -16h-21q-59 0 -80.5 -34t-21.5 -66q0 -33 21.5 -67t80.5 -34h21q23 0 39 -16t16 -39v-139q0 -23 -16.5 -39.5t-38.5 -16.5h-29q-92 0 -158.5 28t-109.5 75 t-63.5 110.5t-20.5 137.5z" />
<glyph unicode="&#x2dc;" horiz-adv-x="1038" d="M102 1255q0 35 12.5 90.5t43 106.5t85 88t138.5 37q45 0 78 -11.5t59.5 -25.5t50 -25.5t54.5 -11.5q23 0 35 10.5t21 21.5t19.5 21.5t26.5 10.5h172q18 0 28.5 -11.5t10.5 -27.5q0 -35 -12.5 -89.5t-43 -105.5t-85 -88t-138.5 -37q-47 0 -78.5 11.5t-58 26t-50.5 25.5 t-54 11q-25 0 -37 -10t-21.5 -21.5t-18.5 -21.5t-26 -10h-172q-16 0 -27.5 10t-11.5 26z" />
<glyph unicode="&#x2dd;" horiz-adv-x="1273" d="M106 1251q0 8 3.5 16.5t7.5 14.5l110 246q10 20 26.5 29.5t49.5 9.5h301q41 0 41 -39q0 -14 -12 -27l-234 -254q-25 -29 -69 -28h-191q-33 0 -33 32zM631 1251q0 8 3 16.5t7 14.5l111 246q10 20 26.5 29.5t48.5 9.5h301q41 0 41 -39q0 -14 -12 -27l-233 -254 q-25 -29 -70 -28h-190q-33 0 -33 32z" />
<glyph unicode="&#x400;" horiz-adv-x="1366" d="M113 55v1323q0 23 16 39.5t39 16.5h1051q23 0 39 -16.5t16 -39.5v-288q0 -23 -16.5 -39.5t-38.5 -16.5h-615v-129h570q23 0 39 -16.5t16 -38.5v-266q0 -23 -16.5 -39.5t-38.5 -16.5h-570v-129h631q23 0 39 -16t16 -39v-289q0 -23 -16.5 -39t-38.5 -16h-1067 q-23 0 -39 16.5t-16 38.5zM186 1843q0 41 39 41h402q23 0 38 -6t37 -33l205 -250q10 -10 11 -26q0 -33 -33 -33h-301q-33 0 -51.5 10t-34.5 25l-301 248q-10 10 -11 24z" />
<glyph unicode="&#x401;" horiz-adv-x="1366" d="M113 55v1323q0 23 16 39.5t39 16.5h1051q23 0 39 -16.5t16 -39.5v-288q0 -23 -16.5 -39.5t-38.5 -16.5h-615v-129h570q23 0 39 -16.5t16 -38.5v-266q0 -23 -16.5 -39.5t-38.5 -16.5h-570v-129h631q23 0 39 -16t16 -39v-289q0 -23 -16.5 -39t-38.5 -16h-1067 q-23 0 -39 16.5t-16 38.5zM252 1583v254q0 20 13.5 33.5t34.5 13.5h253q20 0 34 -13t14 -34v-254q0 -20 -13.5 -33.5t-34.5 -13.5h-253q-20 0 -34 13.5t-14 33.5zM803 1583v254q0 20 13.5 33.5t33.5 13.5h254q20 0 33.5 -13t13.5 -34v-254q0 -20 -13 -33.5t-34 -13.5h-254 q-20 0 -33.5 13.5t-13.5 33.5z" />
<glyph unicode="&#x402;" horiz-adv-x="1599" d="M27 1118v268q0 20 13 34t34 14h1044q20 0 33.5 -13.5t13.5 -34.5v-268q0 -20 -13 -33.5t-34 -13.5h-303v-117h125q299 0 451.5 -127t152.5 -401v-338q0 -145 -46 -249.5t-129 -171t-198.5 -97.5t-255.5 -31h-18q-23 0 -39 16.5t-16 38.5v259q0 23 16 39t39 16h39 q66 0 91.5 54t25.5 149v301q0 72 -32 102.5t-91 30.5h-115v-490q0 -23 -16.5 -39t-38.5 -16h-379q-23 0 -39 16.5t-16 38.5v1016h-252q-20 0 -33.5 13.5t-13.5 33.5z" />
<glyph unicode="&#x403;" horiz-adv-x="1282" d="M113 55v1323q0 23 16 39.5t39 16.5h1032q23 0 39 -16.5t16 -39.5v-309q0 -23 -16 -39t-39 -16h-567v-959q0 -23 -16.5 -39t-38.5 -16h-410q-23 0 -39 16.5t-16 38.5zM487 1569q0 16 11 26l204 250q23 27 38.5 33t37.5 6h402q39 0 39 -41q0 -14 -11 -24l-301 -248 q-16 -14 -34.5 -24.5t-51.5 -10.5h-301q-33 0 -33 33z" />
<glyph unicode="&#x404;" horiz-adv-x="1490" d="M68 717.5q0 27.5 1 52.5t1 41q8 150 56 269.5t136 202.5t214 127t290 44q137 0 261 -38t217 -104.5t147.5 -158.5t54.5 -201q0 -18 -13.5 -31.5t-31.5 -13.5h-397q-35 0 -52.5 12.5t-31.5 47.5q-20 49 -61.5 69.5t-94.5 20.5q-68 0 -115 -36t-47 -128h234q23 0 39 -16.5 t16 -38.5v-238q0 -23 -16.5 -39t-38.5 -16h-234q0 -94 47 -130t115 -36q53 0 94 20.5t62 69.5q14 35 31.5 47t52.5 12h397q18 0 31.5 -13t13.5 -32q0 -109 -54.5 -201t-147.5 -159.5t-217 -105t-261 -37.5q-164 0 -290 44t-214 128t-136 202.5t-56 270.5q0 14 -1 39.5t-1 53 z" />
<glyph unicode="&#x405;" horiz-adv-x="1427" d="M37 416q0 18 13 31.5t32 13.5h389q33 0 49.5 -9.5t38.5 -25.5q29 -23 64.5 -35t87.5 -12q70 0 111.5 14.5t41.5 42.5q0 37 -56 56.5t-208 39.5q-121 16 -219 50t-167 89.5t-105.5 132.5t-36.5 179q0 104 45 191.5t127 148.5t197.5 96t254.5 35q154 0 272.5 -41 t200.5 -104.5t125 -137t45 -141.5q0 -18 -13 -31.5t-30 -13.5h-409q-29 0 -46.5 8t-35.5 25q-10 10 -38 23.5t-71 13.5q-53 0 -75.5 -15.5t-22.5 -42.5q0 -14 9 -26.5t35 -23.5t70 -20t113 -18q154 -18 261.5 -53t175 -89t98.5 -129t31 -175q0 -113 -52.5 -202 t-143.5 -151.5t-215 -96t-269 -33.5q-170 0 -296 35.5t-209 96t-125 139.5t-44 165z" />
<glyph unicode="&#x406;" horiz-adv-x="753" d="M113 55v1323q0 23 16 39.5t39 16.5h418q23 0 39 -16.5t16 -39.5v-1323q0 -23 -16.5 -39t-38.5 -16h-418q-23 0 -39 16.5t-16 38.5z" />
<glyph unicode="&#x407;" horiz-adv-x="753" d="M-72 1583v254q0 20 13.5 33.5t34.5 13.5h253q20 0 34 -13t14 -34v-254q0 -20 -13.5 -33.5t-34.5 -13.5h-253q-20 0 -34 13.5t-14 33.5zM113 55v1323q0 23 16 39.5t39 16.5h418q23 0 39 -16.5t16 -39.5v-1323q0 -23 -16.5 -39t-38.5 -16h-418q-23 0 -39 16.5t-16 38.5z M479 1583v254q0 20 13.5 33.5t33.5 13.5h254q20 0 33.5 -13t13.5 -34v-254q0 -20 -13 -33.5t-34 -13.5h-254q-20 0 -33.5 13.5t-13.5 33.5z" />
<glyph unicode="&#x408;" horiz-adv-x="1437" d="M20 481q0 18 13.5 31.5t32.5 13.5h417q35 0 51.5 -15t32.5 -50q20 -41 44 -61.5t75 -20.5q55 0 88 36t33 130v473h-608q-23 0 -39.5 16.5t-16.5 38.5v305q0 23 16.5 39.5t39.5 16.5h1083q23 0 39 -16.5t16 -39.5v-850q0 -141 -52 -244.5t-142 -171t-212 -100t-261 -32.5 q-127 0 -244 32.5t-206 97t-143 157.5t-57 214z" />
<glyph unicode="&#x409;" horiz-adv-x="2373" d="M37 35v301q0 23 16.5 39t38.5 16q152 0 152 158v829q0 23 16 39.5t39 16.5h1221q23 0 39 -16.5t16 -39.5v-391h133q143 0 259 -27.5t198 -87t126 -151.5t44 -219t-44 -221.5t-126 -157t-198 -93t-259 -30.5h-610q-23 0 -39.5 16.5t-16.5 38.5v928h-286v-444 q0 -145 -49.5 -251t-136.5 -174.5t-209 -101t-267 -32.5q-23 0 -40 16t-17 39zM1563 381h143q55 0 74.5 39t19.5 78q0 59 -30.5 84.5t-63.5 25.5h-143v-227z" />
<glyph unicode="&#x40a;" horiz-adv-x="2324" d="M113 55v1323q0 23 16 39.5t39 16.5h401q23 0 39.5 -16.5t16.5 -39.5v-430h368v430q0 23 16.5 39.5t39.5 16.5h421q23 0 39.5 -16.5t16.5 -39.5v-391h133q143 0 259 -27.5t198 -87t126 -151.5t44 -219t-44 -221.5t-126 -157t-198 -93t-259 -30.5h-610q-23 0 -39.5 16.5 t-16.5 38.5v443h-368v-443q0 -23 -16.5 -39t-39.5 -16h-401q-23 0 -39 15.5t-16 39.5zM1516 381h143q55 0 74.5 39t19.5 78q0 59 -30.5 84.5t-63.5 25.5h-143v-227z" />
<glyph unicode="&#x40b;" horiz-adv-x="1599" d="M27 1118v268q0 20 13 34t34 14h1044q20 0 33.5 -13.5t13.5 -34.5v-268q0 -20 -13 -33.5t-34 -13.5h-303v-117h125q299 0 451.5 -127t152.5 -401v-371q0 -23 -16.5 -39t-38.5 -16h-381q-23 0 -39 16.5t-16 38.5v357q0 72 -32 102.5t-91 30.5h-115v-490q0 -23 -16.5 -39 t-38.5 -16h-379q-23 0 -39 16.5t-16 38.5v1016h-252q-20 0 -33.5 13.5t-13.5 33.5z" />
<glyph unicode="&#x40c;" horiz-adv-x="1464" d="M113 55v1323q0 23 16 39.5t39 16.5h391q23 0 39 -16.5t16 -39.5v-405l232 416q10 16 28.5 30.5t53.5 14.5h452q18 0 31.5 -13.5t13.5 -31.5q0 -14 -6 -23l-368 -618l403 -680q6 -10 6 -23q0 -18 -13 -31.5t-32 -13.5h-467q-41 0 -60.5 18.5t-23.5 28.5l-250 447v-439 q0 -23 -16 -39t-39 -16h-391q-23 0 -39 16.5t-16 38.5zM569 1569q0 16 11 26l204 250q23 27 38.5 33t37.5 6h402q39 0 39 -41q0 -14 -11 -24l-301 -248q-16 -14 -34.5 -24.5t-51.5 -10.5h-301q-33 0 -33 33z" />
<glyph unicode="&#x40d;" horiz-adv-x="1515" d="M112 55q0 -23 16.5 -39t38.5 -16h324q41 0 59.5 18.5t24.5 28.5l346 522v-514q0 -23 16.5 -39t38.5 -16h371q23 0 39 16.5t16 38.5v1323q0 23 -16 39.5t-39 16.5h-324q-41 0 -59 -18.5t-24 -29.5l-347 -567v559q0 23 -16 39.5t-39 16.5h-371q-23 0 -39 -16.5t-16 -39.5 v-1323zM245 1843q0 41 39 41h402q23 0 38 -6t37 -33l205 -250q10 -10 11 -26q0 -33 -33 -33h-301q-33 0 -51.5 10t-34.5 25l-301 248q-10 10 -11 24z" />
<glyph unicode="&#x40e;" horiz-adv-x="1435" d="M12 1384q4 20 17.5 35t33.5 15h429q31 0 44 -16.5t21 -33.5l191 -403l151 403q8 18 23.5 34t46.5 16h424q18 0 32.5 -13.5t14.5 -29.5q0 -4 1 -9.5t-3 -11.5l-408 -952q-53 -123 -103 -203t-117 -128t-158 -67.5t-222 -19.5h-256q-23 0 -39 16.5t-16 38.5v328 q0 23 16.5 39t38.5 16h205q33 0 68.5 3t44.5 26l-478 903q-2 6 -2 14zM385 1845q0 16 10.5 27.5t28.5 11.5h203q18 0 28.5 -11t10.5 -28q0 -47 16.5 -79.5t65.5 -32.5t65.5 32.5t16.5 79.5q0 16 10 27.5t29 11.5h202q18 0 28.5 -11t10.5 -28q0 -70 -22.5 -128t-66.5 -101 t-112.5 -66.5t-160.5 -23.5t-160.5 23.5t-113 66.5t-67 101.5t-22.5 127.5z" />
<glyph unicode="&#x40f;" horiz-adv-x="1492" d="M113 55v1323q0 25 16 40.5t39 15.5h401q23 0 39.5 -16.5t16.5 -39.5v-927h249v927q0 23 16.5 39.5t39.5 16.5h395q23 0 39 -16.5t16 -39.5v-1323q0 -23 -16 -39t-39 -16h-375v-197q0 -23 -16 -39t-39 -16h-301q-23 0 -39 16.5t-16 38.5v197h-371q-23 0 -39 16.5t-16 38.5 z" />
<glyph unicode="&#x410;" horiz-adv-x="1546" d="M0 45q0 8 2 14l457 1307q6 23 28.5 45.5t63.5 22.5h444q41 0 63.5 -22.5t28.5 -45.5l457 -1307q2 -6 2 -14q0 -18 -13 -31.5t-32 -13.5h-379q-41 0 -57 17.5t-23 33.5l-49 135h-440l-49 -135q-6 -16 -22.5 -33.5t-57.5 -17.5h-379q-18 0 -31.5 13.5t-13.5 31.5zM657 586 h232l-117 381z" />
<glyph unicode="&#x411;" horiz-adv-x="1376" d="M113 55v1323q0 23 16 39.5t39 16.5h981q23 0 39 -16.5t16 -39.5v-288q0 -23 -16.5 -39.5t-38.5 -16.5h-524v-119h131q133 0 241.5 -29.5t185.5 -86t118.5 -140.5t41.5 -192q0 -217 -154.5 -342t-432.5 -125h-588q-23 0 -39 16.5t-16 38.5zM625 352h129q25 0 43 11.5 t29.5 29t16.5 38t5 36.5q0 37 -23.5 71.5t-70.5 34.5h-129v-221z" />
<glyph unicode="&#x412;" horiz-adv-x="1503" d="M113 55v1323q0 23 16 39.5t39 16.5h680q295 0 431 -106.5t136 -323.5q0 -49 -16.5 -91.5t-41 -74t-53 -55t-53.5 -35.5q39 -16 75 -46t62.5 -69t42 -85t15.5 -97q0 -231 -148.5 -341t-429.5 -110h-700q-23 0 -39 16.5t-16 38.5zM625 352h190q51 0 72.5 33t21.5 68 q0 37 -23.5 68.5t-70.5 31.5h-190v-201zM625 895h172q45 0 64.5 29.5t19.5 62.5t-19.5 63.5t-64.5 30.5h-172v-186z" />
<glyph unicode="&#x413;" horiz-adv-x="1282" d="M113 55v1323q0 23 16 39.5t39 16.5h1032q23 0 39 -16.5t16 -39.5v-309q0 -23 -16 -39t-39 -16h-567v-959q0 -23 -16.5 -39t-38.5 -16h-410q-23 0 -39 16.5t-16 38.5z" />
<glyph unicode="&#x414;" horiz-adv-x="1697" d="M47 -170v565q0 23 16.5 39.5t38.5 16.5h9q59 0 100 39.5t41 117.5v770q0 23 16.5 39.5t38.5 16.5h1123q23 0 39 -16.5t16 -39.5v-927h88q23 0 39 -16.5t16 -39.5v-565q0 -23 -16.5 -39t-38.5 -16h-402q-23 0 -39 16t-16 39v170h-557v-170q0 -23 -16.5 -39t-38.5 -16h-402 q-23 0 -39 15t-16 40zM745 451h228v532h-209v-377q0 -14 -1 -36.5t-3 -45t-6 -43t-9 -30.5z" />
<glyph unicode="&#x415;" horiz-adv-x="1366" d="M113 55v1323q0 23 16 39.5t39 16.5h1051q23 0 39 -16.5t16 -39.5v-288q0 -23 -16.5 -39.5t-38.5 -16.5h-615v-129h570q23 0 39 -16.5t16 -38.5v-266q0 -23 -16.5 -39.5t-38.5 -16.5h-570v-129h631q23 0 39 -16t16 -39v-289q0 -23 -16.5 -39t-38.5 -16h-1067 q-23 0 -39 16.5t-16 38.5z" />
<glyph unicode="&#x416;" horiz-adv-x="2017" d="M14 45q0 12 6 23l342 680l-307 618q-6 8 -6 23q0 18 13.5 31.5t31.5 13.5h391q39 0 58.5 -17.5t23.5 -27.5l211 -478v467q0 23 16.5 39.5t39.5 16.5h350q23 0 39 -16.5t16 -39.5v-467l211 478q4 10 23.5 27.5t58.5 17.5h391q18 0 31.5 -13.5t13.5 -31.5q0 -14 -6 -23 l-307 -618l342 -680q6 -10 6 -23q0 -18 -13.5 -31.5t-31.5 -13.5h-406q-41 0 -60 20.5t-24 26.5l-229 508v-500q0 -23 -16.5 -39t-38.5 -16h-350q-23 0 -39.5 16.5t-16.5 38.5v500l-229 -508q-4 -6 -23.5 -26.5t-60.5 -20.5h-406q-18 0 -31.5 13.5t-13.5 31.5z" />
<glyph unicode="&#x417;" horiz-adv-x="1441" d="M39 403q0 18 13.5 32t31.5 14h412q29 0 42 -9.5t27 -23.5q16 -16 43 -28.5t92 -12.5q78 0 110 26.5t32 63.5q0 39 -36 53t-108 14h-206q-23 0 -39.5 18.5t-16.5 41.5v246q0 23 16.5 41t39.5 18h206q72 0 102.5 13.5t30.5 52.5q0 37 -26.5 64.5t-104.5 27.5q-33 0 -53 -3 t-33.5 -9.5t-21.5 -13.5t-17 -15q-14 -14 -27 -23.5t-42 -9.5h-412q-18 0 -31.5 13.5t-13.5 31.5q0 61 33 135t109.5 139.5t202.5 109.5t311 44q145 0 266 -35t209 -96t136 -143t48 -176q0 -35 -7 -74t-28.5 -79t-58.5 -77t-94 -65q59 -25 98 -60t61.5 -72.5t30.5 -76.5 t8 -72q0 -94 -50 -176t-139 -142.5t-212 -95t-268 -34.5q-184 0 -312.5 43t-206 107.5t-112.5 138t-35 134.5z" />
<glyph unicode="&#x418;" horiz-adv-x="1515" d="M112 55q0 -23 16.5 -39t38.5 -16h324q41 0 59.5 18.5t24.5 28.5l346 522v-514q0 -23 16.5 -39t38.5 -16h371q23 0 39 16.5t16 38.5v1323q0 23 -16 39.5t-39 16.5h-324q-41 0 -59 -18.5t-24 -29.5l-347 -567v559q0 23 -16 39.5t-39 16.5h-371q-23 0 -39 -16.5t-16 -39.5 v-1323z" />
<glyph unicode="&#x419;" horiz-adv-x="1515" d="M112 55q0 -23 16.5 -39t38.5 -16h324q41 0 59.5 18.5t24.5 28.5l346 522v-514q0 -23 16.5 -39t38.5 -16h371q23 0 39 16.5t16 38.5v1323q0 23 -16 39.5t-39 16.5h-324q-41 0 -59 -18.5t-24 -29.5l-347 -567v559q0 23 -16 39.5t-39 16.5h-371q-23 0 -39 -16.5t-16 -39.5 v-1323zM395 1845q0 16 10.5 27.5t28.5 11.5h203q18 0 28.5 -11t10.5 -28q0 -47 16.5 -79.5t65.5 -32.5t65.5 32.5t16.5 79.5q0 16 10 27.5t29 11.5h202q18 0 28.5 -11t10.5 -28q0 -70 -22.5 -128t-66.5 -101t-112.5 -66.5t-160.5 -23.5t-160.5 23.5t-113 66.5t-67 101.5 t-22.5 127.5z" />
<glyph unicode="&#x41a;" horiz-adv-x="1464" d="M113 55v1323q0 23 16 39.5t39 16.5h391q23 0 39 -16.5t16 -39.5v-405l232 416q10 16 28.5 30.5t53.5 14.5h452q18 0 31.5 -13.5t13.5 -31.5q0 -14 -6 -23l-368 -618l403 -680q6 -10 6 -23q0 -18 -13 -31.5t-32 -13.5h-467q-41 0 -60.5 18.5t-23.5 28.5l-250 447v-439 q0 -23 -16 -39t-39 -16h-391q-23 0 -39 16.5t-16 38.5z" />
<glyph unicode="&#x41b;" horiz-adv-x="1630" d="M37 35v301q0 23 16.5 39t38.5 16q152 0 152 158v829q0 23 16 39.5t39 16.5h1163q23 0 39.5 -16.5t16.5 -39.5v-1323q0 -23 -16.5 -39t-39.5 -16h-401q-23 0 -39 16.5t-16 38.5v928h-250v-442q0 -145 -49.5 -251t-136.5 -175.5t-209 -102t-267 -32.5q-23 0 -40 16t-17 39z " />
<glyph unicode="&#x41c;" horiz-adv-x="1753" d="M113 55v1323q0 23 16 39.5t39 16.5h324q41 0 61 -22.5t27 -33.5l297 -491l297 491q6 10 26.5 33t61.5 23h323q23 0 39 -16.5t16 -39.5v-1323q0 -23 -16 -39t-39 -16h-371q-23 0 -39 16.5t-16 38.5v561l-135 -221q-10 -16 -27.5 -33.5t-48.5 -17.5h-143q-31 0 -48.5 17.5 t-27.5 33.5l-135 221v-561q0 -23 -16.5 -39t-38.5 -16h-371q-23 0 -39 16.5t-16 38.5z" />
<glyph unicode="&#x41d;" horiz-adv-x="1581" d="M113 55v1323q0 23 16 39.5t39 16.5h401q23 0 39.5 -16.5t16.5 -39.5v-430h331v430q0 23 16.5 39.5t39.5 16.5h401q23 0 39 -16.5t16 -39.5v-1323q0 -23 -16 -39t-39 -16h-401q-23 0 -39.5 16.5t-16.5 38.5v443h-331v-443q0 -23 -16.5 -39t-39.5 -16h-401q-23 0 -39 15.5 t-16 39.5z" />
<glyph unicode="&#x41e;" horiz-adv-x="1519" d="M72 710.5q0 94.5 4 182.5q6 135 57 239.5t140 176t212 108.5t275 37q150 0 273.5 -37t212.5 -108.5t140.5 -176t57.5 -239.5q4 -88 4 -182.5t-4 -178.5q-6 -137 -57.5 -240.5t-140.5 -173t-213 -104t-273 -34.5q-152 0 -275 34.5t-212 104t-140 173t-57 240.5 q-4 84 -4 178.5zM608 545q4 -86 44 -126t108 -40t107.5 40t43.5 126q6 174 0 344q-4 86 -45 126t-106 40q-66 0 -107 -40t-45 -126q-6 -170 0 -344z" />
<glyph unicode="&#x41f;" horiz-adv-x="1581" d="M113 55v1323q0 23 16 39.5t39 16.5h1245q23 0 39 -16.5t16 -39.5v-1323q0 -23 -16 -39t-39 -16h-401q-23 0 -39.5 16.5t-16.5 38.5v928h-331v-928q0 -23 -16.5 -39t-39.5 -16h-401q-23 0 -39 15.5t-16 39.5z" />
<glyph unicode="&#x420;" horiz-adv-x="1443" d="M113 55v1323q0 23 16 39.5t39 16.5h620q139 0 253 -31t195 -93.5t125 -156.5t44 -221t-44 -219t-125 -151.5t-194.5 -87.5t-253.5 -28h-143v-391q0 -23 -16.5 -39t-38.5 -16h-422q-23 0 -39 16.5t-16 38.5zM635 825h143q33 0 63.5 26t30.5 85q0 39 -19 78t-75 39h-143 v-228z" />
<glyph unicode="&#x421;" horiz-adv-x="1501" d="M72 715q0 96 4 184q6 143 60 247.5t145.5 173.5t214 101.5t266.5 32.5q131 0 254 -29.5t219 -93t155.5 -163t61.5 -238.5q0 -18 -13.5 -31.5t-31.5 -13.5h-418q-35 0 -49 12t-27 47q-23 66 -61.5 88.5t-91.5 22.5q-68 0 -108 -36t-44 -130q-6 -170 0 -344q4 -94 44 -130 t108 -36q53 0 93 24.5t60 85.5q10 35 25.5 47.5t50.5 12.5h418q18 0 31.5 -13.5t13.5 -31.5q-2 -139 -61.5 -238.5t-155.5 -163t-219 -93t-254 -29.5q-147 0 -270 31.5t-214.5 99t-143.5 172t-58 252.5q-4 84 -4 180z" />
<glyph unicode="&#x422;" d="M35 1049v329q0 23 16.5 39.5t38.5 16.5h1200q23 0 39.5 -16.5t16.5 -39.5v-329q0 -23 -16.5 -39.5t-39.5 -16.5h-340v-938q0 -23 -16 -39t-39 -16h-410q-23 0 -39 16.5t-16 38.5v938h-340q-23 0 -39 16.5t-16 39.5z" />
<glyph unicode="&#x423;" horiz-adv-x="1435" d="M12 1384q4 20 17.5 35t33.5 15h429q31 0 44 -16.5t21 -33.5l191 -403l151 403q8 18 23.5 34t46.5 16h424q18 0 32.5 -13.5t14.5 -29.5q0 -4 1 -9.5t-3 -11.5l-408 -952q-53 -123 -103 -203t-117 -128t-158 -67.5t-222 -19.5h-256q-23 0 -39 16.5t-16 38.5v328 q0 23 16.5 39t38.5 16h205q33 0 68.5 3t44.5 26l-478 903q-2 6 -2 14z" />
<glyph unicode="&#x424;" horiz-adv-x="1669" d="M37 727q0 119 42 213t116.5 165t177 117t221.5 68v129q0 23 16.5 39.5t38.5 16.5h361q23 0 39 -16.5t16 -39.5v-129q123 -23 227.5 -68.5t180 -116.5t117.5 -165t42 -213q0 -123 -42 -221t-117.5 -172t-179 -121t-228.5 -70v-129q0 -23 -16.5 -39t-38.5 -16h-361 q-23 0 -39 16.5t-16 38.5v131q-123 25 -225.5 75t-176 124t-114.5 170t-41 213zM487 727q0 -72 31 -118t86 -70v356q-55 -23 -86 -64t-31 -104zM1055 539q53 25 84.5 69.5t31.5 116.5q0 66 -31.5 106.5t-84.5 63.5v-356z" />
<glyph unicode="&#x425;" horiz-adv-x="1513" d="M0 45q0 4 1 9t5 14l430 665l-387 633q-6 12 -6 23q0 18 13.5 31.5t31.5 13.5h444q41 0 60.5 -20.5t25.5 -31.5l144 -249l156 249q6 10 25.5 31t60.5 21h423q18 0 32 -13.5t14 -31.5q0 -8 -1.5 -11.5t-5.5 -11.5l-395 -627l436 -671q4 -8 5 -13.5t1 -9.5q0 -18 -13 -31.5 t-32 -13.5h-460q-41 0 -60.5 19.5t-23.5 27.5l-179 275l-170 -275q-4 -8 -23.5 -27.5t-59.5 -19.5h-447q-18 0 -31.5 13.5t-13.5 31.5z" />
<glyph unicode="&#x426;" horiz-adv-x="1597" d="M113 55v1323q0 25 16 40.5t39 15.5h401q23 0 39.5 -16.5t16.5 -39.5v-927h209v927q0 23 16 39.5t39 16.5h401q23 0 39.5 -16.5t16.5 -39.5v-927h151q23 0 39 -16.5t16 -39.5v-565q0 -23 -16 -39t-39 -16h-309q-23 0 -39 16t-16 39v170h-965q-23 0 -39 16.5t-16 38.5z" />
<glyph unicode="&#x427;" horiz-adv-x="1509" d="M57 1006l2 372q0 23 16.5 39.5t39.5 16.5h420q23 0 39 -16.5t16 -39.5v-352q0 -72 32.5 -104.5t104.5 -32.5h139v489q0 23 16.5 39.5t39.5 16.5h421q23 0 39.5 -16.5t16.5 -39.5v-1323q0 -23 -16.5 -39t-39.5 -16h-421q-23 0 -39.5 16.5t-16.5 38.5v367h-159 q-154 0 -275 33.5t-205 104.5t-127 181.5t-43 264.5z" />
<glyph unicode="&#x428;" horiz-adv-x="1972" d="M113 55v1323q0 25 16 40.5t39 15.5h381q23 0 39 -16.5t16 -39.5v-927h158v927q0 23 16.5 39.5t38.5 16.5h340q23 0 39 -16.5t16 -39.5v-927h156v927q0 23 16.5 39.5t38.5 16.5h381q23 0 39.5 -16.5t16.5 -39.5v-1323q0 -23 -16.5 -39t-39.5 -16h-1636q-23 0 -39 16.5 t-16 38.5z" />
<glyph unicode="&#x429;" horiz-adv-x="2111" d="M113 55v1323q0 25 16 40.5t39 15.5h381q23 0 39 -16.5t16 -39.5v-927h158v927q0 23 16.5 39.5t38.5 16.5h340q23 0 39 -16.5t16 -39.5v-927h156v927q0 23 16.5 39.5t38.5 16.5h381q23 0 39.5 -16.5t16.5 -39.5v-927h151q23 0 39 -16.5t16 -39.5v-565q0 -23 -16 -39 t-39 -16h-309q-23 0 -39 16t-16 39v170h-1479q-23 0 -39 16.5t-16 38.5z" />
<glyph unicode="&#x42a;" horiz-adv-x="1650" d="M31 1090v288q0 23 16 39.5t39 16.5h709q23 0 39 -16.5t16 -39.5v-391h133q143 0 259 -27.5t198 -87t126 -151.5t44 -219t-44 -221.5t-126 -157t-198 -93t-259 -30.5h-610q-23 0 -39.5 16.5t-16.5 38.5v979h-231q-23 0 -39 16.5t-16 39.5zM840 381h143q55 0 74.5 39 t19.5 78q0 59 -30.5 84.5t-63.5 25.5h-143v-227z" />
<glyph unicode="&#x42b;" horiz-adv-x="2127" d="M113 55v1323q0 23 16 39.5t39 16.5h422q23 0 39 -16.5t16 -39.5v-391h133q143 0 259 -27.5t198 -87t126 -151.5t44 -219t-44 -221.5t-126 -157t-197.5 -93t-259.5 -30.5h-610q-23 0 -39 16.5t-16 38.5zM635 381h143q55 0 74.5 39t19.5 78q0 59 -30.5 84.5t-63.5 25.5 h-143v-227zM1487 55v1323q0 23 16.5 39.5t38.5 16.5h418q23 0 39 -16.5t16 -39.5v-1323q0 -23 -16.5 -39t-38.5 -16h-418q-23 0 -39 16.5t-16 38.5z" />
<glyph unicode="&#x42c;" horiz-adv-x="1443" d="M113 55v1323q0 23 16 39.5t39 16.5h422q23 0 39 -16.5t16 -39.5v-391h133q143 0 259 -27.5t198 -87t126 -151.5t44 -219t-44 -221.5t-126 -157t-197.5 -93t-259.5 -30.5h-610q-23 0 -39 16.5t-16 38.5zM635 381h143q55 0 74.5 39t19.5 78q0 59 -30.5 84.5t-63.5 25.5 h-143v-227z" />
<glyph unicode="&#x42d;" horiz-adv-x="1490" d="M47 483q0 18 13.5 31.5t31.5 13.5h397q35 0 52.5 -12t31.5 -47q20 -49 61.5 -69.5t94.5 -20.5q68 0 115 36t47 130h-234q-23 0 -39 16.5t-16 38.5v238q0 23 16.5 39t38.5 16h234q0 92 -47 128t-115 36q-53 0 -94 -20.5t-62 -69.5q-14 -35 -31.5 -47.5t-52.5 -12.5h-397 q-18 0 -31.5 13.5t-13.5 31.5q0 109 54.5 201t147.5 158.5t216 104.5t262 38q326 0 503 -171t193 -472q0 -16 1 -41t1 -52.5t-1 -53t-1 -39.5q-8 -152 -56 -270.5t-136 -202.5t-215 -128t-289 -44q-139 0 -262 37.5t-216 105t-147.5 160t-54.5 200.5z" />
<glyph unicode="&#x42e;" horiz-adv-x="2273" d="M113 55v1323q0 23 16 39.5t39 16.5h401q23 0 39.5 -16.5t16.5 -39.5v-430h209q14 121 68 215t142.5 158.5t207 98.5t261.5 34q150 0 274 -37t213 -108.5t140.5 -176t57.5 -239.5q4 -88 4 -182.5t-4 -178.5q-6 -137 -57.5 -240.5t-140.5 -173t-213 -104t-274 -34.5 q-145 0 -266 32.5t-209 97t-141 162t-66 226.5h-206v-443q0 -23 -16.5 -39t-39.5 -16h-401q-23 0 -39 15.5t-16 39.5zM1362 545q4 -86 44 -126t107 -40q68 0 108 40t44 126q6 174 0 344q-4 86 -45 126t-107 40t-106.5 -40t-44.5 -126q-6 -170 0 -344z" />
<glyph unicode="&#x42f;" horiz-adv-x="1478" d="M41 45q0 -18 13.5 -31.5t31.5 -13.5h420q41 0 61.5 20.5t26.5 34.5l176 391h84v-391q0 -23 16.5 -39t39.5 -16h401q23 0 39 16.5t16 38.5v1323q0 23 -16 39.5t-39 16.5h-606q-147 0 -264 -34t-197 -98.5t-123 -156.5t-43 -209q0 -139 61.5 -239.5t159.5 -161.5l-252 -467 q-6 -12 -6 -23zM611 940q0 41 21.5 77t72.5 36h149v-217h-149q-47 0 -70.5 31.5t-23.5 72.5z" />
<glyph unicode="&#x430;" horiz-adv-x="1273" d="M35 305q0 74 31.5 132.5t90 101.5t141.5 72.5t185 47.5l217 35q0 55 -9 80t-52 25q-27 0 -43 -10.5t-29.5 -22.5t-29 -22.5t-39.5 -10.5h-348q-20 0 -34 12.5t-12 32.5q2 39 33 92.5t95.5 100.5t166 80.5t244.5 33.5q281 0 415 -115.5t134 -326.5v-588q0 -23 -16.5 -39 t-38.5 -16h-359q-23 0 -39 16.5t-16 38.5v58q-45 -61 -120 -97t-171 -36q-88 0 -161.5 24.5t-126 68.5t-81 103t-28.5 129zM496 340q0 -23 19 -40t58 -17q59 0 96.5 37.5t37.5 121.5l-121 -26q-53 -12 -71.5 -33t-18.5 -43z" />
<glyph unicode="&#x431;" horiz-adv-x="1304" d="M63 463q-4 61 0 125q4 135 45.5 242.5t102.5 191.5t132 147.5t133.5 115.5t107.5 94t53 83q2 10 15.5 21.5t35.5 11.5h293q23 0 39 -16.5t16 -38.5q0 -57 -11 -92t-58 -78q-66 -63 -141.5 -134t-141.5 -153q121 -4 224.5 -36t180 -93t119.5 -153.5t43 -217.5 q0 -129 -43 -223t-120.5 -156.5t-187 -93t-243.5 -30.5q-133 0 -241.5 30.5t-185 91t-120.5 150.5t-47 211zM565 418q2 -51 18.5 -81t73.5 -30q53 0 72 30t21 79q4 63 0 129q-4 49 -19.5 79.5t-73.5 30.5q-57 0 -72.5 -30.5t-19.5 -79.5q-4 -64 0 -127z" />
<glyph unicode="&#x432;" horiz-adv-x="1318" d="M92 55v955q0 23 16.5 39t38.5 16h547q143 0 244.5 -22.5t166 -63.5t94.5 -100.5t30 -133.5q0 -66 -26.5 -114.5t-67.5 -83.5q59 -35 97 -87t38 -134q0 -74 -30 -134.5t-94.5 -102.5t-165.5 -65.5t-245 -23.5h-588q-23 0 -39 16.5t-16 38.5zM551 281h164q35 0 54 10t19 41 t-19 42t-54 11h-164v-104zM551 680h164q37 0 55 10t18 41t-19 42t-54 11h-164v-104z" />
<glyph unicode="&#x433;" horiz-adv-x="1044" d="M92 1010q0 23 16.5 39t38.5 16h811q23 0 39.5 -16.5t16.5 -38.5v-248q0 -23 -16.5 -39t-39.5 -16h-395v-652q0 -23 -16.5 -39t-38.5 -16h-358q-23 0 -39.5 16.5t-16.5 38.5z" />
<glyph unicode="&#x434;" horiz-adv-x="1382" d="M43 -170v453q0 23 16.5 39t38.5 16h62q29 0 43 28.5t14 65.5v578q0 23 16.5 39t38.5 16h865q23 0 39 -16.5t16 -38.5v-672h80q23 0 39 -16.5t16 -38.5v-453q0 -23 -16.5 -39t-38.5 -16h-275q-23 0 -39 16t-16 39v170h-514v-170q0 -23 -16.5 -39t-38.5 -16h-275 q-23 0 -39 16t-16 39zM633 348h133v379h-125v-276q0 -29 -2 -53.5t-6 -49.5z" />
<glyph unicode="&#x435;" horiz-adv-x="1275" d="M57 530q0 135 41 238.5t118 174.5t184.5 106.5t240.5 35.5q150 0 260.5 -45t182 -120.5t106.5 -177t35 -214.5v-61q0 -23 -16.5 -39t-39.5 -16h-610v-11q0 -61 17.5 -93t62.5 -32q18 0 30.5 10.5t28.5 26.5q18 18 30.5 23.5t37.5 5.5h387q20 0 33.5 -12.5t11.5 -32.5 q-2 -39 -36 -93t-101.5 -104.5t-172 -85t-245.5 -34.5q-135 0 -242.5 31.5t-184.5 99t-118 172t-41 247.5zM559 668h164q0 70 -20.5 100.5t-61.5 30.5t-61.5 -31t-20.5 -100z" />
<glyph unicode="&#x436;" horiz-adv-x="1816" d="M27 49q0 14 8 27l268 508l-221 401q-4 4 -7 12.5t-3 18.5q0 20 14 34.5t35 14.5h352q29 0 42 -13.5t17 -21.5l162 -338v318q0 23 16.5 39t39.5 16h317q23 0 39 -16.5t16 -38.5v-316l160 336q4 8 17.5 21.5t41.5 13.5h353q20 0 34.5 -14.5t14.5 -34.5q0 -10 -3 -18.5 t-7 -12.5l-220 -399l271 -510q8 -12 8 -27q0 -20 -14.5 -34.5t-34.5 -14.5h-369q-31 0 -45 15.5t-18 19.5l-189 389v-369q0 -23 -16 -39t-39 -16h-317q-23 0 -39.5 16.5t-16.5 38.5v367l-186 -387q-4 -4 -18.5 -19.5t-45.5 -15.5h-368q-20 0 -34.5 14.5t-14.5 34.5z" />
<glyph unicode="&#x437;" horiz-adv-x="1181" d="M45 305q0 14 9 24.5t24 10.5h321q27 0 37 -8t21 -17q16 -14 31.5 -20t74.5 -6q47 0 64.5 14t17.5 39t-15.5 43t-68.5 18h-133q-18 0 -30.5 14.5t-12.5 31.5v174q0 16 12.5 30.5t30.5 14.5h133q53 0 68.5 12t15.5 37t-17.5 39t-64.5 14q-59 0 -74.5 -6t-31.5 -21 q-10 -8 -20.5 -16t-37.5 -8h-321q-14 0 -23.5 10t-9.5 25q0 45 23.5 102t83 108.5t161 86t254.5 34.5q123 0 225.5 -26.5t174 -72.5t111.5 -108.5t40 -132.5q0 -51 -34.5 -115.5t-122.5 -103.5q45 -18 75.5 -43.5t49 -55.5t25.5 -59.5t7 -54.5q0 -72 -40 -133t-111.5 -107 t-174 -73t-225.5 -27q-154 0 -255 35t-160.5 86t-83 108.5t-23.5 102.5z" />
<glyph unicode="&#x438;" horiz-adv-x="1357" d="M92 55v955q0 23 16.5 39t38.5 16h367q23 0 39 -16.5t16 -38.5v-334l228 362q16 27 47 27h366q23 0 39.5 -16.5t16.5 -38.5v-955q0 -23 -16.5 -39t-39.5 -16h-366q-23 0 -39.5 16.5t-16.5 38.5v334l-229 -366q-16 -23 -47 -23h-367q-23 0 -38 16.5t-15 38.5z" />
<glyph unicode="&#x439;" horiz-adv-x="1357" d="M92 55v955q0 23 16.5 39t38.5 16h367q23 0 39 -16.5t16 -38.5v-334l228 362q16 27 47 27h366q23 0 39.5 -16.5t16.5 -38.5v-955q0 -23 -16.5 -39t-39.5 -16h-366q-23 0 -39.5 16.5t-16.5 38.5v334l-229 -366q-16 -23 -47 -23h-367q-23 0 -38 16.5t-15 38.5zM325 1528 q0 16 10.5 27.5t28.5 11.5h193q18 0 28.5 -11.5t10.5 -27.5q0 -47 17.5 -80t64.5 -33t64.5 33t17.5 80q0 16 10 27.5t28 11.5h193q18 0 28.5 -11.5t10.5 -27.5q0 -70 -23.5 -128.5t-68.5 -101.5t-110.5 -66.5t-149.5 -23.5t-149.5 23.5t-110.5 66.5t-69 101.5t-24 128.5z " />
<glyph unicode="&#x43a;" horiz-adv-x="1318" d="M92 55v955q0 23 16.5 39t38.5 16h359q23 0 39 -16.5t16 -38.5v-336l201 356q4 8 17.5 21.5t41.5 13.5h393q20 0 35 -14.5t15 -34.5q0 -10 -3.5 -18.5t-7.5 -12.5l-260 -440l312 -469q8 -12 8 -27q0 -20 -14.5 -34.5t-34.5 -14.5h-430q-31 0 -45.5 15.5t-18.5 19.5 l-209 348v-328q0 -23 -16.5 -39t-38.5 -16h-359q-23 0 -39 16.5t-16 38.5z" />
<glyph unicode="&#x43b;" horiz-adv-x="1343" d="M49 35v268q0 23 16.5 39t38.5 16h15q47 0 67.5 28t20.5 75v549q0 23 16.5 39t38.5 16h934q23 0 39 -16.5t16 -38.5v-955q0 -23 -16 -39t-39 -16h-367q-23 0 -39 16.5t-16 38.5v652h-92v-258q0 -123 -40 -212.5t-109.5 -145.5t-166 -83.5t-206.5 -27.5h-56q-23 0 -39 16 t-16 39z" />
<glyph unicode="&#x43c;" horiz-adv-x="1542" d="M92 41v983q0 16 12.5 28.5t28.5 12.5h350q31 0 46.5 -16.5t19.5 -24.5l221 -365l221 365q4 8 19.5 24.5t46.5 16.5h350q18 0 30.5 -12.5t12.5 -28.5v-983q0 -16 -12.5 -28.5t-30.5 -12.5h-385q-18 0 -29.5 12.5t-11.5 28.5v336l-102 -164q-8 -12 -20.5 -25.5t-35.5 -13.5 h-106q-23 0 -36 13.5t-22 25.5l-100 164v-336q0 -16 -12 -28.5t-29 -12.5h-385q-16 0 -28.5 12.5t-12.5 28.5z" />
<glyph unicode="&#x43d;" horiz-adv-x="1357" d="M92 55v955q0 23 16.5 39t38.5 16h367q23 0 39 -16.5t16 -38.5v-293h219v293q0 23 16.5 39t39.5 16h366q23 0 39.5 -16.5t16.5 -38.5v-955q0 -23 -16.5 -39t-39.5 -16h-366q-23 0 -39.5 16.5t-16.5 38.5v303h-219v-303q0 -23 -16 -39t-39 -16h-367q-23 0 -39 16.5 t-16 38.5z" />
<glyph unicode="&#x43e;" horiz-adv-x="1314" d="M63 436q-6 96 0 193q16 227 171 341.5t423 114.5t423 -114.5t171 -341.5q6 -96 0 -193q-31 -457 -594 -456q-563 0 -594 456zM563 532.5q0 -24.5 1 -48t1 -38.5q2 -37 6 -62.5t13.5 -42.5t27 -25.5t45.5 -8.5q57 0 72.5 34t20.5 105q0 14 1 38t1 48.5t-1 47t-1 38.5 q-4 68 -19.5 104t-73.5 36q-29 0 -46 -9.5t-26.5 -26.5t-13.5 -44t-6 -60q0 -16 -1 -38.5t-1 -47z" />
<glyph unicode="&#x43f;" horiz-adv-x="1357" d="M92 55v955q0 23 16.5 39t38.5 16h1063q23 0 39.5 -16.5t16.5 -38.5v-955q0 -23 -16.5 -39t-39.5 -16h-366q-23 0 -39.5 16.5t-16.5 38.5v652h-219v-652q0 -23 -16 -39t-39 -16h-367q-23 0 -39 16.5t-16 38.5z" />
<glyph unicode="&#x440;" horiz-adv-x="1353" d="M92 -334v1344q0 23 16.5 39t38.5 16h349q23 0 39 -16.5t16 -38.5v-62q47 59 122 98t181 39q88 0 166 -25.5t135 -82.5t92 -146.5t41 -218.5q2 -47 2 -80.5t-2 -80.5q-4 -121 -39 -209t-93 -146.5t-136 -87t-166 -28.5q-86 0 -155.5 28.5t-116.5 93.5v-436 q0 -23 -16.5 -39t-39.5 -16h-379q-23 0 -39 16.5t-16 38.5zM578 524.5q0 -28.5 4 -75.5q4 -49 26.5 -76t75.5 -27q57 0 76.5 32t25.5 87q4 31 4.5 67.5t-4.5 67.5q-6 55 -25.5 87t-76.5 32t-77.5 -32t-24.5 -87q-4 -47 -4 -75.5z" />
<glyph unicode="&#x441;" horiz-adv-x="1273" d="M59 531q0 49 2 83q6 113 52.5 201t123 148.5t179 91t219.5 30.5q162 0 275.5 -47t184 -111.5t104.5 -131t36 -107.5q2 -23 -15.5 -39t-39.5 -16h-400q-23 0 -36 11t-23 30q-14 29 -29.5 45t-46.5 16q-47 0 -63.5 -35t-18.5 -96q-2 -88 0 -145q4 -66 19.5 -97.5 t62.5 -31.5q37 0 50.5 16t25.5 45q16 41 59 41h400q23 0 40 -16.5t15 -38.5q-2 -23 -15.5 -60.5t-42 -82t-74.5 -89.5t-112.5 -81.5t-154.5 -60t-201 -23.5q-117 0 -219.5 30.5t-179 90t-122.5 146.5t-53 202q-2 33 -2 82z" />
<glyph unicode="&#x442;" horiz-adv-x="1185" d="M31 762v248q0 23 16 39t39 16h1014q23 0 39 -16.5t16 -38.5v-248q0 -23 -16.5 -39t-38.5 -16h-273v-652q0 -23 -16 -39t-39 -16h-358q-23 0 -39.5 16.5t-16.5 38.5v652h-272q-23 0 -39 16t-16 39z" />
<glyph unicode="&#x443;" horiz-adv-x="1304" d="M27 1016q4 20 17 34.5t34 14.5h346q31 0 45 -16.5t20 -32.5l170 -467l172 467q6 18 22.5 33.5t47.5 15.5h342q18 0 32.5 -13.5t14.5 -29.5q0 -4 1 -9t-3 -12l-407 -952q-53 -123 -102.5 -207t-109 -136t-133 -74.5t-174.5 -22.5h-153q-23 0 -39 16.5t-16 38.5v248 q0 23 16 39t39 16h102q25 0 41.5 3t28.5 14.5t22.5 31t22.5 52.5l-397 933q-2 6 -2 15z" />
<glyph unicode="&#x444;" horiz-adv-x="1974" d="M63.5 531.5q-0.5 33.5 2.5 80.5q6 129 38.5 218.5t89 146.5t131 82.5t164.5 25.5q53 0 90 -7t66 -21.5t51.5 -36t44.5 -51.5v430q0 23 16.5 39t39.5 16h381q23 0 39 -16.5t16 -38.5v-430q23 31 45 52t51 35.5t66 21.5t90 7q88 0 163.5 -25.5t132 -82.5t89.5 -146.5 t39 -218.5q2 -47 2 -80.5t-2 -80.5q-4 -121 -38 -209t-90.5 -146.5t-132 -87t-163.5 -28.5q-86 0 -145.5 28.5t-106.5 93.5v-436q0 -23 -16.5 -39t-38.5 -16h-381q-23 0 -39.5 16.5t-16.5 38.5v436q-47 -66 -106.5 -94t-145.5 -28q-90 0 -164.5 28.5t-131 87t-90 146.5 t-37.5 209q-2 47 -2.5 80.5zM563 532.5q0 -36.5 4 -67.5q6 -55 24.5 -87t67.5 -32q45 0 61.5 26.5t20.5 76.5q4 47 4 75.5t-4 75.5q-4 55 -18 87t-64 32q-49 0 -67.5 -32t-24.5 -87q-4 -31 -4 -67.5zM1229 524.5q0 -28.5 4 -75.5q4 -49 20.5 -76t61.5 -27q49 0 67.5 32 t24.5 87q4 31 4 67.5t-4 67.5q-6 55 -24.5 87t-67.5 32t-63.5 -32t-18.5 -87q-4 -47 -4 -75.5z" />
<glyph unicode="&#x445;" horiz-adv-x="1290" d="M8 49q0 4 2 12.5t6 14.5l332 473l-295 440q-8 12 -8 27q0 20 14.5 34.5t34.5 14.5h375q31 0 45 -14.5t21 -24.5l118 -182l119 182q6 10 20.5 24.5t45.5 14.5h358q20 0 34.5 -14.5t14.5 -32.5q0 -16 -8 -29l-301 -438l338 -475q8 -10 8 -27q0 -20 -14.5 -34.5t-34.5 -14.5 h-393q-29 0 -41.5 12.5t-20.5 22.5l-135 198l-141 -198q-6 -10 -19.5 -22.5t-42.5 -12.5h-383q-20 0 -34.5 14.5t-14.5 34.5z" />
<glyph unicode="&#x446;" horiz-adv-x="1411" d="M92 55v955q0 23 16.5 39t38.5 16h347q23 0 39 -16.5t16 -38.5v-652h178v652q0 23 16.5 39t38.5 16h346q23 0 39.5 -16.5t16.5 -38.5v-652h131q23 0 39 -16t16 -39v-473q0 -23 -16.5 -39t-38.5 -16h-264q-23 0 -39.5 16t-16.5 39v170h-848q-23 0 -39 16.5t-16 38.5z" />
<glyph unicode="&#x447;" horiz-adv-x="1323" d="M53 725v285q0 23 16.5 39t39.5 16h380q23 0 39.5 -16.5t16.5 -38.5v-265q0 -55 18.5 -73.5t71.5 -18.5h86v357q0 23 16.5 39t38.5 16h400q23 0 39 -16.5t16 -38.5v-955q0 -23 -16.5 -39t-38.5 -16h-400q-23 0 -39 16.5t-16 38.5v191h-107q-131 0 -234.5 25.5t-176 83 t-111.5 148.5t-39 222z" />
<glyph unicode="&#x448;" horiz-adv-x="1751" d="M92 55v955q0 23 16.5 39t38.5 16h336q23 0 39.5 -16.5t16.5 -38.5v-652h120v652q0 23 16.5 39t39.5 16h315q23 0 39 -16.5t16 -38.5v-652h117v652q0 23 16.5 39t38.5 16h347q23 0 39 -16.5t16 -38.5v-955q0 -23 -16.5 -39t-38.5 -16h-1457q-23 0 -39 16.5t-16 38.5z" />
<glyph unicode="&#x449;" horiz-adv-x="1890" d="M92 55v955q0 23 16.5 39t38.5 16h336q23 0 39.5 -16.5t16.5 -38.5v-631h120v631q0 23 16.5 39t39.5 16h315q23 0 39 -16.5t16 -38.5v-631h117v631q0 23 16.5 39t38.5 16h347q23 0 39 -16.5t16 -38.5v-631h133q23 0 39 -16.5t16 -38.5v-494q0 -23 -16 -39t-39 -16h-264 q-23 0 -39 16t-16 39v170h-1326q-23 0 -39 16.5t-16 38.5z" />
<glyph unicode="&#x44a;" horiz-adv-x="1501" d="M31 762v248q0 23 16 39t39 16h657q23 0 39.5 -16.5t16.5 -38.5v-123h133q119 0 218 -35t169 -96.5t108.5 -144.5t38.5 -179q0 -82 -29.5 -159.5t-94 -138t-166 -97.5t-244.5 -37h-567q-23 0 -39.5 16.5t-16.5 38.5v652h-223q-23 0 -39 16t-16 39zM788 362h144 q55 0 74.5 26t19.5 54q0 29 -23.5 57.5t-70.5 28.5h-144v-166z" />
<glyph unicode="&#x44b;" horiz-adv-x="1912" d="M92 1010q0 23 16.5 39t38.5 16h381q23 0 39.5 -16.5t16.5 -38.5v-123h133q119 0 218 -35t169 -96.5t108.5 -144.5t38.5 -179q0 -82 -29.5 -159.5t-94 -138t-166 -97.5t-244.5 -37h-567q-23 0 -39.5 16.5t-16.5 38.5zM573 362h144q55 0 74.5 26t19.5 54q0 29 -23.5 57.5 t-70.5 28.5h-144v-166zM1343 55v955q0 23 16.5 39t39.5 16h366q23 0 39.5 -16.5t16.5 -38.5v-955q0 -23 -16.5 -39t-39.5 -16h-366q-23 0 -39.5 16.5t-16.5 38.5z" />
<glyph unicode="&#x44c;" horiz-adv-x="1286" d="M92 1010q0 23 16.5 39t38.5 16h381q23 0 39.5 -16.5t16.5 -38.5v-123h133q119 0 218 -35t169 -96.5t108.5 -144.5t38.5 -179q0 -82 -29.5 -159.5t-94 -138t-166 -97.5t-244.5 -37h-567q-23 0 -39.5 16.5t-16.5 38.5zM573 362h144q55 0 74.5 26t19.5 54q0 29 -23.5 57.5 t-70.5 28.5h-144v-166z" />
<glyph unicode="&#x44d;" horiz-adv-x="1294" d="M41 377q0 23 16.5 39t38.5 16h359q43 0 59 -41q12 -29 41 -45t66 -16q49 0 73.5 18.5t34.5 59.5h-123q-23 0 -39 16t-16 39v145q0 23 16.5 39.5t38.5 16.5h121q-10 35 -34.5 53t-71.5 18q-31 0 -62 -16.5t-45 -44.5q-10 -18 -23.5 -29.5t-35.5 -11.5h-359q-23 0 -39 16.5 t-16 38.5q0 41 28.5 107.5t96 131t178.5 111.5t272 47q125 0 238 -32.5t199 -100t136 -172t50 -248.5q0 -145 -50 -249.5t-134 -172t-197 -99t-237 -31.5q-170 0 -282 50t-178.5 115.5t-93 132t-26.5 99.5z" />
<glyph unicode="&#x44e;" horiz-adv-x="1980" d="M92 55v955q0 23 16.5 39t38.5 16h367q23 0 39 -16.5t16 -38.5v-293h172q41 184 190.5 276t391.5 92q268 0 423 -114.5t171 -341.5q6 -96 0 -193q-31 -457 -594 -456q-514 0 -586 378h-168v-303q0 -23 -16 -39t-39 -16h-367q-23 0 -39 16.5t-16 38.5zM1229 532.5 q0 -24.5 1 -48t1 -38.5q2 -37 6 -62.5t13.5 -42.5t26.5 -25.5t46 -8.5q57 0 72.5 34t19.5 105q0 14 1 38t1 48.5t-1 47t-1 38.5q-4 68 -19.5 104t-72.5 36q-29 0 -46 -9.5t-26.5 -26.5t-13.5 -44t-6 -60q0 -16 -1 -38.5t-1 -47z" />
<glyph unicode="&#x44f;" horiz-adv-x="1333" d="M33 49q0 14 8 27l170 299q-55 53 -87 119.5t-32 144.5q0 90 35 168t102.5 135t170 90t237.5 33h549q23 0 39 -16.5t16 -38.5v-955q0 -23 -16.5 -39t-38.5 -16h-381q-23 0 -39 16.5t-16 38.5v166h-91l-94 -186q-4 -4 -18.5 -19.5t-44.5 -15.5h-420q-20 0 -34.5 14.5 t-14.5 34.5zM543 639q0 -59 94 -59h123v125h-123q-55 0 -74.5 -18.5t-19.5 -47.5z" />
<glyph unicode="&#x450;" horiz-adv-x="1275" d="M57 530q0 135 41 238.5t118 174.5t184.5 106.5t240.5 35.5q150 0 260.5 -45t182 -120.5t106.5 -177t35 -214.5v-61q0 -23 -16.5 -39t-39.5 -16h-610v-11q0 -61 17.5 -93t62.5 -32q18 0 30.5 10.5t28.5 26.5q18 18 30.5 23.5t37.5 5.5h387q20 0 33.5 -12.5t11.5 -32.5 q-2 -39 -36 -93t-101.5 -104.5t-172 -85t-245.5 -34.5q-135 0 -242.5 31.5t-184.5 99t-118 172t-41 247.5zM142 1526q0 41 38 41h381q23 0 38.5 -6.5t37.5 -32.5l205 -250q10 -10 10 -27q0 -33 -33 -32h-280q-33 0 -51.5 10t-34.5 24l-301 248q-10 10 -10 25zM559 668h164 q0 70 -20.5 100.5t-61.5 30.5t-61.5 -31t-20.5 -100z" />
<glyph unicode="&#x451;" horiz-adv-x="1275" d="M57 530q0 135 41 238.5t118 174.5t184.5 106.5t240.5 35.5q150 0 260.5 -45t182 -120.5t106.5 -177t35 -214.5v-61q0 -23 -16.5 -39t-39.5 -16h-610v-11q0 -61 17.5 -93t62.5 -32q18 0 30.5 10.5t28.5 26.5q18 18 30.5 23.5t37.5 5.5h387q20 0 33.5 -12.5t11.5 -32.5 q-2 -39 -36 -93t-101.5 -104.5t-172 -85t-245.5 -34.5q-135 0 -242.5 31.5t-184.5 99t-118 172t-41 247.5zM223 1266v254q0 20 13.5 33.5t34.5 13.5h253q20 0 34 -13.5t14 -33.5v-254q0 -20 -13.5 -33.5t-34.5 -13.5h-253q-20 0 -34 13t-14 34zM559 668h164 q0 70 -20.5 100.5t-61.5 30.5t-61.5 -31t-20.5 -100zM713 1266v254q0 20 13 33.5t34 13.5h254q20 0 33.5 -13.5t13.5 -33.5v-254q0 -20 -13.5 -33.5t-33.5 -13.5h-254q-20 0 -33.5 13t-13.5 34z" />
<glyph unicode="&#x452;" horiz-adv-x="1466" d="M-23 1110v186q0 20 13.5 33.5t34.5 13.5h137v56q0 23 16.5 39t38.5 16h379q23 0 39 -16.5t16 -38.5v-56h146q20 0 33.5 -13t13.5 -34v-186q0 -20 -13.5 -33.5t-33.5 -13.5h-146v-145q53 59 139.5 92.5t182.5 33.5q78 0 151.5 -27.5t132 -85t93 -145.5t34.5 -208v-490 q0 -145 -45 -249.5t-127 -171t-196.5 -97.5t-253.5 -31h-19q-23 0 -39 16.5t-16 38.5v259q0 23 16.5 39t38.5 16h39q66 0 91.5 54t25.5 149v454q0 55 -37 84t-86 29t-87 -28.5t-38 -84.5v-510q0 -23 -16.5 -39t-38.5 -16h-379q-23 0 -39 16.5t-16 38.5v1008h-137 q-20 0 -34 13.5t-14 33.5z" />
<glyph unicode="&#x453;" horiz-adv-x="1042" d="M92 1010q0 23 16.5 39t38.5 16h811q23 0 39.5 -16.5t16.5 -38.5v-248q0 -23 -16.5 -39t-39.5 -16h-395v-652q0 -23 -16.5 -39t-38.5 -16h-358q-23 0 -39.5 16.5t-16.5 38.5zM354 1251q0 16 11 27l204 250q23 27 38.5 33t37.5 6h381q39 0 39 -41q0 -14 -10 -25l-301 -248 q-16 -14 -34.5 -24t-51.5 -10h-281q-33 0 -33 32z" />
<glyph unicode="&#x454;" horiz-adv-x="1294" d="M55 532q0 143 50.5 248t136.5 172.5t198.5 100t237.5 32.5q162 0 272.5 -47t178 -111.5t96 -131t28.5 -107.5q0 -23 -16 -39t-39 -16h-358q-23 0 -36 11t-24 30q-14 29 -44.5 45t-61.5 16q-47 0 -71.5 -18.5t-35.5 -52.5h121q23 0 39 -16.5t16 -39.5v-145q0 -23 -16 -39 t-39 -16h-123q10 -41 35 -59.5t74 -18.5q37 0 65.5 16t40.5 45q16 41 60 41h358q23 0 39 -16.5t16 -38.5q0 -33 -26.5 -99.5t-93 -132t-178 -115.5t-281.5 -50q-125 0 -237.5 31.5t-196.5 99t-134.5 172t-50.5 249.5z" />
<glyph unicode="&#x455;" horiz-adv-x="1208" d="M45 272q-2 23 12.5 39.5t36.5 16.5h357q23 0 40 -9.5t34.5 -21.5t37 -21.5t43.5 -9.5q16 0 31.5 7.5t15.5 23.5q0 12 -5 24.5t-25.5 23.5t-63.5 22.5t-119 25.5q-72 12 -139.5 38t-119.5 66t-83.5 99t-31.5 139q0 66 33.5 129.5t99 112.5t162 78.5t223.5 29.5t225 -29.5 t166.5 -73.5t105.5 -95t39 -94q2 -23 -12 -39.5t-33 -16.5h-344q-23 0 -40 9.5t-34.5 21.5t-35 21.5t-39.5 9.5q-16 0 -28.5 -9.5t-12.5 -23.5q0 -12 5 -24.5t27.5 -22.5t67.5 -20.5t125 -22.5q111 -16 186.5 -52t123.5 -84t68.5 -102.5t20.5 -105.5q0 -166 -147.5 -259 t-425.5 -93q-147 0 -250.5 30.5t-168 74.5t-95.5 95t-33 92z" />
<glyph unicode="&#x456;" horiz-adv-x="661" d="M92 55v955q0 23 16.5 39t38.5 16h367q23 0 39 -16.5t16 -38.5v-955q0 -23 -16 -39t-39 -16h-367q-23 0 -39 16.5t-16 38.5zM102 1233v248q0 23 16.5 39t39.5 16h346q23 0 39 -16.5t16 -38.5v-248q0 -23 -16.5 -39t-38.5 -16h-346q-23 0 -39.5 16t-16.5 39z" />
</font>
</defs>
</svg>
