<?xml version="1.0" encoding="utf-8"?>
<!-- Generator: Adobe Illustrator 22.0.0, SVG Export Plug-In . SVG Version: 6.00 Build 0)  -->
<svg version="1.1" id="Layer_1" xmlns="http://www.w3.org/2000/svg" xmlns:xlink="http://www.w3.org/1999/xlink" x="0px" y="0px"
   viewBox="0 0 484 207.5" style="enable-background:new 0 0 484 207.5;" xml:space="preserve">
<style type="text/css">
  .st0{fill:#000000;stroke:#000000;stroke-miterlimit:10;}
  .st1{fill:#FFFFFF;stroke:#000000;stroke-miterlimit:10;}
  .st2{fill:none;}
  .st3{font-family:'Arial'; font-weight:bold;}
  .st4{font-size:36px;}
</style>
<title>logo</title>
<path class="st0" d="M214,13.9l94,94l-26.8,26.8l-94-94L214,13.9 M214,12.5l-28.3,28.3l95.5,95.5l28.3-28.3L214,12.5z"/>
<rect x="228.1" y="7.4" transform="matrix(0.7071 -0.7071 0.7071 0.7071 19.9129 196.8672)" class="st1" width="39" height="134"/>
<g>
  <rect x="1.5" y="2" class="st0" width="57" height="134"/>
  <path class="st0" d="M58,2.5v133H2V2.5H58 M59,1.5H1v135h58V1.5z"/>
</g>
<g>
  <rect x="78.5" y="1" class="st0" width="57" height="134"/>
  <path class="st0" d="M135,1.5v133H79V1.5H135 M136,0.5H78v135h58V0.5z"/>
</g>
<g>
  <rect x="1.5" y="40" class="st0" width="134" height="57"/>
  <path class="st0" d="M135,40.5v56H2v-56H135 M136,39.5H1v58h135V39.5z"/>
</g>
<g>
  <rect x="184.5" y="2" class="st1" width="57" height="134"/>
  <path class="st1" d="M241,2.5v133h-56V2.5H241 M242,1.5h-58v135h58V1.5z"/>
</g>
<g>
  <path class="st1" d="M241.5,39.5L241.6,2c27,0.3,48.9,17,48.9,37.5s-21.9,37.3-49,37.5V39.5z"/>
  <path class="st1" d="M242.1,2.5c12.7,0.2,24.6,4.1,33.6,11c9.2,7,14.3,16.2,14.3,26s-5.1,19-14.3,26s-21,10.8-33.7,11v-37
  L242.1,2.5 M241.1,1.5l-0.1,38v38c27.4,0,50-17.2,50-38S268.5,1.5,241.1,1.5z"/>
</g>
<g>
  <rect x="348.5" y="2" class="st0" width="57" height="134"/>
  <path class="st0" d="M405,2.5v133h-56V2.5H405 M406,1.5h-58v135h58V1.5z"/>
</g>
<g>
  <rect x="425.5" y="1" class="st0" width="57" height="134"/>
  <path class="st0" d="M482,1.5v133h-56V1.5H482 M483,0.5h-58v135h58V0.5z"/>
</g>
<g>
  <rect x="348.5" y="39" class="st0" width="134" height="57"/>
  <path class="st0" d="M482,39.5v56H349v-56H482 M483,38.5H348v58h135V38.5z"/>
</g>
<rect y="170" class="st2" width="484" height="37"/>
<text transform="matrix(1 0 0 1 51.94 195.78)" class="st3 st4">H</text>
<text transform="matrix(1 0 0 1 77.93 195.78)" class="st3 st4">A</text>
<text transform="matrix(1 0 0 1 101.95 195.78)" class="st3 st4">P</text>
<text transform="matrix(1 0 0 1 125.96 195.78)" class="st3 st4">P</text>
<text transform="matrix(1 0 0 1 149.97 195.78)" class="st3 st4">Y</text>
<text transform="matrix(1 0 0 1 183.33 195.78)" class="st3 st4">R</text>
<text transform="matrix(1 0 0 1 209.33 195.78)" class="st3 st4">E</text>
<text transform="matrix(1 0 0 1 233.34 195.78)" class="st3 st4">L</text>
<text transform="matrix(1 0 0 1 253.36 195.78)" class="st3 st4">A</text>
<text transform="matrix(1 0 0 1 277.38 195.78)" class="st3 st4">X</text>
<text transform="matrix(1 0 0 1 311.39 195.78)" class="st3 st4">H</text>
<text transform="matrix(1 0 0 1 337.39 195.78)" class="st3 st4">O</text>
<text transform="matrix(1 0 0 1 365.39 195.78)" class="st3 st4">T</text>
<text transform="matrix(1 0 0 1 387.38 195.78)" class="st3 st4">E</text>
<text transform="matrix(1 0 0 1 411.39 195.78)" class="st3 st4">L</text>
</svg>
